<svg width="31" height="31" viewBox="0 0 31 31" fill="none" xmlns="http://www.w3.org/2000/svg">
<path d="M26.4705 4.39532C23.6363 1.56059 19.8679 0 15.8592 0C11.8505 0 8.08217 1.56059 5.24788 4.39532C-0.603461 10.2462 -0.603461 19.7671 5.24788 25.6184C8.08217 28.4527 11.8505 30.0133 15.8592 30.0133C19.8679 30.0133 23.6363 28.4523 26.4705 25.618C32.3223 19.7671 32.3223 10.2462 26.4705 4.39532ZM26.9648 21.3892H22.9153C23.3573 19.6616 23.6218 17.7359 23.6701 15.6872H28.6445C28.5399 17.6656 27.9793 19.623 26.9648 21.3892ZM17.7019 27.6847C17.3113 27.7405 16.9167 27.7796 16.5182 27.7998V22.7077H21.1082C20.2717 25.042 19.0753 26.8258 17.7019 27.6847ZM10.6102 22.7072H15.2002V27.7994C14.8021 27.7792 14.4071 27.7405 14.0166 27.6843C12.6431 26.8258 11.4468 25.042 10.6102 22.7072ZM3.07439 15.6876H8.04878C8.09711 17.7359 8.36204 19.6621 8.80359 21.3896H4.75405C3.73913 19.623 3.17852 17.6656 3.07439 15.6876ZM5.05984 8.11974H8.94023C8.41344 9.98568 8.09799 12.1025 8.0479 14.3696H3.07131C3.17896 12.186 3.84326 10.0265 5.05984 8.11974ZM14.0166 2.32859C14.4071 2.27279 14.8017 2.23369 15.2002 2.21348V6.80167H10.8C11.6234 4.71473 12.7437 3.1247 14.0166 2.32859ZM20.9184 6.80167H16.5182V2.21392C16.9163 2.23413 17.3113 2.27279 17.7019 2.32903C18.9747 3.1247 20.095 4.71473 20.9184 6.80167ZM21.3788 8.11974C21.9456 9.96855 22.2967 12.1047 22.3525 14.3696H16.5182V8.11974H21.3788ZM15.2002 8.11974V14.3696H9.36597C9.42177 12.1047 9.77281 9.96855 10.3396 8.11974H15.2002ZM9.36685 15.6876H15.2002V21.3896H10.1928C9.71569 19.6726 9.42045 17.7333 9.36685 15.6876ZM16.5182 21.3892V15.6876H22.3516C22.298 17.7337 22.0023 19.6726 21.5256 21.3896L16.5182 21.3892ZM23.6705 14.3696C23.6204 12.1029 23.305 9.98568 22.7782 8.11974H26.6586C27.8747 10.0265 28.5395 12.186 28.6471 14.3696H23.6705ZM25.6938 6.80167H22.3577C21.8195 5.30786 21.1346 4.02099 20.3393 3.00124C22.0383 3.63435 23.5971 4.62774 24.9174 5.948C25.1924 6.22304 25.4495 6.50906 25.6938 6.80167ZM11.3791 3.00124C10.5839 4.02099 9.89891 5.30786 9.36069 6.80167H6.02466C6.26939 6.50906 6.52641 6.22304 6.80101 5.94844C8.12127 4.62818 9.68011 3.63435 11.3791 3.00124ZM5.62441 22.7072H9.18847C9.74996 24.4155 10.496 25.8794 11.3791 27.0116C9.68011 26.3785 8.12127 25.3851 6.80101 24.0649C6.37088 23.6347 5.98029 23.18 5.62441 22.7072ZM20.3393 27.012C21.2224 25.8798 21.9685 24.4159 22.53 22.7077H26.094C25.7381 23.1804 25.3475 23.6352 24.9174 24.0653C23.5971 25.3851 22.0383 26.3789 20.3393 27.012Z" fill="white"/>
</svg>
