<svg xmlns="http://www.w3.org/2000/svg" width="20" height="20" viewBox="0 0 20 20" fill="none">
  <g clip-path="url(#clip0_205_1466)">
    <path d="M15.6509 10.8193V17.9832H4.3484V10.6722H3.08789V18.6134C3.08789 18.9615 3.37004 19.2436 3.71813 19.2436H16.2812C16.6293 19.2436 16.9114 18.9615 16.9114 18.6134V10.8193H15.6509Z" fill="#1A4B81"/>
    <path d="M19.998 9.63454C19.9842 9.46102 19.8991 9.3009 19.7629 9.19231L10.3932 1.71329C10.1629 1.52965 9.83665 1.52965 9.60685 1.71329L0.23708 9.19231C0.100947 9.3009 0.015869 9.46102 0.00200184 9.63454C-0.0118653 9.80805 0.0467675 9.97969 0.16376 10.1085L2.03353 12.1673C2.15747 12.3039 2.32849 12.3738 2.50032 12.3738C2.63876 12.3738 2.77825 12.3282 2.89403 12.2356L10.0001 6.54274L17.1058 12.2356C17.3661 12.4432 17.7428 12.4141 17.9665 12.1673L19.8363 10.1085C19.9535 9.97969 20.0119 9.80805 19.998 9.63454ZM17.4317 10.8812L10.394 5.24336C10.2791 5.15114 10.1396 5.10493 10.0001 5.10493C9.86064 5.10493 9.72114 5.15114 9.60603 5.24336L2.56817 10.8812L1.54845 9.75825L10.0001 3.01204L18.4516 9.75825L17.4317 10.8812Z" fill="#1A4B81"/>
    <path d="M15.8399 0.756348H13.3607C13.0126 0.756348 12.7305 1.0385 12.7305 1.38658V4.95803H13.991V2.01682H15.2097V6.84873H16.4702V1.38658C16.4702 1.03846 16.188 0.756348 15.8399 0.756348Z" fill="#1A4B81"/>
    <path d="M10.0004 10.8192C9.65223 10.8192 9.37012 11.1014 9.37012 11.4494V15.6932C9.37012 16.0413 9.65226 16.3234 10.0004 16.3234C10.3484 16.3234 10.6304 16.0412 10.6306 15.6932V11.4494C10.6306 11.1014 10.3484 10.8192 10.0004 10.8192Z" fill="#1A4B81"/>
    <path d="M12.122 12.941H7.87828C7.53016 12.941 7.24805 13.2232 7.24805 13.5713C7.24805 13.9194 7.5302 14.2015 7.87828 14.2015H12.122C12.4701 14.2015 12.7522 13.9194 12.7522 13.5713C12.7522 13.2232 12.4701 12.941 12.122 12.941Z" fill="#1A4B81"/>
  </g>
  <defs>
    <clipPath id="clip0_205_1466">
      <rect width="20" height="20" fill="white"/>
    </clipPath>
  </defs>
</svg>