<svg width="280" height="169" viewBox="0 0 280 169" fill="none" xmlns="http://www.w3.org/2000/svg">
<path d="M19.3697 167.069C41.617 137.244 27.1711 110.803 20.0398 75.4356C2.56509 19.1083 70.6074 -26.3602 138.653 17.6475C180.866 44.9474 220.279 17.3153 251.939 46.001C277.118 68.814 252.045 116.953 251.501 138.647C251.072 155.748 265.791 167.069 265.791 167.069H19.3697Z" fill="#C7EBFF"/>
<path d="M279.505 168.192H0.495481C0.222112 168.192 0 167.97 0 167.697C0 167.423 0.222112 167.201 0.495481 167.201H279.505C279.778 167.201 280 167.423 280 167.697C280 167.97 279.778 168.192 279.505 168.192Z" fill="black"/>
<path d="M236.346 159.28C242.723 159.28 247.894 154.11 247.894 147.732V131.99H224.798V147.732C224.798 154.11 229.968 159.28 236.346 159.28Z" fill="#6BB2E3"/>
<path d="M247.895 168.322H249.175V143.887H247.895V168.322Z" fill="#425899"/>
<path d="M223.518 168.322H224.798V143.887H223.518V168.322Z" fill="#425899"/>
<path d="M233.313 168.322H234.593V143.887H233.313V168.322Z" fill="#425899"/>
<path d="M249.175 160.561V159.281H224.74V160.561H249.175Z" fill="#425899"/>
<path d="M232.504 102.252C234.662 103.401 232.957 106.222 233.841 108.896C234.724 111.571 238.274 111.505 236.933 116.291C236.107 119.238 233.182 117.391 233.248 121.223C233.316 125.055 234.766 124.961 233.64 126.931C231.677 130.366 224.986 128.444 224.932 124.61C224.879 120.775 228.089 119.47 225.378 117.686C222.666 115.903 221.581 115.091 223.365 112.541C225.575 109.384 229.001 109.479 228.042 107.015C227.083 104.551 229.649 100.733 232.502 102.251L232.504 102.252Z" fill="#A3CFFF"/>
<path d="M231.364 131.903L230.802 132.065C226.983 118.757 230.559 106.227 230.595 106.102L231.156 106.267C231.12 106.39 227.594 118.765 231.364 131.903Z" fill="#425899"/>
<path d="M261.137 99.4597C262.729 102.318 258.764 104.252 257.816 107.901C256.867 111.55 261.117 112.599 256.135 117.007C253.066 119.721 252.312 118.164 251.433 123.924C250.66 128.996 246.598 124.421 243.901 127.514C240.422 131.506 234.239 123.468 236.964 119.117C239.689 114.766 243.182 115.671 241.427 111.697C239.672 107.722 241.352 104.57 245.211 102.998C249.988 101.052 251.951 105.045 252.662 101.577C253.374 98.1109 259.031 95.68 261.137 99.4597Z" fill="#A1D3FF"/>
<path d="M238.327 131.974C243.63 114.451 256.578 103.107 256.708 102.995L256.197 102.402C256.065 102.516 242.947 114.01 237.578 131.747L238.327 131.974Z" fill="#425899"/>
<path d="M41.687 55.9438C41.9243 57.3819 42.7235 58.6861 43.8208 59.6267C44.918 60.5674 46.3181 61.153 47.7561 61.153H61.249C63.1502 61.153 64.6452 60.1317 65.303 58.6101C65.64 57.8299 65.7577 56.9196 65.5973 55.9448C65.36 54.5068 64.5607 53.2026 63.4673 52.2619C62.3662 51.3212 60.9699 50.7356 59.5319 50.7356H46.039C45.3736 50.7356 44.7576 50.8618 44.2109 51.0877C42.3903 51.8452 41.3234 53.7341 41.687 55.9448V55.9438Z" fill="#61B8FF"/>
<path d="M60.5666 66.3897C61.083 66.3897 61.4503 65.8856 61.2918 65.394L59.4798 59.7709C59.3782 59.4558 59.0859 59.2432 58.7546 59.2432C58.2383 59.2432 57.8709 59.7472 58.0294 60.2389L59.8415 65.8619C59.943 66.1771 60.2354 66.3897 60.5666 66.3897Z" fill="#123E80"/>
<path d="M51.6321 66.3897C52.1484 66.3897 52.5158 65.8856 52.3573 65.394L50.5452 59.7709C50.4437 59.4558 50.1513 59.2432 49.8201 59.2432C49.3037 59.2432 48.9363 59.7472 49.0949 60.2389L50.9069 65.8619C51.0084 66.1771 51.3008 66.3897 51.6321 66.3897Z" fill="#123E80"/>
<path d="M43.9216 53.7455C44.1589 55.1835 44.9581 56.4877 46.0554 57.4322C47.1526 58.3728 48.5527 58.9585 49.9907 58.9585H63.4836C64.1452 58.9585 64.7574 58.836 65.3041 58.6101C65.6411 57.8299 65.7588 56.9196 65.5984 55.9448C65.3611 54.5068 64.5619 53.2026 63.4684 52.2619C62.3673 51.3212 60.9711 50.7356 59.533 50.7356H46.0402C45.3748 50.7356 44.7588 50.8618 44.212 51.0877C43.8788 51.868 43.7611 52.7745 43.9216 53.7455Z" fill="#9EDDFF"/>
<path d="M101.492 159.92H98.9492V164.653H101.492V159.92Z" fill="#0D192B"/>
<path d="M82.4218 159.92H79.8789V164.653H82.4218V159.92Z" fill="#0D192B"/>
<path d="M61.1083 159.92H58.5654V164.653H61.1083V159.92Z" fill="#0D192B"/>
<path d="M60.4685 167.703C61.5395 167.703 62.4077 166.331 62.4077 164.637C62.4077 162.944 61.5395 161.572 60.4685 161.572C59.3975 161.572 58.5293 162.944 58.5293 164.637C58.5293 166.331 59.3975 167.703 60.4685 167.703Z" fill="#0D192B"/>
<path d="M62.3474 167.703C63.4184 167.703 64.2866 166.331 64.2866 164.637C64.2866 162.944 63.4184 161.572 62.3474 161.572C61.2764 161.572 60.4082 162.944 60.4082 164.637C60.4082 166.331 61.2764 167.703 62.3474 167.703Z" fill="#0D192B"/>
<path d="M63.0946 167.456C62.2878 168.085 60.0325 167.8 59.7174 167.475L59.7031 161.818C60.3087 161.289 62.4435 161.307 63.0937 161.789V167.456H63.0946Z" fill="#0D192B"/>
<path d="M62.53 166.655C63.264 166.655 63.8589 165.715 63.8589 164.554C63.8589 163.393 63.264 162.452 62.53 162.452C61.7961 162.452 61.2012 163.393 61.2012 164.554C61.2012 165.715 61.7961 166.655 62.53 166.655Z" fill="#1E62CC"/>
<path d="M62.3897 165.895C62.8369 165.895 63.1994 165.322 63.1994 164.615C63.1994 163.908 62.8369 163.334 62.3897 163.334C61.9426 163.334 61.5801 163.908 61.5801 164.615C61.5801 165.322 61.9426 165.895 62.3897 165.895Z" fill="#0D192B"/>
<path d="M80.7673 167.703C81.8383 167.703 82.7065 166.331 82.7065 164.637C82.7065 162.944 81.8383 161.572 80.7673 161.572C79.6963 161.572 78.8281 162.944 78.8281 164.637C78.8281 166.331 79.6963 167.703 80.7673 167.703Z" fill="#0D192B"/>
<path d="M78.8884 167.703C79.9594 167.703 80.8276 166.331 80.8276 164.637C80.8276 162.944 79.9594 161.572 78.8884 161.572C77.8174 161.572 76.9492 162.944 76.9492 164.637C76.9492 166.331 77.8174 167.703 78.8884 167.703Z" fill="#0D192B"/>
<path d="M78.1406 167.456C78.9474 168.085 81.2027 167.8 81.5179 167.475L81.5321 161.818C80.9265 161.289 78.7918 161.307 78.1416 161.789V167.456H78.1406Z" fill="#0D192B"/>
<path d="M78.7049 166.655C79.4388 166.655 80.0337 165.715 80.0337 164.554C80.0337 163.393 79.4388 162.452 78.7049 162.452C77.9709 162.452 77.376 163.393 77.376 164.554C77.376 165.715 77.9709 166.655 78.7049 166.655Z" fill="#1E62CC"/>
<path d="M78.8458 165.895C79.293 165.895 79.6555 165.322 79.6555 164.615C79.6555 163.908 79.293 163.334 78.8458 163.334C78.3986 163.334 78.0361 163.908 78.0361 164.615C78.0361 165.322 78.3986 165.895 78.8458 165.895Z" fill="#0D192B"/>
<path d="M100.136 167.703C101.207 167.703 102.075 166.331 102.075 164.637C102.075 162.944 101.207 161.572 100.136 161.572C99.0645 161.572 98.1963 162.944 98.1963 164.637C98.1963 166.331 99.0645 167.703 100.136 167.703Z" fill="#0D192B"/>
<path d="M98.2566 167.703C99.3276 167.703 100.196 166.331 100.196 164.637C100.196 162.944 99.3276 161.572 98.2566 161.572C97.1856 161.572 96.3174 162.944 96.3174 164.637C96.3174 166.331 97.1856 167.703 98.2566 167.703Z" fill="#0D192B"/>
<path d="M97.5088 167.456C98.3156 168.085 100.571 167.8 100.886 167.475L100.9 161.818C100.295 161.289 98.1599 161.307 97.5097 161.789V167.456H97.5088Z" fill="#0D192B"/>
<path d="M98.073 166.655C98.8069 166.655 99.4019 165.715 99.4019 164.554C99.4019 163.393 98.8069 162.452 98.073 162.452C97.3391 162.452 96.7441 163.393 96.7441 164.554C96.7441 165.715 97.3391 166.655 98.073 166.655Z" fill="#1E62CC"/>
<path d="M98.214 165.895C98.6611 165.895 99.0236 165.322 99.0236 164.615C99.0236 163.908 98.6611 163.334 98.214 163.334C97.7668 163.334 97.4043 163.908 97.4043 164.615C97.4043 165.322 97.7668 165.895 98.214 165.895Z" fill="#0D192B"/>
<path d="M83.3766 120.528H79.6729V159.104H83.3766V120.528Z" fill="#0D192B"/>
<path d="M103.255 160.386C103.26 160.354 103.285 160.323 103.285 160.291C103.285 158.249 93.1881 156.594 80.7337 156.594C68.2792 156.594 58.1826 158.249 58.1826 160.291C58.1826 160.323 58.2073 160.354 58.212 160.386H103.256H103.255Z" fill="#1A56B3"/>
<path d="M78.448 131.979H84.4688V124.636H78.448V131.979Z" fill="#1A56B3"/>
<path d="M78.448 157.823H84.4688V150.48H78.448V157.823Z" fill="#1A56B3"/>
<path d="M70.2119 62.9176V62.9252C70.1321 62.9176 70.0524 62.9176 69.9727 62.9176H70.2119Z" fill="#4A82DB"/>
<path d="M41.6455 66.5625C41.6455 66.9289 41.6892 67.3066 41.7812 67.6968L54.2613 115.934C54.3173 116.168 54.3847 116.399 54.472 116.626C55.3956 120.302 58.7453 122.857 62.5449 122.754L75.5917 122.416H101.304C102.859 122.416 104.26 121.808 105.275 120.824C106.293 119.842 106.927 118.485 106.927 116.985C106.927 116.451 106.843 115.943 106.684 115.465C105.963 113.265 103.703 111.76 101.153 111.76C101.153 111.76 89.5895 112.075 86.2198 108.836C82.8454 105.593 75.2443 67.916 75.2443 67.916C74.5998 65.2383 71.8898 63.0495 69.1162 62.9261C69.0327 62.9185 68.9492 62.9185 68.8694 62.9185C68.8694 62.9185 51.4137 62.7638 46.0621 62.7875C45.6559 62.7875 45.318 62.7913 45.0636 62.7951C44.8291 62.7989 44.682 62.8027 44.6298 62.8065C44.6174 62.8103 44.6137 62.8103 44.6137 62.8103C42.8073 63.208 41.6455 64.6802 41.6455 66.5625ZM58.0609 111.557H58.3875L58.5346 112.198L58.3277 111.92L58.0609 111.558V111.557Z" fill="#9EDDFF"/>
<path d="M59.2873 122.433C59.2825 122.457 59.2598 122.481 59.2598 122.504C59.2598 124.039 68.8865 125.284 80.761 125.284C92.6355 125.284 102.262 124.039 102.262 122.504C102.262 122.481 102.239 122.457 102.235 122.433H59.2873Z" fill="#1A56B3"/>
<path d="M41.6455 66.5623C41.6455 66.9287 41.6892 67.3065 41.7812 67.6966L54.2613 115.934C54.3173 116.168 54.3847 116.399 54.472 116.626C55.3956 120.302 58.7453 122.857 62.5449 122.754L75.5917 122.416H101.304C102.859 122.416 104.26 121.808 105.275 120.824C106.293 119.842 106.927 118.484 106.927 116.985C106.927 116.451 106.843 115.942 106.684 115.465C105.211 119.295 62.2355 119.565 59.2474 114.605C56.3267 112.071 50.0772 68.903 46.0621 62.7874C45.6559 62.7874 45.318 62.7911 45.0636 62.7949C44.8291 62.7987 44.682 62.8025 44.6298 62.8063C44.6174 62.8101 44.6137 62.8101 44.6137 62.8101C42.8073 63.2078 41.6455 64.6801 41.6455 66.5623Z" fill="#61B8FF"/>
<path d="M63.3418 68.9667C67.3113 66.009 80.9342 63.712 89.6526 67.7992C91.0375 69.111 93.0308 73.8731 94.2762 78.3486L97.7208 115.707H68.2463L63.3418 68.9667Z" fill="#AAE0FF"/>
<path d="M79.1459 70.7C74.4597 71.3815 71.5457 68.1116 70.8604 66.7438L72.7464 55.0354L76.5593 56.7373C78.1179 56.8664 79.6755 57.2394 81.0149 57.7691L82.2241 64.0129L82.4909 65.3674C83.0993 66.7001 83.8321 70.0175 79.1459 70.7Z" fill="#F7A594"/>
<path d="M73.9658 58.0093C74.1186 59.4578 76.0246 65.3285 82.352 64.7182L81.1778 58.6111L73.9658 58.0093Z" fill="#E6836F"/>
<path d="M88.6953 50.6939C88.4789 52.597 87.9511 56.7554 87.2174 58.4953C86.1012 61.1436 82.647 63.2878 80.3917 62.9233C77.8479 62.3044 74.7962 60.3548 73.5442 58.0985C72.9586 56.5162 72.0056 52.9197 71.9752 50.0588C71.9116 44.0922 77.0743 40.7301 81.9902 41.2873C86.9061 41.8445 89.3711 44.7614 88.6953 50.6939Z" fill="#F7A594"/>
<path d="M72.3508 54.111C71.9683 52.0237 73.5287 51.7759 74.4998 53.6316C74.7114 52.2316 74.5539 47.8567 76.327 47.0423C78.3431 46.0827 84.716 49.0261 89.5484 46.5648C89.5484 46.5648 88.9238 39.8512 79.0607 40.2517C67.4567 42.0334 72.3508 54.111 72.3508 54.111Z" fill="#73382A"/>
<path d="M73.1382 55.6643C74.0766 55.3716 74.53 54.149 74.1509 52.9334C73.7718 51.7178 72.7038 50.9695 71.7655 51.2621C70.8271 51.5548 70.3737 52.7774 70.7528 53.9931C71.1319 55.2087 72.1999 55.9569 73.1382 55.6643Z" fill="#F7A594"/>
<path d="M84.98 58.6424C84.6022 58.7117 83.9369 59.0268 83.2791 59.3752C82.3251 59.8811 81.3892 60.4582 81.3892 60.4582C81.3892 60.4582 78.5653 58.7506 78.6432 56.0103C78.6811 56.052 78.7201 56.0928 78.7599 56.1337C80.9535 58.3946 84.98 58.6433 84.98 58.6433V58.6424Z" fill="#A65B4A"/>
<path d="M84.9799 58.6425C84.6021 58.7118 83.9367 59.0269 83.2789 59.3753C80.4161 58.7194 79.2391 57.1808 78.7598 56.1338C80.9534 58.3948 84.9799 58.6435 84.9799 58.6435V58.6425Z" fill="white"/>
<path d="M84.8292 57.3146C84.2559 57.2794 83.8079 56.9463 83.8012 56.9415C83.75 56.9026 83.7395 56.8295 83.7784 56.7783C83.8174 56.727 83.8905 56.7166 83.9417 56.7555C83.9797 56.7839 84.8757 57.4465 85.6882 56.8191C86.1344 56.4745 86.0186 56.2439 85.7072 55.6278C85.413 55.0441 84.9668 54.1613 84.8131 52.6606C84.8064 52.5961 84.8529 52.5391 84.9175 52.5325C84.9811 52.5258 85.039 52.5724 85.0456 52.6369C85.1956 54.0949 85.6294 54.9539 85.916 55.5225C86.2369 56.1575 86.4296 56.541 85.8306 57.0032C85.4927 57.2633 85.1415 57.3335 84.8283 57.3136L84.8292 57.3146Z" fill="#A65B4A"/>
<path d="M81.7159 51.5558C81.6893 51.9952 81.471 52.3389 81.2289 52.3237C80.9869 52.3085 80.8122 51.9411 80.8398 51.5017C80.8673 51.0622 81.0847 50.7186 81.3267 50.7338C81.5688 50.7489 81.7434 51.1172 81.7159 51.5558Z" fill="#1E1E1E"/>
<path d="M87.8555 51.8433C87.8308 52.2429 87.6324 52.5571 87.4113 52.5428C87.1911 52.5295 87.0325 52.1935 87.0572 51.7939C87.0819 51.3943 87.2803 51.0801 87.5005 51.0943C87.7207 51.1076 87.8792 51.4436 87.8545 51.8433H87.8555Z" fill="#1E1E1E"/>
<path d="M88.299 46.8781C88.299 46.8781 93.138 46.4063 91.6259 41.685C90.1271 43.2094 88.6027 42.4643 88.6027 42.4643C88.6027 42.4643 90.3806 40.2365 87.4409 36.9751C86.972 39.0092 82.935 39.9043 80.6247 39.3044C76.9655 38.3552 73.2618 39.6651 72.8688 43.1961C72.8688 43.1961 70.474 43.7799 71.3083 48.5392C75.0054 48.4091 76.6419 45.0385 79.3689 44.5497C82.096 44.0618 84.4158 47.4267 88.299 46.8771V46.8781Z" fill="#73382A"/>
<path d="M83.6265 62.1877C83.6265 62.1877 81.8999 62.593 80.9507 62.5702C79.6978 62.5408 77.7168 61.8469 77.7168 61.8469L81.0058 63.6058L83.6275 62.1867L83.6265 62.1877Z" fill="#A65B4A"/>
<path d="M80.4124 70.8007L79.9472 72.4779L83.2675 93.2824L81.5144 96.6625L78.3887 93.308L78.905 72.5035L78.1514 71.393L79.0322 70.1315L80.4124 70.8007Z" fill="#1951A6"/>
<path d="M82.4018 64.7524C82.3373 67.2231 80.4085 68.626 79.0255 70.0337C74.924 68.963 71.8135 66.4505 70.9042 64.123L68.9697 66.0442C69.3143 69.0484 71.7214 72.1533 75.3816 75.3207C75.9397 73.709 76.7968 72.2273 79.2353 70.8946L84.7236 72.457C85.034 70.3223 85.276 68.3327 84.0287 65.824L82.4028 64.7533L82.4018 64.7524Z" fill="#61B8FF"/>
<path d="M112.797 167.466C114.756 167.466 114.756 164.281 112.797 164.281C112.797 164.281 105.001 162.105 104.775 162.105C104.548 162.105 96.2223 162.338 96.2223 162.338C95.1232 163.864 95.4896 166.017 95.6054 167.674L112.797 167.467V167.466Z" fill="#73382A"/>
<path d="M68.4328 167.528C68.2885 165.878 68.0541 164.12 69.1931 162.62C71.1342 161.907 74.8048 160.257 78.5854 162.39C78.5854 162.39 78.6585 163.456 81.5906 164.668C82.3196 165.495 82.6129 166.329 82.2806 167.528H68.4328Z" fill="#73382A"/>
<path d="M95.9084 162.104L104.131 119.835L79.8574 115.721V104.131C79.8574 104.131 98.8006 104.144 98.5376 104.144C97.7052 104.144 116.346 102.856 118.958 112.976C121.569 123.097 105.741 161.98 105.741 161.98C103.48 161.669 98.2728 163.237 96.3307 163.847C94.6706 164.368 94.215 163.423 95.9084 162.104Z" fill="#0D192B"/>
<path d="M94.4112 104.144L76.1154 119.082L77.6246 162.305C72.7979 159.643 67.51 164.719 67.1037 164.135C67.1037 164.135 66.519 163.855 67.49 161.542C65.6391 152.237 58.8922 117.36 60.9928 113.481C63.4199 109.001 67.491 103.881 67.491 103.881L94.4102 104.144H94.4112Z" fill="#0D192B"/>
<path d="M69.4691 65.5582C69.7491 66.6783 73.057 99.8897 72.777 104.931C72.497 109.972 60.2163 111.08 60.4555 121.454C60.7089 132.472 61.0421 137.245 61.0421 137.245C56.4907 136.579 54.0484 131.251 53.3821 127.587C52.337 121.227 53.085 113.996 57.8224 104.83C57.8224 104.83 59.0877 70.1533 60.6643 69.0304C63.4777 67.0285 69.4691 65.5582 69.4691 65.5582Z" fill="white"/>
<path d="M67.0029 80.4749C67.0029 80.4749 65.4272 85.0748 65.4272 86.9808C65.4272 88.8867 74.6524 92.8914 74.6524 92.8914H59.582V85.7601L67.0029 80.474V80.4749Z" fill="#D9F1FF"/>
<path d="M75.3711 94.3189C75.3711 94.3189 77.1793 92.6853 80.0459 92.4585C82.9124 92.2307 85.4269 97.6867 85.4269 97.6867H75.5068L75.3701 94.3189H75.3711Z" fill="#F7B28A"/>
<path d="M80.8071 92.5259C80.8071 92.5259 85.3187 93.8016 85.948 93.9686C86.2422 95.1589 83.1374 94.6454 81.7013 94.1158C80.119 93.533 80.8071 92.5249 80.8071 92.5249V92.5259Z" fill="#F7B28A"/>
<path d="M61.0178 68.684C58.2623 70.3925 50.6697 88.2963 50.5975 93.1144C50.5652 95.2397 51.4565 97.345 55.4925 97.6041C57.7212 97.7475 76.6397 97.9098 76.6397 97.9098L76.3986 92.8914L62.1388 88.8212L66.4947 81.5931C71.7048 78.9116 67.2426 65.3599 61.0178 68.6849V68.684Z" fill="white"/>
<path d="M109.993 68.6052C109.993 68.6052 108.246 64.3319 108.461 63.1672C108.675 62.0026 112.97 60.4981 113.183 61.0144C113.396 61.5318 113.842 62.8065 111.03 63.5735C112.914 65.3096 115.029 68.7694 109.993 68.6042V68.6052Z" fill="#F7A594"/>
<path d="M109.766 68.7988C109.766 68.7988 109.41 64.9451 110.035 63.3941C110.867 61.3287 113.327 60.0007 113.327 60.0007C113.327 60.0007 117.676 63.414 117.809 64.031C117.942 64.648 114.319 68.4277 114.319 68.4277C114.319 68.4277 111.619 70.9915 109.766 68.7988Z" fill="#F7A594"/>
<path d="M110.281 63.7434C110.281 63.7434 111.344 54.128 112.86 54.4071C113.559 54.5362 112.575 63.7178 112.575 63.7178L110.282 63.7434H110.281Z" fill="#F7A594"/>
<path d="M109.505 67.393C109.515 67.3958 109.526 67.3958 109.536 67.3921C109.563 67.3826 109.577 67.3531 109.568 67.3266C109.12 66.0689 108.387 63.8582 108.512 63.1776C108.677 62.2797 111.491 61.0989 112.704 60.9726C113.066 60.9347 113.126 61.0106 113.136 61.0353C113.276 61.376 113.39 61.7842 113.175 62.2227C112.905 62.7695 112.179 63.208 111.017 63.525L110.927 63.5497L110.995 63.6124C111.777 64.3328 112.712 65.4671 112.991 66.4875C112.998 66.515 113.027 66.5311 113.054 66.5235C113.082 66.5159 113.098 66.4875 113.09 66.4599C112.815 65.4481 111.911 64.3309 111.133 63.5991C112.273 63.2754 112.991 62.8274 113.267 62.2673C113.533 61.7282 113.321 61.2147 113.232 60.9954C113.183 60.8777 113.008 60.8369 112.693 60.8692C111.463 60.9973 108.589 62.1876 108.411 63.1577C108.281 63.862 109.019 66.0936 109.471 67.3607C109.477 67.3769 109.49 67.3883 109.505 67.393Z" fill="#E6836F"/>
<path d="M114.733 65.5677C114.747 65.5715 114.762 65.5753 114.777 65.5791L114.812 65.5876L114.831 65.5563C115.448 64.5824 116.921 64.1894 116.936 64.1857C116.963 64.1781 116.981 64.1505 116.973 64.123C116.966 64.0955 116.938 64.0784 116.91 64.086C116.849 64.1021 115.414 64.4847 114.764 65.4699C114.762 65.4699 114.761 65.4699 114.759 65.469C113.835 65.2032 112.536 63.0172 112.523 62.9944C112.509 62.9697 112.478 62.9621 112.453 62.9764C112.428 62.9906 112.421 63.0229 112.435 63.0466C112.49 63.1396 113.769 65.2896 114.733 65.5677Z" fill="#E6836F"/>
<path d="M109.933 67.5629L108.359 73.5656L113.214 75.1232L113.808 68.2691L109.933 67.5629Z" fill="#F7A594"/>
<path d="M95.0546 70.5036L104.98 80.4749L109.396 69.0095L115.173 70.8282C115.173 70.8282 115.103 87.5834 110.09 91.1923C102.414 95.8813 89.2607 81.5731 89.2607 81.5731C84.1161 74.3791 91.9773 66.3309 95.0546 70.5036Z" fill="white"/>
<path d="M84.0879 65.9721C84.0879 65.9721 86.74 102.4 91.5002 105.481C96.2614 108.561 113.085 106.463 113.085 106.463C113.085 106.463 96.2993 100.449 96.0193 95.9686C95.7393 91.4875 94.6553 70.1305 94.6553 70.1305C93.0967 68.2169 88.1505 65.9502 84.0879 65.9721Z" fill="white"/>
<mask id="mask0_205_841" style="mask-type:luminance" maskUnits="userSpaceOnUse" x="61" y="59" width="29" height="32">
<path d="M82.4021 64.8254L83.4766 74.4597C83.4766 74.4597 78.6005 83.5967 81.8155 85.9802C85.0304 88.3636 87.9909 85.7998 88.8575 79.8408C89.7242 73.8817 86.5102 62.9023 83.6569 60.7714C80.8036 58.6404 70.4384 58.8208 69.4275 60.049C68.4166 61.2773 58.2991 83.9071 62.2848 88.5468C66.2704 93.1865 79.1197 88.9635 79.1197 88.9635L77.0372 75.5191L71.3857 71.5334C71.3857 71.5334 71.0535 64.2207 71.0924 64.3365C71.1313 64.4524 71.8802 60.7533 71.8802 60.7533C75.4302 59.7272 78.1174 59.5991 81.6199 61.0144L82.4002 64.8254H82.4021Z" fill="white"/>
</mask>
<g mask="url(#mask0_205_841)">
<path d="M86.3931 83.3623C86.679 81.8136 86.2032 80.4276 85.3305 80.2665C84.4577 80.1054 83.5184 81.2301 83.2325 82.7788C82.9466 84.3274 83.4224 85.7134 84.2951 85.8745C85.1679 86.0356 86.1072 84.9109 86.3931 83.3623Z" fill="#1B658F"/>
<path d="M84.8762 82.9703C84.6902 83.9793 85.0006 84.882 85.5692 84.9874C86.1377 85.0928 86.75 84.36 86.936 83.351C87.122 82.342 86.8117 81.4393 86.2431 81.3339C85.6745 81.2286 85.0623 81.9613 84.8762 82.9703Z" fill="#2997D6"/>
<path d="M85.4814 80.9741C85.6133 80.9741 85.7225 80.8688 85.7263 80.7359C85.7282 80.6799 85.8649 75.0834 85.0343 69.224C84.2645 63.7993 79.7463 61.1729 75.8746 61.0286C72.1205 60.8882 69.2254 62.9403 68.5002 66.254C67.8481 69.2373 68.6929 74.3259 68.729 74.5414C68.7518 74.6743 68.8771 74.7654 69.0109 74.7417C69.1438 74.7189 69.234 74.5927 69.2112 74.4598C69.2026 74.4076 68.3455 69.2487 68.9777 66.3584C69.6497 63.2868 72.3521 61.3874 75.8546 61.5175C79.5299 61.6542 83.8184 64.1458 84.5483 69.2924C85.3732 75.11 85.2374 80.6675 85.2365 80.7226C85.2327 80.8574 85.3399 80.9703 85.4747 80.9741C85.4766 80.9741 85.4795 80.9741 85.4814 80.9741Z" fill="#0D192B"/>
<path d="M66.6174 88.5516L68.1713 88.3523C68.3051 88.3352 68.4 88.2127 68.3829 88.0779C68.3658 87.9441 68.2424 87.8492 68.1086 87.8663L66.9325 88.0172C65.336 83.8834 65.2439 79.4431 66.7209 77.166C67.4489 76.0431 68.5234 75.4432 69.9149 75.3853C71.2191 75.3293 72.3677 75.7612 73.332 76.6657C76.267 79.4184 76.7397 85.7685 76.808 87.1316L75.9177 87.0974C75.7857 87.0879 75.669 87.1971 75.6642 87.3328C75.6595 87.4676 75.7639 87.5815 75.8996 87.5863L77.3139 87.6404L77.3082 87.3803C77.3016 87.0613 77.0985 79.5276 73.6681 76.3088C72.604 75.3103 71.3349 74.8347 69.895 74.8964C68.3364 74.9619 67.1309 75.6359 66.3108 76.9002C65.4898 78.1664 65.1025 79.9908 65.1898 82.1749C65.2695 84.1729 65.7527 86.3751 66.5472 88.376L66.6174 88.5525V88.5516Z" fill="#0D192B"/>
<path d="M70.8712 74.5728L70.8579 75.7802C70.8579 75.7802 69.4873 75.2372 68.1185 76.1238C67.7683 75.6397 67.5215 75.2752 67.5215 75.2752C67.5215 75.2752 68.6169 74.0896 70.8722 74.5728H70.8712Z" fill="#1B658F"/>
<path d="M69.8447 74.998L69.5809 73.6235C69.1983 73.4147 68.3782 73.6368 68.2529 73.9349L68.5567 75.2723L69.8447 74.998Z" fill="#1B658F"/>
</g>
<path d="M89.4951 92.9226C91.0898 92.7603 94.4423 90.6768 95.2425 89.9877L104.98 97.8622H89.8928L89.4951 92.9226Z" fill="#2B7EAB"/>
<path d="M103.556 97.886C103.147 97.886 90.9535 90.4471 90.9535 90.4471C88.273 92.6635 85.469 93.7418 82.6338 94.5382C83.4624 96.1841 84.6755 97.2928 86.0281 97.9097L103.556 97.8851V97.886Z" fill="#69BFF0"/>
<path d="M42.9113 97.8575H57.9561V95.5197H42.9113V97.8575Z" fill="#BAE7FF"/>
<path d="M30.1027 97.8575H42.9111V95.5197H30.1027V97.8575Z" fill="#69BFF0"/>
<path d="M55.9222 96.2817H43.876L49.4667 97.3999L55.9222 96.2817Z" fill="#69BFF0"/>
<path d="M50.0824 100.726H47.5547V167.02H50.0824V100.726Z" fill="#1951A6"/>
<path d="M50.0824 100.753H47.5547V106.444H50.0824V100.753Z" fill="#1951A6"/>
<path d="M162.033 167.296H164.562V155.786H162.033V167.296Z" fill="#1951A6"/>
<path d="M146.817 167.296H149.346V155.786H146.817V167.296Z" fill="#1951A6"/>
<path d="M26.1778 100.017V167.39L23.7734 167.009V100.017H26.1778Z" fill="#1951A6"/>
<path d="M115.123 167.296H117.651V155.786H115.123V167.296Z" fill="#1951A6"/>
<path d="M128.396 167.296H130.925V155.786H128.396V167.296Z" fill="#1951A6"/>
<path d="M16.8615 100.72L138.916 100.72V97.8717L16.8615 97.8717V100.72Z" fill="#1951A6"/>
<path d="M129.823 100.476H114.2V155.968H129.823V100.476Z" fill="#1951A6"/>
<path d="M166.086 100.476H127.654V155.968H166.086V100.476Z" fill="#1951A6"/>
<path d="M165.043 102.402H129.567V155.969H165.043V102.402Z" fill="#66A1FF"/>
<path d="M44.0871 100.72L166.142 100.72V97.8717L44.0871 97.8717V100.72Z" fill="#66A1FF"/>
<path d="M144.636 97.8726H151.369L150.042 86.3579H143.308L144.636 97.8726Z" fill="#ADADAD"/>
<path d="M142.677 86.3579L142.682 86.4044L143.399 92.6245L144.004 97.8717H150.738L149.504 87.1666L149.501 87.1344L149.411 86.3579H142.677Z" fill="#474747"/>
<path d="M134.847 97.8508H156.237V96.6719H134.847V97.8508Z" fill="#ADADAD"/>
<path d="M150.471 96.671H133.354V97.8499H150.471V96.671Z" fill="#474747"/>
<path d="M142.682 86.4045L143.399 92.6246L149.504 87.1667L149.536 87.1392L149.501 87.1345L142.682 86.4045Z" fill="#2B2B2B"/>
<path d="M125.526 87.0984H162.067C162.863 87.0984 163.561 86.453 163.626 85.6575L165.714 60.2769C165.779 59.4806 165.187 58.8361 164.391 58.8361H127.851C127.055 58.8361 126.357 59.4815 126.291 60.2769L124.204 85.6575C124.139 86.4539 124.731 87.0984 125.526 87.0984Z" fill="#ADADAD"/>
<path d="M124.849 87.0661H161.389C162.185 87.0661 162.883 86.4206 162.949 85.6252L165.036 60.2446C165.101 59.4482 164.509 58.8037 163.714 58.8037H127.173C126.377 58.8037 125.679 59.4492 125.614 60.2446L123.526 85.6252C123.461 86.4216 124.053 87.0661 124.849 87.0661Z" fill="#474747"/>
<path d="M125.651 84.9902H161.13L163.063 60.7828H127.584L125.651 84.9902Z" fill="#D9F3FF"/>
<path d="M128.547 96.671H117.362V97.8509H128.547V96.671Z" fill="#ADADAD"/>
<path d="M105.662 97.3972V97.8509H117.362V96.671L105.662 97.3972Z" fill="#474747"/>
<path d="M131.925 80.7976L156.252 80.5033C157.274 80.491 158.165 79.6253 158.242 78.5698L159.149 66.1201C159.226 65.0646 158.459 64.2189 157.436 64.2312L133.109 64.5255C132.087 64.5378 131.196 65.4035 131.119 66.459L130.212 78.9087C130.135 79.9642 130.902 80.8099 131.925 80.7976Z" fill="#80B2FF"/>
<path d="M134.03 69.6967L141.175 69.6103C141.4 69.6075 141.596 69.4167 141.614 69.1851C141.631 68.9525 141.462 68.7665 141.237 68.7693L134.092 68.8557C133.867 68.8585 133.671 69.0493 133.654 69.2809C133.636 69.5135 133.805 69.6995 134.03 69.6967Z" fill="#D9F3FF"/>
<path d="M133.862 71.9947L143.381 71.8798C143.606 71.877 143.802 71.6862 143.819 71.4546C143.837 71.222 143.668 71.036 143.443 71.0389L133.924 71.1537C133.699 71.1565 133.503 71.3473 133.486 71.5789C133.468 71.8115 133.637 71.9975 133.862 71.9947Z" fill="#D9F3FF"/>
<path d="M133.665 74.7017L143.184 74.5869C143.409 74.584 143.605 74.3932 143.622 74.1616C143.639 73.9291 143.47 73.743 143.245 73.7459L133.727 73.8607C133.502 73.8636 133.305 74.0544 133.288 74.286C133.271 74.5185 133.44 74.7046 133.665 74.7017Z" fill="#D9F3FF"/>
<path d="M133.468 77.4079L142.986 77.293C143.211 77.2902 143.408 77.0994 143.425 76.8678C143.442 76.6353 143.273 76.4492 143.048 76.4521L133.53 76.5669C133.305 76.5698 133.108 76.7606 133.091 76.9922C133.074 77.2247 133.243 77.4108 133.468 77.4079Z" fill="#D9F3FF"/>
<path d="M152.047 69.8666C151.308 70.5025 150.789 75.0986 151.748 76.3885C152.187 76.9789 152.944 76.9856 153.602 77.1517C154.382 77.3482 155.008 78.2195 155.332 77.8057C155.929 77.0425 156.074 73.9757 155.08 71.9918C154.735 71.3018 152.785 69.2306 152.047 69.8666Z" fill="#D9F3FF"/>
<path d="M148.97 69.8666C149.708 70.5025 150.227 75.0986 149.269 76.3885C148.829 76.9789 148.072 76.9856 147.414 77.1517C146.635 77.3482 146.008 78.2195 145.684 77.8057C145.087 77.0425 144.942 73.9757 145.936 71.9918C146.281 71.3018 148.231 69.2306 148.97 69.8666Z" fill="#D9F3FF"/>
<path d="M150.109 71.6264V66.7599H150.799V71.5543C150.799 71.5942 150.82 72.5329 151.771 72.7427L151.656 73.2638C151.024 73.1243 150.659 72.7417 150.464 72.3488C150.272 72.7541 149.905 73.1565 149.254 73.2999L149.139 72.7788C149.998 72.5889 150.097 71.8049 150.109 71.6255V71.6264Z" fill="#D9F3FF"/>
<path d="M167.53 163.745H170.073V159.012H167.53V163.745Z" fill="#0D192B"/>
<path d="M186.599 163.745H189.142V159.012H186.599V163.745Z" fill="#0D192B"/>
<path d="M207.913 163.745H210.456V159.012H207.913V163.745Z" fill="#0D192B"/>
<path d="M208.554 166.796C209.625 166.796 210.494 165.423 210.494 163.73C210.494 162.036 209.625 160.664 208.554 160.664C207.483 160.664 206.615 162.036 206.615 163.73C206.615 165.423 207.483 166.796 208.554 166.796Z" fill="#0D192B"/>
<path d="M206.675 166.796C207.746 166.796 208.614 165.423 208.614 163.73C208.614 162.036 207.746 160.664 206.675 160.664C205.604 160.664 204.735 162.036 204.735 163.73C204.735 165.423 205.604 166.796 206.675 166.796Z" fill="#0D192B"/>
<path d="M205.927 166.548C206.734 167.177 208.989 166.892 209.304 166.567L209.318 160.911C208.713 160.381 206.578 160.399 205.928 160.881V166.548H205.927Z" fill="#0D192B"/>
<path d="M206.491 165.749C207.225 165.749 207.82 164.808 207.82 163.647C207.82 162.486 207.225 161.546 206.491 161.546C205.757 161.546 205.162 162.486 205.162 163.647C205.162 164.808 205.757 165.749 206.491 165.749Z" fill="#1E62CC"/>
<path d="M206.632 164.987C207.079 164.987 207.442 164.414 207.442 163.707C207.442 163 207.079 162.426 206.632 162.426C206.185 162.426 205.822 163 205.822 163.707C205.822 164.414 206.185 164.987 206.632 164.987Z" fill="#0D192B"/>
<path d="M188.255 166.796C189.326 166.796 190.194 165.423 190.194 163.73C190.194 162.036 189.326 160.664 188.255 160.664C187.184 160.664 186.315 162.036 186.315 163.73C186.315 165.423 187.184 166.796 188.255 166.796Z" fill="#0D192B"/>
<path d="M190.135 166.796C191.206 166.796 192.074 165.423 192.074 163.73C192.074 162.036 191.206 160.664 190.135 160.664C189.064 160.664 188.195 162.036 188.195 163.73C188.195 165.423 189.064 166.796 190.135 166.796Z" fill="#0D192B"/>
<path d="M190.882 166.548C190.075 167.177 187.82 166.892 187.504 166.567L187.49 160.911C188.096 160.381 190.231 160.399 190.881 160.881V166.548H190.882Z" fill="#0D192B"/>
<path d="M190.317 165.749C191.051 165.749 191.646 164.808 191.646 163.647C191.646 162.486 191.051 161.546 190.317 161.546C189.583 161.546 188.988 162.486 188.988 163.647C188.988 164.808 189.583 165.749 190.317 165.749Z" fill="#1E62CC"/>
<path d="M190.176 164.987C190.623 164.987 190.986 164.414 190.986 163.707C190.986 163 190.623 162.426 190.176 162.426C189.729 162.426 189.366 163 189.366 163.707C189.366 164.414 189.729 164.987 190.176 164.987Z" fill="#0D192B"/>
<path d="M168.885 166.796C169.956 166.796 170.825 165.423 170.825 163.73C170.825 162.036 169.956 160.664 168.885 160.664C167.814 160.664 166.946 162.036 166.946 163.73C166.946 165.423 167.814 166.796 168.885 166.796Z" fill="#0D192B"/>
<path d="M170.764 166.796C171.835 166.796 172.704 165.423 172.704 163.73C172.704 162.036 171.835 160.664 170.764 160.664C169.693 160.664 168.825 162.036 168.825 163.73C168.825 165.423 169.693 166.796 170.764 166.796Z" fill="#0D192B"/>
<path d="M171.512 166.548C170.705 167.177 168.449 166.892 168.134 166.567L168.12 160.911C168.726 160.381 170.86 160.399 171.511 160.881V166.548H171.512Z" fill="#0D192B"/>
<path d="M170.947 165.749C171.681 165.749 172.276 164.808 172.276 163.647C172.276 162.486 171.681 161.546 170.947 161.546C170.213 161.546 169.618 162.486 169.618 163.647C169.618 164.808 170.213 165.749 170.947 165.749Z" fill="#1E62CC"/>
<path d="M170.807 164.987C171.254 164.987 171.616 164.414 171.616 163.707C171.616 163 171.254 162.426 170.807 162.426C170.36 162.426 169.997 163 169.997 163.707C169.997 164.414 170.36 164.987 170.807 164.987Z" fill="#0D192B"/>
<path d="M185.644 158.196H189.348V119.62H185.644V158.196Z" fill="#0D192B"/>
<path d="M165.767 159.478C165.762 159.446 165.737 159.416 165.737 159.383C165.737 157.342 175.834 155.686 188.288 155.686C200.743 155.686 210.839 157.342 210.839 159.383C210.839 159.416 210.815 159.446 210.81 159.478H165.766H165.767Z" fill="#1A56B3"/>
<path d="M190.574 123.729H184.553V131.072H190.574V123.729Z" fill="#1A56B3"/>
<path d="M190.574 149.573H184.553V156.916H190.574V149.573Z" fill="#1A56B3"/>
<path d="M198.81 62.0109V62.0185C198.889 62.0109 198.969 62.0109 199.049 62.0109H198.81Z" fill="#4A82DB"/>
<path d="M224.409 61.9037C224.409 61.9037 224.405 61.9037 224.392 61.8999C224.341 61.8961 224.193 61.8923 223.959 61.8885C223.704 61.8847 223.365 61.8809 222.96 61.8809C217.609 61.8572 200.153 62.0119 200.153 62.0119C200.073 62.0119 199.99 62.0119 199.906 62.0195C197.132 62.1429 194.423 64.3317 193.778 67.0094C193.778 67.0094 186.176 104.686 182.802 107.929C179.432 111.168 167.87 110.854 167.87 110.854C165.319 110.854 163.059 112.358 162.339 114.559C162.179 115.036 162.096 115.546 162.096 116.078C162.096 117.578 162.729 118.935 163.747 119.918C164.762 120.9 166.163 121.509 167.719 121.509H193.431L210.121 121.847C213.921 121.951 217.272 119.397 218.194 115.719C218.282 115.493 218.349 115.262 218.405 115.027L227.241 66.7902C227.332 66.4 227.377 66.0222 227.377 65.6559C227.377 63.7736 226.215 62.3014 224.409 61.9037ZM214.339 111.012L214.132 111.29L214.279 110.65H214.605L214.339 111.011V111.012Z" fill="#9EDDFF"/>
<path d="M213.378 121.526C213.382 121.55 213.405 121.574 213.405 121.598C213.405 123.133 200.134 124.377 188.26 124.377C176.386 124.377 166.759 123.133 166.759 121.598C166.759 121.574 166.782 121.55 166.786 121.526H213.378Z" fill="#1A56B3"/>
<path d="M227.377 65.656C227.377 66.0224 227.334 66.4002 227.241 66.7903C226.908 67.7556 218.656 114.823 218.195 115.719C217.271 119.397 213.921 121.951 210.121 121.848C200.24 121.529 177.791 121.449 167.717 121.51C164.126 121.584 161.2 118.01 162.338 114.559C161.098 120.41 209.319 121.127 214.368 113.459C217.96 110.77 215.974 59.6969 224.407 61.9048C226.214 62.3034 227.376 63.7756 227.376 65.6569L227.377 65.656Z" fill="#61B8FF"/>
<path d="M201.099 61.038C205.829 94.3396 174.232 89.5253 175.147 76.1208C175.935 64.5728 182.923 63.2221 181.103 55.6504C179.104 47.3392 182.062 40.0674 189.942 40.0674C197.821 40.0674 202.275 45.6895 200.627 55.4662C200.3 57.4054 200.899 59.431 201.1 61.038H201.099Z" fill="#0E0E0E"/>
<path d="M171.487 154.268C171.545 154.599 172.638 160.983 172.638 160.983L177.03 160.606L177.667 152.783L171.488 154.268H171.487Z" fill="#FFA599"/>
<path d="M199.431 101.256C199.431 101.256 203.105 111.581 197.031 113.35C190.957 115.119 180.796 115.791 180.796 115.791L177.515 156.633C176.299 157.117 174.995 157.548 171.96 156.929C171.96 156.929 164.484 115.815 166.641 110.887C168.797 105.958 185.664 100.947 185.664 100.947L199.43 101.256H199.431Z" fill="#0D192B"/>
<path d="M178.355 161.673C178.029 162.512 175.498 163.704 172.666 164.574C170.73 165.169 168.654 165.612 167.044 165.689C166.039 165.737 165.216 165.643 164.723 165.353C164.723 165.353 163.473 162.12 166.25 160.338C169.027 158.556 172.161 158.2 172.161 158.2C172.561 158.772 173.212 159.148 174.015 159.242C174.552 159.305 175.158 159.241 175.805 159.026C176.324 158.853 176.869 158.582 177.424 158.2C177.424 158.2 177.678 158.467 177.939 158.903C177.965 158.946 177.991 158.99 178.016 159.035C178.38 159.69 178.715 160.656 178.355 161.673Z" fill="white"/>
<path d="M178.148 158.899L178.017 159.035L172.666 164.574C170.73 165.169 168.654 165.612 167.044 165.689C166.934 164.67 166.979 162.512 168.945 160.983C170.156 160.041 172.175 159.525 174.015 159.242C174.646 159.145 175.256 159.075 175.805 159.026C176.792 158.936 177.581 158.91 177.939 158.903C178.073 158.899 178.148 158.899 178.148 158.899Z" fill="#DBF2FF"/>
<path d="M175.607 155.275C175.665 155.606 176.134 161.986 176.134 161.986L179.904 161.939L180.985 155.144L175.606 155.276L175.607 155.275Z" fill="#FFA599"/>
<path d="M180.642 157.832C180.642 157.832 181.965 160.393 182.258 161.044C180.782 165.352 170.699 168.706 169.656 167.413C169.656 167.413 167.775 164.501 170.133 162.193C172.491 159.885 175.898 158.815 175.898 158.815C177.021 159.873 179.956 159.584 180.642 157.831V157.832Z" fill="white"/>
<path d="M209.428 102.716C209.428 102.716 211.417 111.712 203.844 114.149C197.823 116.088 187.472 120.043 187.472 120.043L180.9 156.644C180.624 157.422 176.246 157.712 175.69 157.086C175.69 157.086 174.164 116.795 177.193 112.348C181.842 105.521 188.145 101.348 188.145 101.348C194.522 100.616 203.822 99.9314 209.428 102.715V102.716Z" fill="#0D192B"/>
<path d="M175.541 157.092C175.469 155.472 173.821 117.352 177.067 112.267C177.911 110.946 178.925 109.613 180.085 108.307L180.308 108.506C179.16 109.8 178.154 111.12 177.318 112.429C174.123 117.435 175.822 156.684 175.839 157.08L175.541 157.093V157.092Z" fill="#2A518C"/>
<path d="M184.637 69.278C187.751 65.4575 190.072 67.7308 189.933 72.024C189.796 76.3173 186.894 95.024 183.421 93.7388C179.948 92.4536 180.727 74.0743 184.637 69.279V69.278Z" fill="#FFA599"/>
<path d="M186.953 85.8795L184.865 100.452C185.069 101.201 186.198 101.836 187.89 102.334C188.157 102.414 188.438 102.489 188.732 102.561C194.495 103.974 205.101 104.059 209.706 102.222C209.706 102.222 209.348 99.754 207.88 95.7958C206.764 92.7878 205.006 88.917 202.276 84.6143C202.102 83.3376 203.18 81.0833 204.259 78.4995C205.976 74.3848 207.694 69.4328 204.361 66.2501C198.936 61.0675 184.743 62.5378 183.811 72.7901C183.669 79.4222 186.951 85.8805 186.951 85.8805L186.953 85.8795Z" fill="#FD5655"/>
<path d="M187.132 103.351C187.231 103.335 187.814 103.033 188.732 102.56C192.659 100.538 202.728 95.3686 207.412 95.7872C207.578 95.8014 207.733 95.8043 207.881 95.7957C206.764 92.7877 205.006 88.9169 202.277 84.6142C202.103 83.3375 203.181 81.0832 204.259 78.4995L198.129 71.5409C198.129 71.5409 198.151 71.6994 198.189 71.9861C198.517 74.4929 200.073 86.8372 199.233 88.8296C198.464 90.653 190.442 99.3391 187.89 102.335C187.335 102.987 187.038 103.368 187.131 103.353L187.132 103.351Z" fill="#E64847"/>
<path d="M188.635 67.1024C188.815 68.3364 190.404 71.6149 190.404 71.6149C190.404 71.6149 196.978 67.5305 196.744 65.9216L195.677 61.6085L194.982 58.8036L188.283 59.7784L188.515 64.57L188.636 67.1015L188.635 67.1024Z" fill="#FFA599"/>
<path d="M188.513 64.57L193.193 61.4376L188.282 59.7784L188.513 64.57Z" fill="#E87C5D"/>
<path d="M182.385 51.0297C182.007 57.0296 185.403 61.9777 189.97 62.0821C194.538 62.1865 198.157 57.3988 198.054 51.3885C197.956 45.7256 194.554 41.2947 190.449 41.2007C186.343 41.1068 182.741 45.3782 182.385 51.0297Z" fill="#FFA599"/>
<path d="M187.994 46.8152C193.697 54.1269 201.914 51.2195 200.021 46.8465C200.021 46.8465 197.819 40.8229 191.164 40.7252C182.841 40.6027 187.994 46.8152 187.994 46.8152Z" fill="#0E0E0E"/>
<path d="M189.59 55.4188C189.377 55.414 189.171 55.3637 189.053 55.2156C188.764 54.8521 189.542 53.0742 189.701 52.7221C189.72 52.6775 189.773 52.6585 189.816 52.6784C189.861 52.6984 189.88 52.7506 189.86 52.7942C189.483 53.6305 189.027 54.9015 189.19 55.1065C189.381 55.3466 190.038 55.2109 190.275 55.1387C190.321 55.1245 190.37 55.1501 190.384 55.1967C190.398 55.2432 190.373 55.2916 190.326 55.3058C190.266 55.3238 189.919 55.4254 189.589 55.4178L189.59 55.4188Z" fill="#BD4A31"/>
<path d="M188.356 57.4813C188.356 57.4813 190.903 58.2597 194.262 56.5208C192.415 59.1851 189.998 60.8481 188.356 57.4813Z" fill="#BD4A31"/>
<path d="M193.757 52.1118C193.746 52.5542 193.561 52.9082 193.342 52.9035C193.123 52.8987 192.954 52.5361 192.964 52.0938C192.975 51.6515 193.16 51.2974 193.379 51.3022C193.598 51.3069 193.767 51.6695 193.757 52.1118Z" fill="#0E0E0E"/>
<path d="M186.114 51.7615C186.104 52.2038 185.919 52.5579 185.7 52.5531C185.48 52.5484 185.311 52.1858 185.322 51.7435C185.332 51.3011 185.517 50.9471 185.737 50.9518C185.956 50.9566 186.125 51.3192 186.114 51.7615Z" fill="#0E0E0E"/>
<path d="M187.957 45.4333C187.957 45.4333 186.944 50.9956 182.236 51.3639C179.087 51.6107 183.669 42.1538 186.666 42.338C188.435 42.4462 187.957 45.4324 187.957 45.4324V45.4333Z" fill="#0E0E0E"/>
<path d="M205.438 68.4456C205.438 68.4456 202.99 65.7822 199.05 68.7437C195.824 71.1689 201.276 86.6189 201.276 86.6189L185.196 101.884L186.428 103.437C186.428 103.437 205.671 95.3686 208.121 88.9919C208.961 84.955 207.329 71.2628 205.438 68.4447V68.4456Z" fill="#FFA599"/>
<path d="M186.777 88.1728L187.65 103.264L185.575 103.611C185.575 103.611 181.084 93.2538 181.288 87.4039C181.466 82.2773 187.401 83.5027 186.777 88.1728Z" fill="#FFA599"/>
<path d="M187.859 102.325C187.859 102.325 190.135 103.687 189.04 104.61C187.944 105.533 183.998 105.479 185.125 103.022C186.253 100.566 187.859 102.325 187.859 102.325Z" fill="#FFA599"/>
<path d="M185.185 101.628C185.007 101.593 181.052 104.399 182.244 105.617C183.436 106.835 189.396 103.181 188.218 101.693C187.039 100.205 185.185 101.628 185.185 101.628Z" fill="#FFA599"/>
</svg>
