<svg width="44" height="45" viewBox="0 0 44 45" fill="none" xmlns="http://www.w3.org/2000/svg">
<path d="M17.0535 22.9894L5.03708 33.8996L5.00491 33.1092C5 33.0554 5 33.0029 5 32.9476V11.1236L17.0535 22.9894ZM22.2296 24.6907C23.2194 24.6949 24.1706 24.3075 24.8755 23.6129L38.8355 9.86852L38.6339 9.60923C37.8936 8.64871 36.7489 8.0874 35.5365 8.08985H8.92278C7.71033 8.0874 6.56564 8.64893 5.82537 9.60923L5.62354 9.86852L19.5835 23.6129C20.2884 24.3075 21.2396 24.695 22.2294 24.6907H22.2296ZM39.4594 11.1224L27.4059 22.9892L39.4223 33.8993L39.4545 33.1089C39.4567 33.0552 39.4587 33.0014 39.4587 32.9474L39.4594 11.1224ZM25.8094 24.5613C24.8542 25.4997 23.5686 26.0254 22.2297 26.0254C20.8908 26.0254 19.6052 25.4997 18.65 24.5613L18.0036 23.9246L5.65213 35.1377L5.8714 35.4092C6.61437 36.3337 7.73675 36.8709 8.92267 36.8699H35.5364C36.7221 36.8714 37.8444 36.3346 38.5877 35.4107L38.8069 35.1391L26.4555 23.9241L25.8094 24.5613Z" fill="white"/>
</svg>
