<svg width="24" height="29" viewBox="0 0 24 29" fill="none" xmlns="http://www.w3.org/2000/svg">
<path d="M3.14167 17.9504L11.0227 28.3803C11.2557 28.6877 11.6191 28.8684 12.0048 28.8684C12.3906 28.8684 12.754 28.6877 12.987 28.3803L20.868 17.9504C22.5384 15.7404 23.3232 12.986 23.0685 10.2272C22.8137 7.46882 21.5376 4.90468 19.4906 3.0382C17.4435 1.17172 14.7733 0.136719 12.003 0.136719C9.23266 0.136719 6.56217 1.17166 4.51548 3.0382C2.46879 4.90475 1.19266 7.46888 0.937774 10.2272C0.682907 12.9858 1.46764 15.7402 3.13828 17.9504H3.14167ZM12.0052 5.37649C13.5221 5.37649 14.9771 5.97928 16.0499 7.05201C17.1227 8.12474 17.7252 9.57956 17.7252 11.0965C17.7252 12.6137 17.1226 14.0684 16.0499 15.1412C14.9772 16.2139 13.5221 16.8165 12.0052 16.8165C10.4882 16.8165 9.03321 16.2139 7.96043 15.1412C6.88771 14.0685 6.28516 12.6137 6.28516 11.0965C6.28712 9.58006 6.89016 8.12624 7.96269 7.05402C9.03497 5.98174 10.4888 5.3785 12.0052 5.37649Z" fill="white"/>
</svg>
