<svg width="54" height="45" viewBox="0 0 54 45" fill="none" xmlns="http://www.w3.org/2000/svg">
<path d="M15.8274 39.2551C14.7724 38.506 13.6752 37.7675 12.6201 37.0501C5.36163 32.1443 -0.124455 28.4412 0.0021473 17.4374C0.0337978 14.7576 0.223701 13.0802 1.16266 12.6582C2.14383 12.215 3.38875 13.2806 5.35108 16.1714C5.39328 16.2347 5.42493 16.298 5.44603 16.3718L9.21244 25.0229L13.4536 27.5444C12.7573 26.3839 12.0715 25.1073 11.6601 24.0945C11.3752 23.3771 11.2064 22.7441 11.2275 22.2588C11.2697 21.3093 11.7445 20.8134 12.7995 21.0033C13.4536 21.1194 14.477 21.6891 15.9962 22.9024C23.5606 28.9265 26.0083 34.6658 25.9028 38.5588C25.85 40.3418 25.2803 41.7766 24.4047 42.7261C23.4657 43.7389 22.1997 44.2137 20.8387 44.0027C19.0768 43.7284 17.1884 42.2513 15.8168 39.2446L15.8274 39.2551Z" fill="#1A4B80"/>
<path d="M41.3902 37.0606C40.3352 37.778 39.238 38.5165 38.1829 39.2655C36.8114 42.2723 34.9229 43.7388 33.1611 44.0237C31.8001 44.2347 30.5341 43.7705 29.5951 42.7471C28.7195 41.7976 28.1497 40.3628 28.097 38.5798C27.9915 34.6868 30.4391 28.9369 38.0036 22.9233C39.5228 21.7101 40.5462 21.1404 41.2003 21.0243C42.2659 20.8344 42.7301 21.3303 42.7723 22.2798C42.7934 22.7545 42.6246 23.3981 42.3397 24.1155C41.9283 25.1389 41.2425 26.4049 40.5462 27.5654L44.7873 25.0439L48.5538 16.3928C48.5749 16.3295 48.6065 16.2557 48.6487 16.1923C50.611 13.3016 51.856 12.236 52.8371 12.6791C53.7761 13.1012 53.966 14.7786 53.9976 17.4584C54.1242 28.4622 48.6382 32.1653 41.3796 37.0711L41.3902 37.0606Z" fill="#1A4B80"/>
<path d="M26.9999 4.07035C27.654 3.09973 28.3398 2.32957 29.1627 1.74931C30.3338 0.926401 31.7053 0.504395 33.5199 0.504395C35.5245 0.504395 37.3602 1.23236 38.6789 2.41397C40.0399 3.61669 40.8734 5.28362 40.8734 7.12989C40.8734 10.2422 39.1643 13.3017 36.6006 16.3296C34.1213 19.252 30.8402 22.1639 27.5591 25.0757L26.9999 25.5716L26.4408 25.0757C23.1597 22.1639 19.868 19.252 17.3993 16.3296C14.8356 13.3017 13.1265 10.2422 13.1265 7.12989C13.1265 5.28362 13.9705 3.61669 15.3209 2.41397C16.6502 1.23236 18.4754 0.504395 20.4799 0.504395C22.2946 0.504395 23.6661 0.915851 24.8371 1.74931C25.6601 2.32957 26.3458 3.09973 26.9999 4.07035Z" fill="#1A4B80"/>
</svg>
