<svg width="44" height="45" viewBox="0 0 44 45" fill="none" xmlns="http://www.w3.org/2000/svg">
<path d="M9.94833 27.3317L20.2706 40.9923C20.5758 41.395 21.0517 41.6317 21.557 41.6317C22.0622 41.6317 22.5381 41.395 22.8433 40.9923L33.1656 27.3317C35.3534 24.437 36.3812 20.8294 36.0477 17.2161C35.7139 13.6033 34.0426 10.2449 31.3615 7.80025C28.6803 5.35561 25.183 4 21.5546 4C17.9261 4 14.4284 5.35553 11.7477 7.80025C9.06701 10.245 7.39559 13.6034 7.06175 17.2161C6.72794 20.8292 7.75575 24.4368 9.94389 27.3317H9.94833ZM21.5574 10.8628C23.5442 10.8628 25.4499 11.6524 26.855 13.0574C28.2601 14.4624 29.0492 16.3679 29.0492 18.3547C29.0492 20.3418 28.26 22.2472 26.855 23.6523C25.45 25.0573 23.5442 25.8465 21.5574 25.8465C19.5706 25.8465 17.6648 25.0573 16.2597 23.6523C14.8547 22.2473 14.0655 20.3418 14.0655 18.3547C14.0681 16.3685 14.8579 14.4644 16.2627 13.06C17.6671 11.6556 19.5713 10.8655 21.5574 10.8628V10.8628Z" fill="white"/>
</svg>
