<svg width="280" height="134" viewBox="0 0 280 134" fill="none" xmlns="http://www.w3.org/2000/svg">
<path d="M6.86164 133.208C6.86164 133.208 -7.42175 102.951 10.8987 71.461C29.218 39.9712 49.1459 59.8933 59.5198 32.6448C69.8937 5.39766 95.8248 -6.27282 124.659 3.30748C153.494 12.889 168.939 29.0115 193.626 24.2397C221.35 18.8816 244.708 18.6519 255.576 45.4321C266.444 72.2135 249.676 86.8118 258.371 100.49C267.065 114.168 273.842 111.785 271.85 133.371L6.86164 133.208Z" fill="#C7EBFF"/>
<g opacity="0.8">
<path d="M134.372 29.1077L110.741 96.6697L156.258 103.764L158.407 42.3329L134.372 29.1077Z" fill="white"/>
</g>
<g opacity="0.8">
<path d="M95.1631 40.8181L98.0993 100.821L147.587 98.4679L122.319 25.8756L95.1631 40.8181Z" fill="white"/>
</g>
<path d="M117.091 54.2637H146.53C147.887 54.2637 148.99 55.5453 148.99 57.1258V61.3227H114.858V56.8624C114.858 55.4288 115.859 54.2637 117.092 54.2637H117.091Z" fill="#FFA561"/>
<path d="M143.542 61.3226H132.882V131.889H143.542V61.3226Z" fill="#C9D4F8"/>
<path d="M118.378 78.7321L115.382 78.3699L116.22 62.3295L120.557 62.8538L118.378 78.7321Z" fill="#9DB0F4"/>
<path d="M116.025 80.4114L108.374 73.2422L108.038 72.8154C108.653 71.6706 109.95 71.3223 110.934 72.0378L117.828 77.0528L116.024 80.4114H116.025Z" fill="#9DB0F4"/>
<path d="M111.801 79.1297L111.795 79.1335C111.251 79.459 110.583 79.2095 110.303 78.5763L107.622 72.5038C107.342 71.8706 107.556 71.093 108.101 70.7676L108.63 70.4509C109.213 70.1027 109.927 70.4155 110.167 71.126L112.325 77.5112C112.533 78.128 112.307 78.827 111.801 79.1297Z" fill="#FFA561"/>
<path d="M111.88 79.0886L111.779 79.1425L114.543 86.151L114.644 86.0971L111.88 79.0886Z" fill="#233862"/>
<path d="M114.944 79.012C114.61 77.6658 115.276 76.2588 116.432 75.87C117.589 75.4812 118.798 76.2563 119.133 77.6025C119.467 78.9487 118.801 80.3557 117.644 80.7445C116.487 81.1332 115.278 80.3582 114.944 79.012Z" fill="#233862"/>
<path d="M127.989 78.1521L125.197 76.8363L129.829 61.6963L133.871 63.601L127.989 78.1521Z" fill="#9DB0F4"/>
<path d="M125.634 78.3255L121.803 68.3209L121.671 67.7624C122.668 67.0696 123.957 67.4483 124.554 68.6071L128.724 76.7299L125.636 78.3255H125.634Z" fill="#9DB0F4"/>
<path d="M124.622 76.255C124.622 74.8544 125.598 73.7184 126.802 73.7184C128.006 73.7184 128.982 74.8544 128.982 76.255C128.982 77.6557 128.006 78.7916 126.802 78.7916C125.598 78.7916 124.622 77.6557 124.622 76.255Z" fill="#233862"/>
<path d="M120.799 76.2411H120.794C120.189 76.1372 119.768 75.4825 119.858 74.7783L120.704 68.0233C120.793 67.3191 121.355 66.8316 121.96 66.9342L122.549 67.0342C123.198 67.1444 123.623 67.8827 123.464 68.6223L122.035 75.2786C121.897 75.9206 121.364 76.3373 120.8 76.2423L120.799 76.2411Z" fill="#FFA561"/>
<path d="M120.865 75.4761L118.734 89.3541L118.844 89.3768L120.974 75.4989L120.865 75.4761Z" fill="#233862"/>
<path d="M144.213 78.4612L141.203 78.5802L140.143 62.5575L144.5 62.384L144.213 78.4612Z" fill="#9DB0F4"/>
<path d="M142.009 80.5672L132.957 76.1297L132.532 75.827C132.852 74.529 134.017 73.778 135.132 74.1503L142.947 76.7604L142.008 80.5672H142.009Z" fill="#9DB0F4"/>
<path d="M140.538 78.1521C140.538 76.7514 141.514 75.6155 142.718 75.6155C143.922 75.6155 144.898 76.7514 144.898 78.1521C144.898 79.5528 143.922 80.6887 142.718 80.6887C141.514 80.6887 140.538 79.5528 140.538 78.1521Z" fill="#233862"/>
<path d="M128.839 80.5938L128.834 80.5887C128.408 80.0783 128.417 79.2615 128.856 78.7651L133.062 74.0059C133.501 73.5094 134.203 73.5208 134.628 74.0312L135.043 74.5276C135.5 75.0747 135.451 75.9612 134.937 76.4361L130.321 80.7052C129.876 81.1168 129.234 81.07 128.837 80.595L128.839 80.5938Z" fill="#FFA561"/>
<path d="M129.291 80.0321L123.671 85.9978L123.746 86.0932L129.366 80.1276L129.291 80.0321Z" fill="#233862"/>
<path d="M136.411 61.3226H127.434V63.9745H136.411V61.3226Z" fill="#233862"/>
<path d="M148.988 61.3226H140.011V63.9745H148.988V61.3226Z" fill="#233862"/>
<path d="M123.834 61.3226H114.856V63.9745H123.834V61.3226Z" fill="#233862"/>
<path d="M149.911 128.386H125.84V132.476H149.911V128.386Z" fill="#B9CAEF"/>
<path d="M220.024 56.7927H234.521C239.087 56.7927 242.795 61.1074 242.795 66.4213V101.051C242.795 106.983 238.656 111.8 233.559 111.8H220.024V56.7927Z" fill="#7C9AF2"/>
<path d="M216.861 46.5652H230.621C235.594 46.5652 239.632 51.2636 239.632 57.0511V100.097C239.632 106.557 235.125 111.801 229.574 111.801H216.861V46.5652Z" fill="#AEC3FF"/>
<path d="M206.741 46.5652H219.235C224.209 46.5652 228.246 51.2636 228.246 57.0511V100.097C228.246 106.557 223.739 111.801 218.188 111.801H205.476V48.038C205.476 47.225 206.043 46.5652 206.741 46.5652Z" fill="#7C9AF2"/>
<path d="M237.32 61.3455H228.246V70.2838H237.32V61.3455Z" fill="#7C9AF2"/>
<path d="M230.602 110.297H212.86V128.569H230.602V110.297Z" fill="#C9D4F8"/>
<path d="M201.578 127.121H243.903C245.271 127.121 246.383 128.414 246.383 130.006V132.34H199.579V129.448C199.579 128.164 200.475 127.122 201.578 127.122V127.121Z" fill="#C9D4F8"/>
<path d="M232.401 128.942C232.401 128.942 232.213 132.35 231.647 132.396C231.572 132.403 228.773 132.396 228.773 132.396L225.201 132.364C225.201 132.364 225.226 131.362 226.271 131.153C227.316 130.944 229.065 130.094 229.7 128.49C230.368 126.801 232.401 128.942 232.401 128.942Z" fill="#163560"/>
<path d="M224.612 128.922C224.612 128.922 224.424 132.33 223.858 132.376C223.783 132.383 220.984 132.376 220.984 132.376L217.412 132.343C217.412 132.343 217.437 131.342 218.482 131.133C219.527 130.924 221.276 130.074 221.911 128.469C222.579 126.781 224.612 128.922 224.612 128.922Z" fill="#163560"/>
<path d="M238.627 74.049C238.627 74.049 242.101 74.9012 243.005 77.4784C243.734 79.5566 246.475 86.6865 244.744 88.7951C243.814 89.9285 240.284 87.454 240.284 87.454L238.627 74.0502V74.049Z" fill="#ABDDDA"/>
<path d="M238.615 74.2414L236.95 76.2157L234.029 76.3183C234.018 76.0448 233.998 74.905 233.982 73.8716C233.982 73.8108 233.981 73.75 233.98 73.6905C233.967 72.8116 233.956 72.0568 233.956 72.0568L236.326 70.0457L237.21 69.296C237.21 69.3138 237.309 70.2496 237.324 70.3864C237.587 72.8103 238.616 74.2414 238.616 74.2414H238.615Z" fill="#FFB27D"/>
<path d="M234.209 74.116C234.265 74.0894 237.671 72.9281 238.041 73.0712C238.411 73.2143 238.628 74.0476 238.628 74.0476L233.057 75.4989C233.057 75.4989 233.496 74.463 234.209 74.116Z" fill="#6BB7BF"/>
<path d="M229.015 105.892C229.231 102.008 231.38 87.8275 231.412 84.8426C231.427 83.4014 231.6 81.9273 231.83 80.5887C232.317 77.7367 233.057 75.499 233.057 75.499C233.057 75.499 237.751 73.7462 238.628 74.0489C241.269 74.9595 244.22 91.6876 245.227 103.156C245.831 110.038 228.906 107.879 229.015 105.89V105.892Z" fill="#ABDDDA"/>
<path d="M237.135 70.4789C236.771 71.7605 234.81 73.2853 233.983 73.8729C233.983 73.8121 233.982 73.7513 233.981 73.6918C233.968 72.8129 233.957 70.9361 233.957 70.9361L236.327 70.0458C236.905 69.89 237.286 69.9508 237.136 70.4789H237.135Z" fill="#FCA56B"/>
<path d="M235.418 102.446H222.168V108.654H235.418V102.446Z" fill="#6BB7BF"/>
<path d="M218.022 107.853C217.911 108.389 221.012 129.385 221.012 129.385C221.012 129.385 224.352 129.367 225.629 128.568L224.322 106.904L218.022 107.853Z" fill="#6BB7BF"/>
<path d="M224.766 108.199C224.655 108.735 227.755 129.731 227.755 129.731C227.755 129.731 231.095 129.713 232.372 128.914L231.065 107.249L224.766 108.199Z" fill="#6BB7BF"/>
<path d="M233.176 71.4009C233.176 71.4009 237.495 72.9814 238.299 69.8356C239.103 66.6898 240.203 64.775 237.479 63.634C234.755 62.4917 233.909 63.5061 233.421 64.4799C232.934 65.4538 232.072 70.9095 233.176 71.4009Z" fill="#FFB27D"/>
<path d="M233.592 64.1773C233.592 64.1773 233.861 67.841 234.512 67.6827C235.163 67.5257 235.754 67.4092 235.657 68.5122C235.56 69.6165 235.393 71.1869 237.399 71.3883C239.405 71.5883 241.561 65.2765 241.012 64.1355C239.429 60.8428 231.302 60.1589 233.592 64.176V64.1773Z" fill="#163560"/>
<path d="M229.689 132.716H229.656C229.392 132.709 229.187 132.457 229.212 132.167L230.978 111.64L232.519 111.799L229.983 132.437C229.963 132.598 229.836 132.718 229.688 132.714L229.689 132.716Z" fill="#7291D6"/>
<path d="M246.697 132.716H246.73C246.994 132.709 247.199 132.457 247.174 132.167L245.407 111.64L243.866 111.799L246.402 132.437C246.422 132.598 246.549 132.718 246.697 132.714V132.716Z" fill="#7291D6"/>
<path d="M217.228 132.716H217.195C216.931 132.709 216.726 132.457 216.751 132.167L218.517 111.64L220.058 111.799L217.523 132.437C217.503 132.598 217.376 132.718 217.228 132.714V132.716Z" fill="#7291D6"/>
<path d="M246.17 108.654L249.305 90.6364C249.708 88.1972 247.971 85.9658 245.715 86.0266L239.668 86.1874C237.582 86.2432 235.769 87.868 235.189 90.1994L230.602 108.654H246.17Z" fill="#7291D6"/>
<path d="M244.273 108.654L247.409 90.6364C247.811 88.1972 246.074 85.9658 243.818 86.0266L237.772 86.1874C235.685 86.2432 233.872 87.868 233.292 90.1994L228.705 108.654H244.273Z" fill="#7291D6"/>
<path d="M221.373 108.654H246.17V110.923C246.17 111.484 245.778 111.94 245.296 111.94H221.373C220.891 111.94 220.499 111.484 220.499 110.923V109.671C220.499 109.11 220.891 108.654 221.373 108.654Z" fill="#7291D6"/>
<path d="M234.071 108.654H218.82C218.431 108.654 218.116 109.021 218.116 109.473V111.121C218.116 111.573 218.431 111.94 218.82 111.94H234.071C234.46 111.94 234.775 111.573 234.775 111.121V109.473C234.775 109.021 234.46 108.654 234.071 108.654Z" fill="#7291D6"/>
<path d="M233.057 75.499C233.057 75.499 230.403 76.0879 229.404 78.5435C228.405 80.9978 226.351 89.3232 226.351 89.3232L230.709 94.242L232.639 82.7936L233.057 75.5003V75.499Z" fill="#ABDDDA"/>
<path d="M206.846 56.7928H221.586C226.324 56.7928 230.17 61.2696 230.17 66.7823V103.44C230.17 109.593 225.877 114.589 220.589 114.589H206.846V56.7915V56.7928Z" fill="#1C468A"/>
<path d="M205.476 56.7928H220.216C224.954 56.7928 228.8 61.2696 228.8 66.7823V103.44C228.8 109.593 224.507 114.589 219.219 114.589H205.476V56.7915V56.7928Z" fill="#9DB0F4"/>
<path d="M68.0684 98.7516C68.0684 98.7516 66.7592 96.9748 67.9879 95.8452C67.9879 95.8452 68.8846 95.2132 69.6171 95.2639C69.6171 95.2639 68.5799 97.2863 68.9151 97.4877C69.2503 97.6891 69.9305 95.136 69.9305 95.136C69.9305 95.136 71.9721 94.9055 72.6295 95.2727C72.6295 95.2727 70.8838 96.9356 71.2517 97.0343C71.6195 97.1331 73.5045 95.502 73.5045 95.502C73.5045 95.502 75.4047 95.8781 75.3034 97.2268C75.2022 98.5756 74.5471 98.9922 74.2598 98.9568C73.9724 98.9213 72.2878 98.1728 72.2518 98.4477C72.2148 98.7225 73.2291 99.6191 73.9387 99.6609C73.9387 99.6609 72.599 101.381 71.7077 100.884C70.8175 100.388 70.7413 99.6014 70.1862 99.3063C69.6312 99.0112 69.1578 99.0125 69.3863 99.3126C69.6149 99.614 70.6205 99.9066 70.9372 100.56C71.255 101.214 71.539 101.654 70.6183 101.493C69.6965 101.333 68.199 100.547 68.1337 99.6495L68.0684 98.7516Z" fill="#C8DBF4"/>
<path d="M74.3705 97.2661C74.3705 97.2661 69.2087 97.0343 68.0682 98.7529C68.0682 98.7529 67.8157 99.6317 67.0397 100.432L66.9189 100.816C66.9189 100.816 67.8135 99.7179 68.1335 99.652C68.1335 99.652 67.6329 97.5244 74.3695 97.2673L74.3705 97.2661Z" fill="#C8DBF4"/>
<path d="M67.0406 100.431C67.0406 100.431 65.9327 101.385 65.8555 103.088L66.0568 103.109C66.0568 103.109 66.4105 101.348 67.0504 100.659C67.6903 99.9699 67.0406 100.431 67.0406 100.431Z" fill="#C8DBF4"/>
<path d="M63.4902 96.5164C63.4902 96.5164 65.5732 95.1588 64.6014 93.3174C64.6014 93.3174 63.8243 92.1865 62.9907 91.8952C62.9907 91.8952 63.4347 94.6421 62.9907 94.7067C62.5467 94.7713 62.6849 91.6052 62.6849 91.6052C62.6849 91.6052 60.4909 90.3768 59.63 90.4743C59.63 90.4743 60.9904 93.1566 60.5464 93.092C60.1024 93.0274 58.5744 90.3135 58.5744 90.3135C58.5744 90.3135 56.3249 89.8285 55.9646 91.3798C55.6033 92.9312 56.1866 93.7062 56.5197 93.8037C56.8527 93.9013 58.9912 93.8683 58.9357 94.1913C58.8802 94.5142 57.436 95.0309 56.6307 94.7409C56.6307 94.7409 57.5187 97.294 58.6854 97.1648C59.852 97.0356 60.2123 96.196 60.9349 96.1314C61.6564 96.0668 62.1843 96.2935 61.823 96.5189C61.4616 96.7456 60.2406 96.5937 59.6572 97.1699C59.0739 97.7461 58.6016 98.102 59.6844 98.3603C60.7673 98.6187 62.711 98.4565 63.0995 97.4877L63.4881 96.5189L63.4902 96.5164Z" fill="#C8DBF4"/>
<path d="M56.9932 91.8637C56.9932 91.8637 62.8243 94.0609 63.4903 96.5165C63.4903 96.5165 63.4631 97.6145 64.0454 98.8746V99.3596C64.0454 99.3596 63.4348 97.712 63.1018 97.4853C63.1018 97.4853 64.4067 95.3527 56.9932 91.8624V91.8637Z" fill="#C8DBF4"/>
<path d="M64.0449 98.8758C64.0449 98.8758 64.9438 100.465 64.4312 102.399L64.1994 102.327C64.1994 102.327 64.4236 100.197 63.9535 99.124C63.4833 98.0526 64.0438 98.8745 64.0438 98.8745L64.0449 98.8758Z" fill="#C8DBF4"/>
<path d="M66.8044 94.6446C66.8044 94.6446 64.0597 92.8551 65.3406 90.4274C65.3406 90.4274 66.3658 88.9368 67.4639 88.5531C67.4639 88.5531 66.8784 92.1738 67.4639 92.2586C68.0494 92.3435 67.8665 88.1694 67.8665 88.1694C67.8665 88.1694 70.7582 86.5509 71.8933 86.6788C71.8933 86.6788 70.0997 90.2146 70.6852 90.1285C71.2708 90.0437 73.2841 86.466 73.2841 86.466C73.2841 86.466 76.2486 85.8278 76.7253 87.8718C77.2009 89.9158 76.4326 90.939 75.9929 91.0657C75.5532 91.1936 72.7356 91.1505 72.8085 91.5773C72.8814 92.0028 74.7849 92.6854 75.8471 92.3017C75.8471 92.3017 74.6761 95.6666 73.1383 95.4956C71.6005 95.3246 71.1249 94.2178 70.1737 94.1329C69.2226 94.0481 68.5271 94.3457 69.0027 94.6446C69.4783 94.9422 71.089 94.7421 71.8574 95.5032C72.6257 96.263 73.2482 96.7316 71.8203 97.0735C70.3925 97.4142 67.8306 97.2014 67.318 95.9236L66.8054 94.6458L66.8044 94.6446Z" fill="#D4E4F8"/>
<path d="M75.3696 88.5113C75.3696 88.5113 67.683 91.4076 66.8047 94.6445C66.8047 94.6445 66.8417 96.092 66.0723 97.7536V98.3919C66.0723 98.3919 66.8776 96.2199 67.3162 95.9211C67.3162 95.9211 65.5956 93.1096 75.3685 88.51L75.3696 88.5113Z" fill="#D4E4F8"/>
<path d="M66.0721 97.7549C66.0721 97.7549 64.8869 99.8495 65.5628 102.399L65.8675 102.304C65.8675 102.304 65.5715 99.4949 66.1918 98.0829C66.8121 96.6708 66.0721 97.7549 66.0721 97.7549Z" fill="#D4E4F8"/>
<path d="M66.7113 107.928C69.6813 107.928 72.0886 105.127 72.0886 101.671H61.334C61.334 105.127 63.7413 107.928 66.7113 107.928Z" fill="#D4E4F8"/>
<path d="M72.1625 108.247H61.2588C61.2588 107.82 61.5559 107.475 61.9227 107.475H71.4997C71.8665 107.475 72.1625 107.82 72.1625 108.247Z" fill="#D4E4F8"/>
<path d="M72.2111 101.671H61.1572V101.863H72.2111V101.671Z" fill="#9FC1F4"/>
<path d="M76.0485 108.682V109.291C76.0485 109.503 75.9898 109.678 75.9169 109.678H56.8084C56.7355 109.678 56.6768 109.503 56.6768 109.291V108.682C56.6768 108.469 56.7355 108.294 56.8084 108.294H75.9169C75.9898 108.294 76.0485 108.469 76.0485 108.682Z" fill="#9ABFE2"/>
<path d="M76.0482 108.682V109.291C76.0482 109.503 75.9938 109.678 75.9274 109.678H60.7575C60.6911 109.678 60.6367 109.503 60.6367 109.291V108.682C60.6367 108.469 60.6911 108.294 60.7575 108.294H75.9274C75.9938 108.294 76.0482 108.469 76.0482 108.682Z" fill="#BAD4F4"/>
<path d="M71.2122 109.68H57.6465V132.688H71.2122V109.68Z" fill="#C8DBF4"/>
<path d="M75.0139 109.68H61.4482V132.688H75.0139V109.68Z" fill="#DFEBFD"/>
<path d="M74.2861 131.418H62.1787V110.329H74.2861V131.418ZM62.3093 131.266H74.1555V110.481H62.3093V131.266Z" fill="#B7D3F3"/>
<path d="M74.2199 117.306H62.2432V117.458H74.2199V117.306Z" fill="#B7D3F3"/>
<path d="M74.2199 124.417H62.2432V124.569H74.2199V124.417Z" fill="#B7D3F3"/>
<path d="M69.4592 111.689H67.2369C67.1292 111.689 67.041 111.587 67.041 111.461C67.041 111.336 67.1292 111.233 67.2369 111.233H69.4592C69.567 111.233 69.6551 111.336 69.6551 111.461C69.6551 111.587 69.567 111.689 69.4592 111.689Z" fill="#B7D3F3"/>
<path d="M69.4592 118.644H67.2369C67.1292 118.644 67.041 118.542 67.041 118.416C67.041 118.291 67.1292 118.188 67.2369 118.188H69.4592C69.567 118.188 69.6551 118.291 69.6551 118.416C69.6551 118.542 69.567 118.644 69.4592 118.644Z" fill="#B7D3F3"/>
<path d="M69.4592 125.893H67.2369C67.1292 125.893 67.041 125.791 67.041 125.665C67.041 125.54 67.1292 125.438 67.2369 125.438H69.4592C69.567 125.438 69.6551 125.54 69.6551 125.665C69.6551 125.791 69.567 125.893 69.4592 125.893Z" fill="#B7D3F3"/>
<path d="M33.7994 132.807H33.8321C34.0965 132.8 34.3011 132.548 34.2761 132.258L32.5098 111.731L30.9688 111.891L33.5045 132.528C33.5241 132.689 33.6514 132.809 33.7994 132.806V132.807Z" fill="#9DB0F4"/>
<path d="M19.0998 132.807H19.0672C18.8027 132.8 18.5981 132.548 18.6232 132.258L20.3895 111.731L21.9305 111.891L19.3937 132.528C19.3741 132.689 19.2468 132.809 19.0988 132.806L19.0998 132.807Z" fill="#9DB0F4"/>
<path d="M19.6253 108.745L16.4899 90.7277C16.0872 88.2885 17.8242 86.0571 20.0802 86.1179L26.1268 86.2788C28.2131 86.3345 30.0262 87.9593 30.6063 90.2908L35.1935 108.745H19.6253Z" fill="#9DB0F4"/>
<path d="M21.5218 108.745L18.3864 90.7277C17.9837 88.2885 19.7206 86.0571 21.9767 86.1179L28.0233 86.2788C30.1096 86.3345 31.9227 87.9593 32.5028 90.2908L37.09 108.745H21.5218Z" fill="#9DB0F4"/>
<path d="M44.422 112.031H20.4989C20.0168 112.031 19.625 111.575 19.625 111.014V108.745H44.422C44.9041 108.745 45.2959 109.201 45.2959 109.762V111.014C45.2959 111.575 44.9041 112.031 44.422 112.031Z" fill="#9DB0F4"/>
<path d="M46.9765 112.031H31.7262C31.3376 112.031 31.022 111.664 31.022 111.212V109.564C31.022 109.112 31.3376 108.745 31.7262 108.745H46.9765C47.3651 108.745 47.6807 109.112 47.6807 109.564V111.212C47.6807 111.664 47.3651 112.031 46.9765 112.031Z" fill="#9DB0F4"/>
<path d="M31.6152 90.2337L34.1564 97.7157C34.1564 97.7157 36.6051 101.073 38.5727 99.9914L32.3455 85.9203L31.6152 90.2337Z" fill="#ABDDDA"/>
<path d="M49.3739 131.204C49.3532 132.034 50.3522 132.162 51.5004 132.145C52.6486 132.127 52.3177 132.424 53.9045 132.64C55.4912 132.855 56.0919 132.308 56.1921 132.053C56.2813 131.827 55.5336 131.539 54.7348 131.21C54.6347 131.169 54.5335 131.126 54.4334 131.083C53.5344 130.701 52.9935 129.824 52.2655 129.028C51.5755 128.274 50.8224 125.753 50.8224 125.753L48.6621 125.381C48.6621 125.381 49.3869 127.646 49.6481 128.618C49.8016 129.189 49.6568 129.85 49.524 130.356C49.4522 130.631 49.3804 130.912 49.3739 131.205V131.204Z" fill="#FFB27D"/>
<path d="M51.5008 132.143C52.6489 132.125 52.3181 132.423 53.9048 132.638C55.4916 132.854 56.0923 132.307 56.1924 132.052C56.2817 131.825 55.534 131.538 54.7352 131.209L54.7243 131.225C54.7243 131.225 53.6447 131.742 52.3507 131.434C51.2951 131.183 50.2525 130.535 49.5255 130.355C49.4537 130.63 49.3818 130.911 49.3753 131.203C49.3546 132.034 50.3537 132.162 51.5019 132.144L51.5008 132.143Z" fill="#0F2549"/>
<path d="M45.6529 102.618C44.5058 101.681 35.2084 98.8909 34.2475 97.3104L28.7744 95.2069C28.7744 95.2069 25.1329 101.483 25.1046 106.284C25.0916 108.523 25.9775 108.745 25.9775 108.746C25.9775 108.746 39.6912 108.864 40.2919 108.936C41.2757 109.054 42.5741 111.907 42.8984 114.505C43.2227 117.102 48.9417 127.669 48.9417 127.669C48.9417 127.669 50.1345 128.113 50.6863 128.075C51.2794 128.035 51.5536 127.803 51.5536 127.803C51.5536 127.803 48.2398 104.73 45.654 102.617L45.6529 102.618Z" fill="#5DABAF"/>
<path d="M45.7913 131.748C45.7989 132.579 46.8013 132.661 47.9483 132.59C49.0954 132.519 48.7744 132.833 50.3665 132.975C51.9587 133.117 52.5421 132.545 52.6335 132.285C52.7151 132.055 51.9576 131.801 51.149 131.509C51.0467 131.472 50.9455 131.434 50.8432 131.396C49.9323 131.054 49.362 130.203 48.6079 129.441C47.8928 128.719 47.0559 126.234 47.0559 126.234L44.8848 125.961C44.8848 125.961 45.6847 128.192 45.9785 129.149C46.1516 129.713 46.0286 130.38 45.9132 130.892C45.8512 131.171 45.7881 131.454 45.7913 131.747V131.748Z" fill="#FFB27D"/>
<path d="M47.9481 132.592C49.0952 132.521 48.7742 132.835 50.3664 132.977C51.9585 133.118 52.5419 132.546 52.6333 132.286C52.7149 132.056 51.9575 131.803 51.1488 131.51L51.138 131.527C51.138 131.527 50.0769 132.093 48.7731 131.843C47.7098 131.64 46.6465 131.04 45.913 130.893C45.851 131.172 45.7879 131.456 45.7911 131.748C45.7988 132.579 46.8011 132.661 47.9481 132.59V132.592Z" fill="#233862"/>
<path d="M42.075 102.618C41.0792 101.805 38.6077 101.245 34.8161 100.604C31.9538 100.122 30.6751 97.827 30.452 96.7848L32.1182 95.8894L25.1966 95.2056C25.1966 95.2056 23.4455 99.1555 23.4161 103.958C23.403 106.197 25.104 108.745 25.104 108.745C25.104 108.745 36.1122 108.863 36.713 108.935C37.6968 109.053 38.9951 111.906 39.3195 114.503C39.6438 117.101 45.3628 127.668 45.3628 127.668C45.3628 127.668 46.5556 128.112 47.1073 128.074C47.7005 128.034 47.9747 127.802 47.9747 127.802C47.9747 127.802 44.6608 104.729 42.075 102.615V102.618Z" fill="#6BB7BF"/>
<path d="M31.7819 69.1314C30.7252 68.4855 29.1167 68.3981 28.8555 68.3576C25.7288 67.8688 23.8471 73.156 23.7361 74.7581C23.5326 77.7113 22.1896 78.1609 20.3003 80.0099C16.5119 83.718 17.6231 88.0263 19.6941 89.627C20.937 90.587 23.1277 89.627 23.1277 89.627C23.1582 89.6524 29.1199 85.7493 32.0572 83.8674C36.4616 83.1392 34.4744 70.7777 31.7808 69.1314H31.7819Z" fill="#233862"/>
<path d="M31.1296 82.0476C31.1437 82.0552 29.7398 82.7985 28.7277 82.4085C27.7754 82.0438 26.9352 80.3746 26.9494 80.3708C27.3629 80.3012 27.783 79.8263 27.9006 77.0135L28.0834 77.0667L31.1622 77.9722C31.1622 77.9722 31.0403 79.1069 30.9903 80.1809C30.9478 81.0825 30.9565 81.9399 31.1296 82.0463V82.0476Z" fill="#FFB27D"/>
<path d="M31.1629 77.9735C31.1629 77.9735 31.1629 78.2065 31.0476 79.2627C29.3063 78.7511 28.538 78.0799 27.9971 77.3112L31.1629 77.9735Z" fill="#ED975D"/>
<path d="M31.8194 78.1167C31.8194 78.1167 27.7481 78.8879 27.3737 75.9296C27.0004 72.9712 26.2223 71.0792 28.807 70.4612C31.3906 69.8432 32.0393 70.8854 32.3712 71.8378C32.7021 72.7901 32.8697 77.8393 31.8205 78.1167H31.8194Z" fill="#FFB27D"/>
<path d="M31.823 70.3383C31.823 70.3383 29.974 73.7348 28.3231 74.539C26.6721 75.3432 25.8613 74.9354 25.8613 74.9354C25.8613 74.9354 26.6123 73.6107 26.8082 71.8314C26.8658 71.3071 27.1597 70.8575 27.5808 70.6612C28.7649 70.1091 31.0569 69.239 31.823 70.3395V70.3383Z" fill="#233862"/>
<path d="M30.1992 70.6663C30.1992 70.6663 31.2832 71.3135 31.7294 71.9188C32.1603 72.5039 32.6577 74.0907 32.6218 74.8024C32.6218 74.8024 33.1561 71.3869 32.0428 70.2142C30.862 68.9693 30.1992 70.6663 30.1992 70.6663Z" fill="#233862"/>
<path d="M34.3876 89.2738C34.2635 98.9049 37.314 96.2087 36.4085 97.1231C36.1909 97.3434 34.9829 96.9914 31.6156 97.1864C29.0755 97.3333 24.8105 97.9285 24.6407 97.3827C24.0552 95.4945 24.4688 94.9081 23.9801 92.0169C23.929 91.7091 23.8658 91.3773 23.7918 91.0139C23.3848 89.0281 22.9887 88.3531 24.4329 85.163C25.7432 82.2731 27.2831 79.9264 27.4061 80.01C30.8625 82.3972 30.9812 80.3962 30.9812 80.3962C30.9812 80.3962 34.4474 84.5754 34.3865 89.2738H34.3876Z" fill="#FFB27D"/>
<path d="M27.5794 83.2811C27.5794 83.2811 29.1792 84.8566 32.0577 83.8675C34.9363 82.8771 35.1006 97.6815 35.1006 97.6815C35.1006 97.6815 32.7009 98.5111 29.2194 98.0881C25.738 97.6664 27.5794 83.2811 27.5794 83.2811Z" fill="#233862"/>
<path d="M30.9814 80.3975C30.9814 80.3975 34.5195 81.0953 34.9363 82.8771C35.3542 84.6589 40.4595 100.431 40.4595 100.431C40.4595 100.431 35.2498 98.6769 34.2474 97.3104C33.4802 96.2657 32.2624 85.5226 32.2624 85.5226L30.9814 80.3975Z" fill="#ABDDDA"/>
<path d="M31.9307 96.7621C31.9307 96.7621 32.4552 97.5498 32.6272 97.6435C32.7991 97.7372 32.9101 97.7144 32.9101 97.7144L32.5564 96.9736L31.9307 96.7621Z" fill="#FFB27D"/>
<path d="M31.8096 95.9515L33.3343 96.814C33.3343 96.814 33.269 96.9381 33.0818 96.9279C32.8935 96.9178 32.4201 96.7165 32.4201 96.7165L31.8096 95.9528V95.9515Z" fill="#FFB27D"/>
<path d="M31.013 79.7679L30.9814 80.3961C31.383 82.0044 32.1013 87.0448 32.948 90.8909L33.502 85.3148L33.0155 84.8526L33.1983 84.0738L31.6029 80.5506L31.013 79.7679Z" fill="#6BB7BF"/>
<path d="M28.3283 107.011C24.7402 108.142 21.2021 106.905 21.2021 106.905L22.0946 100.767L22.581 97.4207L23.6247 90.235L25.4073 83.4014L26.9669 82.3035L28.3294 90.235V107.011H28.3283Z" fill="#ABDDDA"/>
<path d="M24.4023 90.9796C24.3109 91.1468 24.3065 94.4103 26.95 95.2094C29.5924 96.0073 23.08 96.7849 23.08 96.7849C23.08 96.7849 20.9807 94.9093 21.0101 94.4496C21.0405 93.9886 24.4023 90.9796 24.4023 90.9796Z" fill="#6BB7BF"/>
<path d="M29.22 98.0881C29.22 98.0881 25.5992 100.499 22.0938 100.767L22.5802 97.4207L29.22 98.0893V98.0881Z" fill="#6BB7BF"/>
<path d="M28.9023 96.3416C28.9023 96.3416 31.4065 95.6932 31.8103 95.9516C32.214 96.2099 33.2011 97.1521 33.3252 97.4789C33.4493 97.8069 32.4263 97.2306 32.0932 97.1268C31.8778 97.0597 31.3108 97.2889 31.03 97.3978C29.8481 97.8563 29.1244 97.6207 29.1244 97.6207L28.9034 96.3416H28.9023Z" fill="#FFB27D"/>
<path d="M27.4072 80.0111C27.4072 80.0111 23.8637 80.2517 22.7003 82.1412C21.0624 84.7994 17.8116 96.1313 19.6748 97.6434C21.7719 99.3455 29.2214 98.0892 29.2214 98.0892C29.2214 98.0892 29.4695 96.7405 29.1245 96.0895C28.7795 95.4373 23.1748 94.3837 22.9168 94.0823C22.6578 93.7809 26.1502 88.2124 26.1502 87.3095C26.1502 86.4065 27.4083 80.0124 27.4083 80.0124L27.4072 80.0111Z" fill="#ABDDDA"/>
<path d="M27.6111 79.4805L28.3294 90.2337L26.6861 86.1165L26.9679 85.3833C26.9679 85.3833 26.3672 84.1789 26.3672 84.0371C26.3672 83.8952 26.5381 80.1251 26.5381 80.1251L27.6122 79.4792L27.6111 79.4805Z" fill="#6BB7BF"/>
<path d="M27.7878 97.6662H64.789C64.9664 97.6662 65.1101 97.8334 65.1101 98.0398V99.3113C65.1101 99.5177 64.9664 99.6849 64.789 99.6849H27.7878C27.6105 99.6849 27.4668 99.5177 27.4668 99.3113V98.0385C27.4668 97.8321 27.6105 97.6649 27.7878 97.6649V97.6662Z" fill="#2B478B"/>
<path d="M64.1605 132.956L64.1811 132.954C64.4271 132.918 64.6012 132.662 64.5697 132.384L60.2926 98.6945L58.7266 98.7464L63.7589 132.618C63.7915 132.834 63.9678 132.984 64.1605 132.957V132.956Z" fill="#2B478B"/>
<path d="M26.2254 132.956L26.2047 132.954C25.9588 132.918 25.7846 132.662 25.8162 132.384L30.0932 98.6945L31.6593 98.7464L26.627 132.618C26.5943 132.834 26.418 132.984 26.2254 132.957V132.956Z" fill="#2B478B"/>
<path d="M36.1268 132.956L36.1061 132.954C35.8601 132.918 35.686 132.662 35.7176 132.384L39.9946 98.6945L41.5607 98.7464L36.5283 132.618C36.4957 132.834 36.3194 132.984 36.1268 132.957V132.956Z" fill="#2B478B"/>
<path d="M49.012 94.9055H34.6475L37.2572 83.6724H51.6217L49.012 94.9055Z" fill="#2D466D"/>
<path d="M49.465 94.9055H35.1016L37.7113 83.6724H52.0758L49.465 94.9055Z" fill="#233862"/>
<path d="M43.3463 97.6308L40.335 97.6624L42.4201 90.2666L45.4315 90.2336L43.3463 97.6308Z" fill="#2D466D"/>
<path d="M45.0523 97.3091H38.4746V97.6611H45.0523V97.3091Z" fill="#2D466D"/>
<path d="M99.1249 75.5863H78.0674L80.2081 57.3208H101.266L99.1249 75.5863Z" fill="#2B478B"/>
<path d="M98.6445 75.0556H78.6709L80.6832 57.8868H100.657L98.6445 75.0556Z" fill="#C9D4F8"/>
<path d="M90.6019 64.433C90.6019 64.433 90.5953 64.433 90.5921 64.433C90.5311 64.4266 90.4876 64.3709 90.4887 64.2987L90.5572 60.9364L89.5451 64.3139C89.5244 64.3836 89.4657 64.4342 89.4036 64.4342H88.2522C88.2032 64.4342 88.1619 64.4026 88.1456 64.3507L87.9236 63.6415L87.4991 64.3557C87.4708 64.4038 87.424 64.433 87.3761 64.433H86.6851C86.6296 64.433 86.586 64.3924 86.5741 64.3317L86.1333 61.9609L84.9721 64.3405C84.9449 64.3962 84.8937 64.4317 84.8426 64.4317H81.5254C81.4536 64.4317 81.4035 64.3646 81.4133 64.281C81.4231 64.1974 81.4895 64.1303 81.5613 64.1303H84.7936L86.0832 61.4873C86.1115 61.4303 86.1659 61.3948 86.2171 61.3961C86.2704 61.3986 86.3129 61.4379 86.3238 61.4974L86.8135 64.1316H87.3359L87.8637 63.2438C87.8931 63.1944 87.9442 63.1628 87.9889 63.1666C88.0367 63.1666 88.077 63.1995 88.0922 63.2501L88.3676 64.1316H89.334L90.5845 59.9625C90.6062 59.8903 90.6672 59.8384 90.7314 59.8435C90.7945 59.8473 90.8402 59.9043 90.838 59.9777L90.7662 63.487L91.257 62.099C91.281 62.0318 91.3376 61.9863 91.3996 61.9875C91.4595 61.9901 91.5041 62.0407 91.5084 62.1091L91.6183 64.1328H92.9842L94.5067 60.3234C94.5328 60.2576 94.5938 60.2145 94.6514 60.2196C94.7102 60.2247 94.7527 60.2753 94.7559 60.3437L94.892 64.1328H95.3001L96.0227 62.7702C96.0532 62.7132 96.1076 62.679 96.162 62.6853C96.2153 62.6917 96.2556 62.736 96.2621 62.798L96.4025 64.1328H98.2831C98.3549 64.1328 98.405 64.2 98.3952 64.2835C98.3854 64.3671 98.319 64.4342 98.2472 64.4342H96.2665C96.2077 64.4342 96.1609 64.3874 96.1544 64.3215L96.0434 63.2729L95.472 64.3494C95.4448 64.4013 95.3948 64.4355 95.3447 64.4355H94.7461C94.683 64.4355 94.6351 64.3823 94.6329 64.3114L94.5143 60.9883L93.1779 64.3329C93.1528 64.395 93.0984 64.4368 93.0418 64.4368H91.4758C91.4137 64.4368 91.3669 64.3861 91.3626 64.3152L91.2799 62.7955L90.739 64.3253C90.7161 64.3912 90.6585 64.4368 90.6008 64.4368L90.6019 64.433Z" fill="white"/>
<path d="M89.7961 71.3109C89.7961 71.3109 89.7896 71.3109 89.7863 71.3109C89.7254 71.3059 89.6818 71.2489 89.6829 71.1767L89.7515 67.8144L88.7394 71.1919C88.7187 71.2616 88.6599 71.3122 88.5979 71.3122H87.4464C87.3975 71.3122 87.3561 71.2806 87.3398 71.2286L87.1189 70.5194L86.6944 71.2337C86.6661 71.2818 86.6193 71.3109 86.5715 71.3109H85.8804C85.8249 71.3109 85.7813 71.2704 85.7694 71.2096L85.3286 68.8389L84.1674 71.2185C84.1402 71.2742 84.089 71.3097 84.0379 71.3097H80.7207C80.6489 71.3097 80.5989 71.2426 80.6086 71.159C80.6184 71.0754 80.6848 71.0083 80.7567 71.0083H83.9889L85.2786 68.3653C85.3068 68.3083 85.3613 68.2728 85.4124 68.2741C85.4657 68.2766 85.5082 68.3159 85.5191 68.3754L86.0088 71.0083H86.5312L87.059 70.1205C87.0884 70.0711 87.1395 70.0395 87.1842 70.0433C87.2321 70.0433 87.2723 70.0762 87.2876 70.1268L87.5629 71.0083H88.5293L89.7798 66.8392C89.8015 66.767 89.8625 66.7151 89.9267 66.7202C89.9898 66.724 90.0355 66.781 90.0333 66.8544L89.9615 70.3637L90.4523 68.9757C90.4763 68.9086 90.5329 68.863 90.5949 68.8642C90.6548 68.8668 90.6994 68.9174 90.7037 68.9858L90.8147 71.0083H92.1806L93.7031 67.1989C93.7292 67.133 93.7902 67.09 93.8478 67.095C93.9066 67.1001 93.9501 67.1508 93.9523 67.2192L94.0884 71.0083H94.4965L95.2191 69.6469C95.2496 69.5899 95.304 69.5557 95.3584 69.562C95.4117 69.5684 95.452 69.6127 95.4585 69.6747L95.5989 71.0095H97.4795C97.5513 71.0095 97.6014 71.0767 97.5916 71.1602C97.5818 71.2438 97.5154 71.3109 97.4436 71.3109H95.4629C95.4041 71.3109 95.3573 71.2641 95.3508 71.1982L95.2398 70.1496L94.6684 71.2261C94.6412 71.278 94.5912 71.3122 94.5411 71.3122H93.9425C93.8794 71.3122 93.8315 71.259 93.8293 71.1881L93.7107 67.865L92.3743 71.2096C92.3492 71.2717 92.2948 71.3135 92.2382 71.3135H90.6722C90.6101 71.3135 90.5633 71.2628 90.559 71.1919L90.4763 69.6722L89.9354 71.202C89.9125 71.2679 89.8549 71.3135 89.7972 71.3135L89.7961 71.3109Z" fill="white"/>
<g opacity="0.2">
<path d="M96.8777 85.13V75.5863H80.6064V85.13V105.854V133.016H104.533V85.13H96.8777Z" fill="#8EADFF"/>
</g>
<g opacity="0.2">
<path d="M84.0749 75.5863V87.6046L92.0499 100.046V132.873H80.6064V75.5863H84.0749Z" fill="#8EADFF"/>
</g>
<path d="M118.815 102.724H95.9039L85.8687 85.9722C85.2244 84.8971 85.2995 83.1051 86.0265 82.1933L86.5358 81.5537L106.84 82.0615L118.815 102.723V102.724Z" fill="#D2E0FF"/>
<path d="M100.842 103.163L98.0996 105.536L85.5493 85.8962C84.8549 84.8096 85.0487 83.2735 85.9824 82.4655L87.0348 81.5549L100.843 103.163H100.842Z" fill="#8FADEF"/>
<path d="M86.1041 105.536H167.719C168.72 105.536 169.532 104.591 169.532 103.426C169.532 102.261 168.72 101.317 167.719 101.317H86.1041C85.1029 101.317 84.291 102.262 84.291 103.426C84.291 104.591 85.1029 105.536 86.1041 105.536Z" fill="#8FADEF"/>
<path d="M99.4034 100.821H98.0996V131.293H99.4034V100.821Z" fill="#8FADEF"/>
<path d="M166.245 100.821H164.941V131.293H166.245V100.821Z" fill="#8FADEF"/>
<path d="M122.402 100.821H121.097V131.293H122.402V100.821Z" fill="#8FADEF"/>
<path d="M158.425 124.338H98.0996V125.944H158.425V124.338Z" fill="#8FADEF"/>
<path d="M186.035 124.338H157.121V125.944H186.035V124.338Z" fill="#8FADEF"/>
<path d="M97.2725 131.295C97.2725 130.344 97.9342 129.574 98.7515 129.574C99.5688 129.574 100.23 130.344 100.23 131.295C100.23 132.246 99.5677 133.016 98.7515 133.016C97.9352 133.016 97.2725 132.246 97.2725 131.295Z" fill="#2B478B"/>
<path d="M97.9268 131.295C97.9268 130.765 98.2957 130.335 98.7517 130.335C99.2077 130.335 99.5766 130.764 99.5766 131.295C99.5766 131.825 99.2077 132.255 98.7517 132.255C98.2957 132.255 97.9268 131.825 97.9268 131.295Z" fill="#AEC3FF"/>
<path d="M120.271 131.295C120.271 130.344 120.933 129.574 121.75 129.574C122.566 129.574 123.229 130.344 123.229 131.295C123.229 132.246 122.566 133.016 121.75 133.016C120.933 133.016 120.271 132.246 120.271 131.295Z" fill="#2B478B"/>
<path d="M120.925 131.295C120.925 130.765 121.294 130.335 121.75 130.335C122.206 130.335 122.575 130.764 122.575 131.295C122.575 131.825 122.206 132.255 121.75 132.255C121.294 132.255 120.925 131.825 120.925 131.295Z" fill="#AEC3FF"/>
<path d="M164.114 131.295C164.114 130.344 164.776 129.574 165.593 129.574C166.411 129.574 167.072 130.344 167.072 131.295C167.072 132.246 166.409 133.016 165.593 133.016C164.777 133.016 164.114 132.246 164.114 131.295Z" fill="#2B478B"/>
<path d="M164.769 131.295C164.769 130.765 165.137 130.335 165.593 130.335C166.049 130.335 166.418 130.764 166.418 131.295C166.418 131.825 166.049 132.255 165.593 132.255C165.137 132.255 164.769 131.825 164.769 131.295Z" fill="#AEC3FF"/>
<path d="M105.956 88.6748C105.956 88.6748 108.835 86.1723 113.338 87.4641C115.534 88.0947 126.911 91.2684 126.911 91.2684L122.402 99.9547C122.402 99.9547 103.439 100.603 102.296 98.4477C100.507 95.074 105.956 88.6748 105.956 88.6748Z" fill="#FFB27D"/>
<path d="M107.997 96.0022C107.997 96.0022 112.444 95.9351 113.677 96.3302C114.911 96.7254 113.955 97.7664 113.862 97.8018C113.77 97.8373 107.996 96.0022 107.996 96.0022H107.997Z" fill="#E8945B"/>
<path d="M87.2754 84.8514V102.239H89.1059V87.2323L87.2754 84.8514Z" fill="#8FADEF"/>
<path d="M103.755 92.5235C103.755 92.5235 102.717 88.98 100.084 88.9636L102.824 86.8613L103.661 86.2192C103.661 86.2192 104.12 86.6967 104.672 87.2628C105.409 88.0188 106.311 88.9344 106.5 89.0775C106.828 89.3296 104.357 92.2613 103.755 92.5235Z" fill="#FFB27D"/>
<path d="M104.672 87.2628C103.858 88.6546 101.479 88.9902 101.479 88.9902L102.824 86.8613L103.661 86.2192C103.661 86.2192 104.12 86.6967 104.672 87.2628Z" fill="#E8945B"/>
<path d="M104.774 85.5227C104.774 85.5227 102.977 90.1806 100.501 88.8344C98.0254 87.487 96.1263 87.1818 97.1689 84.15C98.2115 81.1194 99.3869 81.0586 100.308 81.2752C101.228 81.4905 105.178 84.2766 104.774 85.5227Z" fill="#FFB27D"/>
<path d="M100.36 87.6161C100.36 87.6161 99.558 87.7984 99.4372 87.2425C99.3153 86.6865 99.8856 86.86 100.016 86.5953C100.147 86.3307 99.7681 85.3821 99.2076 84.8996C98.6471 84.4171 100.924 82.6656 101.208 81.474C101.492 80.281 100.856 78.5536 99.3763 79.6148C98.5067 80.2392 94.1034 83.3153 94.9904 86.4624C96.1212 90.4731 100.267 89.4904 100.866 89.3941C101.465 89.2979 101.48 88.9901 101.48 88.9901C101.48 88.9901 101.074 87.6882 100.361 87.6173L100.36 87.6161Z" fill="#2C3A64"/>
<path d="M186.239 88.6748H163.356C163.027 88.6748 162.761 88.9849 162.761 89.3675V104.843C162.761 105.226 163.027 105.536 163.356 105.536H186.239C186.567 105.536 186.834 105.226 186.834 104.843V89.3675C186.834 88.9849 186.567 88.6748 186.239 88.6748Z" fill="#8FADEF"/>
<path d="M164.922 88.6748H187.805C188.134 88.6748 188.4 88.9851 188.4 89.3675V104.843C188.4 105.226 188.134 105.536 187.805 105.536H164.922C164.594 105.536 164.327 105.226 164.327 104.843V89.3675C164.327 88.9851 164.594 88.6748 164.922 88.6748Z" fill="#AEC3FF"/>
<path d="M118.191 98.0791C115.703 97.6865 114.139 97.6865 110.744 96.6708H110.741C108.204 95.911 102.541 94.2823 102.541 94.2823C102.541 94.2823 101.495 97.1774 102.564 99.0681C103.634 100.959 110.19 101.419 110.19 101.419C111.907 101.72 113.541 101.897 114.491 101.872C117.143 101.802 123.785 100.811 123.785 100.811L123.868 99.0694C123.868 99.0694 122.489 98.7579 118.192 98.0791H118.191Z" fill="#FFB27D"/>
<path d="M123.29 99.0695C123.29 99.0695 126.169 99.1568 126.95 99.4C127.732 99.6431 129.377 101.089 129.006 101.229C128.636 101.367 126.076 100.996 125.644 101.032C125.212 101.068 124.41 101.248 123.825 100.889C123.239 100.531 123.29 99.0707 123.29 99.0707V99.0695Z" fill="#FFB27D"/>
<path d="M114.385 87.464C114.385 87.464 109.802 90.8377 108.492 95.0017C107.183 99.1657 107.546 107.995 107.546 107.995C107.546 107.995 115.185 108.57 122.605 107.995C130.025 107.421 154.256 109.184 157.966 108.861C161.676 108.538 162.76 108.108 162.76 108.108V92.5246C162.76 92.5246 144.108 91.8496 136.798 90.8808C129.487 89.912 119.754 87.5944 114.384 87.4653L114.385 87.464Z" fill="#506DB5"/>
<path d="M115.453 88.4062C115.453 88.4062 114.083 89.2673 113.565 90.9035L120.561 91.5064L122.189 89.3712L115.454 88.4049L115.453 88.4062Z" fill="#FFB27D"/>
<path d="M100.237 0.230738V21.3546V22.4348H101.318H101.599V22.2689V21.0747V0.121826L100.237 0.230738Z" fill="#D2E0FF"/>
<path d="M99.7451 22.583C99.7451 21.6965 100.363 20.9772 101.125 20.9772C101.887 20.9772 102.505 21.6965 102.505 22.583C102.505 23.4695 101.887 24.1888 101.125 24.1888C100.363 24.1888 99.7451 23.4695 99.7451 22.583Z" fill="#8FADEF"/>
<path d="M94.7872 39.5138C94.7872 39.5138 91.9239 30.982 98.6496 24.4802C105.375 17.9784 116.876 19.3993 120.594 23.5051L94.7872 39.5138Z" fill="#D2E0FF"/>
<path d="M122.32 25.8757C124.348 30.8679 119.914 38.2587 112.414 42.3847C104.915 46.5107 97.1909 45.8091 95.1634 40.8169C93.1348 35.8247 97.5697 28.4338 105.069 24.3079C112.569 20.1819 120.292 20.8835 122.32 25.8757Z" fill="#ABDDDA"/>
<g opacity="0.3">
<path d="M116.919 28.8466C118.142 31.8531 115.47 36.3045 110.953 38.7905C106.437 41.2752 101.786 40.8535 100.563 37.8458C99.3423 34.8393 102.013 30.3878 106.529 27.9031C111.046 25.4184 115.697 25.8401 116.919 28.8466Z" fill="white"/>
</g>
<path d="M107.058 33.9681C106.822 33.3868 107.339 32.5256 108.212 32.0444C109.086 31.5631 109.986 31.6455 110.222 32.2268C110.458 32.808 109.941 33.6692 109.068 34.1504C108.194 34.6304 107.294 34.5494 107.058 33.9681Z" fill="white"/>
<path d="M99.1098 32.9322C98.6767 31.8672 99.6235 30.2892 101.224 29.4078C102.825 28.5264 104.474 28.6771 104.906 29.7421C105.339 30.8072 104.392 32.3852 102.792 33.2653C101.191 34.1455 99.5419 33.996 99.1098 32.931V32.9322Z" fill="white"/>
<path d="M98.6645 40.5623C98.2314 39.4973 99.1782 37.9193 100.779 37.0379C102.38 36.1577 104.028 36.3072 104.461 37.3722C104.894 38.4373 103.947 40.0152 102.346 40.8967C100.745 41.7768 99.0966 41.6274 98.6645 40.5623Z" fill="white"/>
<path d="M108.425 27.8056C107.992 26.7406 108.939 25.1626 110.54 24.2812C112.141 23.401 113.79 23.5505 114.222 24.6155C114.655 25.6806 113.708 27.2585 112.107 28.1387C110.506 29.0188 108.857 28.8694 108.425 27.8044V27.8056Z" fill="white"/>
<path d="M114.576 31.8076C114.143 30.7425 115.089 29.1646 116.69 28.2831C118.291 27.403 119.94 27.5524 120.372 28.6175C120.805 29.6825 119.858 31.2605 118.257 32.1419C116.656 33.0221 115.008 32.8726 114.576 31.8076Z" fill="white"/>
<path d="M107.966 40.1647C107.533 39.0996 108.48 37.5217 110.081 36.6415C111.682 35.7614 113.329 35.9108 113.763 36.9759C114.196 38.0409 113.249 39.6189 111.648 40.5003C110.047 41.3805 108.398 41.231 107.966 40.166V40.1647Z" fill="white"/>
<path d="M152.711 15.4453V24.8599V25.9173V26.0629H152.962H153.916V25.1068V16.0253L152.711 15.4453Z" fill="#D2E0FF"/>
<path d="M154.35 26.1946C154.35 25.4094 153.804 24.7737 153.129 24.7737C152.455 24.7737 151.908 25.4094 151.908 26.1946C151.908 26.9798 152.455 27.6155 153.129 27.6155C153.804 27.6155 154.35 26.9798 154.35 26.1946Z" fill="#8FADEF"/>
<path d="M158.74 41.1775C158.74 41.1775 161.274 33.6272 155.321 27.8726C149.368 22.118 139.19 23.3755 135.899 27.0089L158.74 41.1775Z" fill="#D2E0FF"/>
<path d="M134.372 29.1073C132.576 33.5246 136.501 40.0669 143.139 43.7192C149.777 47.3716 156.612 46.7497 158.407 42.3325C160.203 37.914 156.277 31.3729 149.639 27.7206C143.002 24.0682 136.166 24.69 134.372 29.1086V29.1073Z" fill="#ABDDDA"/>
<g opacity="0.3">
<path d="M139.151 31.7377C138.071 34.3984 140.435 38.3382 144.432 40.538C148.429 42.7378 152.546 42.3629 153.627 39.7022C154.709 37.0414 152.344 33.1016 148.346 30.9018C144.349 28.7021 140.232 29.0769 139.151 31.7377Z" fill="white"/>
</g>
<g opacity="0.8">
<path d="M147.879 36.2702C148.088 35.7561 147.631 34.9937 146.858 34.5682C146.085 34.1426 145.289 34.2148 145.079 34.7303C144.87 35.2444 145.327 36.0068 146.101 36.4323C146.874 36.8578 147.67 36.7856 147.879 36.2702Z" fill="white"/>
<path d="M154.913 35.3533C155.296 34.4098 154.458 33.0142 153.043 32.2341C151.626 31.4552 150.167 31.587 149.784 32.5304C149.401 33.4739 150.239 34.8695 151.655 35.6496C153.072 36.4297 154.53 36.2968 154.913 35.3533Z" fill="white"/>
<path d="M155.308 42.1058C155.691 41.1623 154.853 39.7667 153.437 38.9866C152.02 38.2065 150.562 38.3394 150.179 39.2829C149.796 40.2264 150.634 41.622 152.05 42.4021C153.466 43.1809 154.925 43.0492 155.308 42.1058Z" fill="white"/>
<path d="M146.668 30.817C147.051 29.8735 146.213 28.4779 144.797 27.6978C143.38 26.919 141.922 27.0507 141.539 27.9942C141.156 28.9377 141.994 30.3332 143.41 31.1134C144.827 31.8922 146.285 31.7605 146.668 30.817Z" fill="white"/>
<path d="M141.226 34.358C141.609 33.4145 140.771 32.0189 139.355 31.2388C137.938 30.4587 136.48 30.5916 136.097 31.5351C135.714 32.4786 136.552 33.8742 137.967 34.6543C139.384 35.4344 140.843 35.3014 141.226 34.358Z" fill="white"/>
<path d="M147.075 41.755C147.459 40.8116 146.621 39.416 145.205 38.6359C143.788 37.8557 142.329 37.9887 141.946 38.9322C141.563 39.8757 142.401 41.2713 143.817 42.0514C145.234 42.8302 146.692 42.6985 147.075 41.755Z" fill="white"/>
</g>
<path d="M189.703 132.533H185.787C185.816 132.294 185.917 131.567 186.099 130.898C186.163 130.665 186.237 130.438 186.321 130.242C186.702 129.358 189.121 129.921 189.121 129.921C189.121 129.921 189.345 130.145 189.521 131C189.598 131.376 189.667 131.877 189.703 132.533Z" fill="#233862"/>
<path d="M182.514 62.9398C182.514 62.9398 179.394 63.5768 178.689 65.7196C177.983 67.8624 173.998 102.477 173.998 102.477C173.998 102.477 175.971 104.297 180.207 103.644C184.442 102.99 182.513 62.9398 182.513 62.9398H182.514Z" fill="#ABDDDA"/>
<path d="M177.871 131.096C177.86 131.715 177.794 132.303 177.6 132.533H169.855C169.953 132.207 170.233 131.716 171.028 131.567C171.931 131.397 173.339 130.891 174.161 129.879C174.454 129.519 174.672 129.095 174.768 128.6C175.133 126.712 177.78 129.179 177.78 129.179C177.78 129.179 177.887 130.173 177.871 131.095V131.096Z" fill="#233862"/>
<path d="M174.536 130.178C175.402 130.499 177.056 131.479 178.107 131.019C178.786 130.721 182.582 117.944 182.828 112.355C182.847 111.949 182.915 111.381 183.023 110.691C183.248 109.249 183.641 107.267 184.094 105.08C185.308 99.22 186.952 91.8888 186.916 89.5459C186.86 85.9087 177.602 88.7835 177.602 88.7835C177.602 88.7835 176.966 91.7672 176.838 96.0857C176.587 104.659 175.896 119.141 174.015 129.197C173.936 129.624 174.177 130.046 174.536 130.178Z" fill="#5FABAF"/>
<path d="M180.963 89.5574L185.857 130.838C185.857 130.838 188.006 131.44 189.678 130.958C189.678 130.958 191.111 109.003 190.992 103.696C190.872 98.3882 192.02 89.4928 190.729 88.5126C189.439 87.5312 180.962 89.5574 180.962 89.5574H180.963Z" fill="#6BB7BF"/>
<path d="M191.348 64.8306C191.348 64.8306 186.205 60.9604 182.516 62.9398C181.928 63.2552 181.258 64.1353 180.777 64.7508C179.443 66.4605 176.837 93.6238 176.837 93.6238C176.837 93.6238 184.234 96.5391 191.348 92.6348V64.8306Z" fill="#8FADEF"/>
<path d="M182.223 62.8423C182.223 62.8423 177.016 65.3257 176.311 67.2342C175.605 69.1427 170.969 80.2555 173.313 82.2337C174.269 83.0404 177.304 82.5414 177.947 80.3252C178.481 78.4851 180.281 72.8318 181.23 69.2567L182.224 62.8436L182.223 62.8423Z" fill="#ABDDDA"/>
<path d="M183.304 64.7344C184.441 64.994 186.111 64.7179 187.333 63.7795C186.781 62.2459 186.555 61.0339 186.474 60.25C186.47 60.2082 186.466 60.1677 186.462 60.1284C186.426 59.7219 186.431 59.4471 186.448 59.3204H183.509C183.509 59.3204 182.706 59.7485 182.706 60.0436C182.706 60.2019 182.704 60.3526 182.702 60.4969C182.697 60.8895 182.683 61.234 182.665 61.5278C182.61 62.4877 182.515 62.9399 182.515 62.9399C182.515 62.9399 182.156 64.4722 183.304 64.7344Z" fill="#FFB27D"/>
<path d="M182.666 61.5277C184.893 62.028 186.184 60.6121 186.475 60.2499C186.516 60.198 186.537 60.1676 186.537 60.1676C186.513 60.1537 186.489 60.141 186.463 60.1296C185.634 59.7383 183.753 60.0498 182.703 60.4981C182.698 60.8907 182.683 61.2352 182.666 61.529V61.5277Z" fill="#E2915A"/>
<path d="M187.202 58.7581C186.804 61.2504 184.041 61.1681 182.846 61.0111C182.51 60.968 182.299 60.9173 182.299 60.9173C181.92 60.7996 181.709 60.1056 181.61 59.195C181.415 57.3942 181.661 54.7524 181.922 54.0762C182.315 53.0592 183.057 51.9587 185.839 52.7528C188.622 53.5468 187.711 55.5642 187.201 58.7568L187.202 58.7581Z" fill="#FFB27D"/>
<path d="M181.821 52.6882C182.2 52.0752 183.007 51.3268 183.739 50.8658C185.313 49.8755 187.326 50.8975 187.335 50.9013C189.607 52.0638 190.202 54.0876 188.997 57.2397C187.722 60.5729 186.509 60.198 186.509 60.198C186.509 60.198 186.767 60.0119 186.743 58.9734C186.742 58.9139 186.74 58.8645 186.737 58.8227C186.725 58.6099 186.791 58.3959 186.927 58.2541C187.209 57.9603 187.347 57.0738 187.111 56.8268C186.826 56.5292 186.425 56.8901 186.297 57.1688C186.185 57.365 185.984 57.4334 185.798 57.2967C185.091 56.7762 185.55 55.7352 184.874 55.0982C184.198 54.4612 182.827 54.9956 181.813 54.489C180.485 53.9141 181.534 53.1504 181.821 52.6882Z" fill="#233862"/>
<path d="M181.504 105.022C181.952 105.156 182.395 105.266 182.836 105.351C183.225 105.428 183.614 105.485 184.003 105.524C186.204 105.747 188.414 105.386 190.999 104.524C191.581 104.33 192.182 104.11 192.807 103.865C192.873 103.839 192.637 95.8869 192.364 87.6843C192.337 86.8371 192.307 85.9873 192.279 85.1439C192.267 84.7855 192.255 84.4309 192.243 84.0751C191.996 76.8198 191.75 70.2686 191.699 69.9153C191.58 69.1174 191.47 68.4361 191.35 67.8472C190.997 66.1287 190.561 65.1865 189.607 64.3759C189.515 64.2936 188.752 63.8466 188.079 63.4578C187.522 63.1361 187.027 62.855 187.027 62.855C186.805 62.9816 186.539 63.573 186.261 64.4025C185.749 65.9324 185.196 68.274 184.812 70.0229C184.811 70.028 184.81 70.0305 184.81 70.0318C184.563 71.1614 184.386 72.0416 184.334 72.2936C184.248 72.7191 184.135 73.5448 184.001 74.663C183.821 76.1853 183.604 78.2508 183.376 80.5949C183.353 80.8356 183.329 81.08 183.305 81.3257C183.278 81.6068 183.25 81.8917 183.223 82.1792C183.215 82.2717 183.206 82.3641 183.197 82.4566C183.109 83.3849 183.021 84.3435 182.932 85.3174C182.859 86.1228 181.808 86.7041 181.737 87.5235C181.695 88.0047 181.607 92.441 181.495 93.8556C181.415 94.8662 181.472 104.55 181.504 105.025V105.022Z" fill="#ABDDDA"/>
<path d="M189.095 72.8381C189.098 72.8546 189.273 80.1745 184.541 81.0635C179.809 81.9525 182.953 82.1881 182.953 82.1881C182.953 82.1881 191.856 81.7474 192.003 81.4738C192.15 81.2003 189.095 72.8381 189.095 72.8381Z" fill="#6BB7BF"/>
<path d="M185.097 84.2068C185.097 84.2068 185.186 84.2802 185.356 84.4081C185.359 84.4094 185.361 84.4119 185.365 84.4145C186.086 84.9501 188.229 86.4129 191.348 87.3918C191.676 87.4956 192.014 87.5932 192.362 87.6831C192.335 86.8358 192.306 85.9861 192.277 85.1426C192.69 85.1047 193.084 85.0439 193.45 84.9539C193.438 84.8425 193.424 84.7311 193.411 84.6196C193.014 84.4296 192.62 84.2473 192.24 84.0751C191.93 83.9345 191.631 83.8002 191.347 83.6761C190.065 83.11 189.116 82.7263 189.116 82.7263L185.323 84.1244L185.096 84.208L185.097 84.2068Z" fill="#6BB7BF"/>
<path d="M184.093 84.0838C184.093 84.0838 184.58 84.2257 185.356 84.4068C185.36 84.4068 185.362 84.4068 185.365 84.4093C186.796 84.7436 189.201 85.2135 191.35 85.1882C191.666 85.1844 191.978 85.1692 192.279 85.1426C192.691 85.1046 193.085 85.0438 193.451 84.9539C194.237 84.7614 194.894 84.4346 195.324 83.9243C198.519 80.1364 193.581 66.5414 192.541 65.2193C191.329 63.6743 189.115 63.1335 187.894 62.9474C187.843 62.9398 187.794 62.9322 187.746 62.9258C187.316 62.8663 187.041 62.8536 187.026 62.8536C187.026 62.8536 187.122 63.212 187.283 63.8199C187.345 64.0555 187.418 64.3277 187.497 64.633C188.248 67.4938 189.696 73.1154 190.334 76.2852C190.568 77.4453 190.693 78.2773 190.637 78.5255C190.388 79.6083 187.805 80.1656 186.169 80.4112C185.487 80.5138 184.969 80.5619 184.853 80.5733C184.845 80.5733 184.837 80.5733 184.83 80.5759L184.735 81.0267L184.508 82.1095L184.285 83.1733L184.094 84.0876L184.093 84.0838Z" fill="#ABDDDA"/>
<path d="M175.18 90.601L186.155 90.0627L183.929 74.1451L172.953 74.6834L175.18 90.601Z" fill="#233862"/>
<path d="M184.827 80.5722C184.827 80.5722 182.691 80.3987 182.583 80.9787C182.333 82.3299 184.42 83.4393 185.096 83.3633C185.772 83.2874 185.319 80.4822 184.827 80.5734V80.5722Z" fill="#FFB27D"/>
<path d="M173.553 77.9152C173.553 77.9152 175.597 77.1718 175.817 77.7062C176.329 78.9536 174.519 80.5936 173.846 80.7026C173.174 80.8102 173.057 77.9595 173.553 77.9152Z" fill="#FFB27D"/>
<path d="M186.803 62.0521C186.803 62.0521 187.818 62.2573 188.268 63.0095C188.268 63.0095 184.793 70.0913 184.809 70.028C184.824 69.9647 185.944 62.9222 186.803 62.0521Z" fill="#6BB7BF"/>
<path d="M182.619 62.1483C182.323 62.2788 181.756 62.955 181.628 63.3286L181.229 69.2542C181.229 69.2542 182.081 64.9053 182.515 62.9398C182.625 62.4396 182.605 62.2889 182.618 62.1483H182.619Z" fill="#6BB7BF"/>
<path d="M180.29 74.3237C180.29 74.3237 180.203 73.8818 179.704 73.9337C179.204 73.9843 176.397 74.1452 176.397 74.1452C176.397 74.1452 175.857 74.135 175.907 74.539L180.29 74.3237Z" fill="#C65447"/>
<path d="M0.295993 132.591H279.704C279.867 132.591 280 132.751 280 132.948V133.013C280 133.21 279.867 133.371 279.704 133.371H0.295993C0.132762 133.371 0 133.21 0 133.013V132.948C0 132.751 0.132762 132.591 0.295993 132.591Z" fill="#2E3552"/>
</svg>
