<svg width="44" height="45" viewBox="0 0 44 45" fill="none" xmlns="http://www.w3.org/2000/svg">
<path d="M17.6078 13.2245C17.9896 15.165 17.153 15.7501 17.153 15.7501L14.7154 17.2825C13.7438 17.858 14.2729 19.0626 14.2729 19.0626C18.0819 27.3302 22.2954 29.8181 23.8291 30.9225C24.9389 31.7215 25.6148 31.1523 25.6148 31.1523L28.7548 28.5335C29.87 27.4408 30.7195 28.1924 30.7195 28.1924L36.9139 32.822C37.9678 33.5605 37.4946 35.0593 36.7352 36.3518C35.9836 37.6295 32.8508 40.6756 28.9579 39.9747C25.0642 39.2741 18.1439 36.5057 13.4139 29.4121C8.63702 22.2489 6.97357 15.9777 6.97357 15.9777C4.95108 9.4594 10.1427 5.9878 10.1427 5.9878C14.2287 3.41192 16.1409 6.15502 16.1409 6.15502C16.1407 6.15502 17.2269 11.2828 17.6075 13.2246L17.6078 13.2245Z" fill="white"/>
</svg>
