<svg width="54" height="46" viewBox="0 0 54 46" fill="none" xmlns="http://www.w3.org/2000/svg">
<path fill-rule="evenodd" clip-rule="evenodd" d="M41.6148 32.878C46.5321 31.806 49.6165 28.8895 53.7913 26.457C54.054 26.3038 53.971 26.3824 53.9947 25.9423C54.1168 23.6852 52.0921 21.8085 50.0852 23.3887C49.6182 23.7564 50.268 23.2309 49.5141 22.8353C48.9854 22.558 49.0187 22.69 48.5858 22.9747C46.3716 24.4316 44.0166 25.2663 41.9725 27.0543C41.7871 27.1337 41.7739 27.2925 41.9327 27.5177C42.1313 27.7823 42.2107 27.9809 42.1577 28.0999C40.6468 29.1877 39.4496 30.588 37.4326 30.588C33.6844 30.5309 31.6957 27.2527 31.2649 23.878C30.9178 20.5609 31.9989 16.9186 35.487 15.8176C36.6741 17.6713 37.5287 19.9234 38.9811 21.5883C41.0375 20.0371 43.5196 18.9646 45.6916 17.5648C40.2383 7.99561 36.89 2.30458 35.646 0.504395C33.8912 0.559324 29.2719 2.37366 29.1342 4.36909C29.1385 5.78406 32.6518 10.7771 33.4825 12.3758C33.7677 12.9248 33.6751 12.796 33.0558 13.1069C32.0536 13.5909 31.3074 13.7771 31.3134 15.0196C31.3199 16.4209 31.3532 16.7783 30.8991 18.1522C30.192 20.2916 29.6118 21.0889 29.968 23.5072C30.5271 26.9459 33.4513 30.9986 35.5165 33.6902C36.423 35.0958 36.9615 36.639 37.1212 38.3042C38.5702 38.3044 40.019 38.3087 41.468 38.303C41.5107 36.4359 41.2088 34.7357 41.6148 32.878ZM8.68814 18.8761C8.66919 18.8723 8.2643 19.1548 7.46771 19.7271C6.42957 20.5007 5.75675 19.7425 7.85797 18.4693C8.72148 17.9346 9.1175 17.4676 9.03666 17.0668C8.28229 15.5394 2.28159 19.6293 2.90452 20.7293C3.24873 21.3695 4.04436 21.1457 4.4965 20.7449C6.21394 23.3697 8.10119 25.896 9.77785 28.5465C7.58308 32.0195 7.31995 35.1536 8.97934 37.9468C9.4593 38.7359 10.0299 39.4162 10.6663 39.9842C10.8316 40.5973 11.1252 41.1574 11.5524 41.64C10.3883 40.9489 9.366 39.9926 8.59555 38.811C6.55742 35.6779 6.64521 32.2239 8.85485 28.4429C7.32763 26.3352 5.96807 24.1083 4.47684 21.9756C4.14318 21.8747 3.79586 21.8938 3.46293 21.8756C3.70399 22.4002 4.07362 23.1126 4.57374 24.0193C5.72749 26.0037 5.51689 28.907 2.75005 28.9358C-0.730147 29.0804 -0.355958 25.5746 0.878145 23.3748C1.46509 22.3239 1.89925 21.5281 2.18061 20.9893C1.59822 18.8891 7.5495 15.3741 8.78864 15.9452C9.81215 16.4955 10.1818 17.5614 9.41013 18.5115C10.7402 20.4758 12.0611 22.464 13.401 24.4189C13.46 24.505 13.8678 25.0785 13.9258 25.1018C13.9443 25.1092 15.804 24.9101 16.0582 24.9063C16.3986 24.9013 16.7111 24.9195 17.0496 24.949C16.8896 26.0845 17.0664 25.7394 15.9088 25.778C15.6399 25.7868 13.6128 26.0411 13.6039 26.0378C13.4267 25.9718 9.17435 19.5943 8.68814 18.8761ZM29.4753 31.4244C28.162 29.3983 27.0738 27.6165 26.808 25.1572C26.5379 22.7115 26.7492 20.2486 26.8046 17.7977C26.809 17.5979 26.8872 16.9239 26.6461 16.8517C26.0054 16.66 25.2894 17.6207 25.0654 18.1407C23.5216 21.9279 26.1757 30.9058 28.9699 33.8386C29.0985 33.9734 29.222 34.0893 29.3587 34.2152C31.4503 36.0768 32.0963 38.8887 30.339 41.2296C33.8454 40.8484 33.5875 38.5731 32.3158 35.9917C31.5067 34.3495 30.4655 32.9447 29.4753 31.4244ZM33.5755 34.983C35.3964 37.9408 35.7192 42.1811 31.3578 42.7717C28.5489 43.1519 25.5151 42.6477 22.6665 42.6352C18.1136 42.6352 15.5835 42.5939 15.076 42.5117C10.9803 41.8451 10.5195 38.592 12.2787 35.4426C13.9536 32.4942 17.1052 28.8221 17.7663 25.5827C18.3401 22.772 18.6384 18.69 17.3456 16.0584C16.1822 13.7881 21.5559 14.3863 22.607 14.4165C23.803 14.4451 27.9474 14.2055 28.724 14.6734C29.5216 15.1539 28.5372 16.601 28.3563 17.3887C27.8771 19.4767 28.1107 23.1747 28.3508 25.315C28.6125 27.3431 32.0524 32.6966 33.5755 34.983ZM11.5687 35.0451C10.8781 36.2793 10.5135 37.5266 10.5046 38.6697C10.2034 38.3215 9.9256 37.9408 9.67614 37.5268C7.94336 34.6515 8.7637 31.6741 10.4655 28.9811C10.6373 28.7091 10.6373 28.3834 10.4653 28.1116C9.20889 26.1253 6.93713 22.897 5.60684 20.9605C6.02348 21.0853 9.96446 22.2577 10.0038 22.287C10.0981 22.3565 12.5404 26.0589 12.8898 26.5343C13.3461 27.155 14.0326 26.8216 14.6615 26.713C15.3199 26.5993 15.892 26.517 16.5543 26.6499C16.2218 28.2795 12.7841 32.913 11.7438 34.7379L11.5687 35.0451ZM44.368 21.6278C45.4361 20.8226 45.5741 19.0114 42.859 20.6617C39.4664 22.6257 42.4237 23.0963 44.368 21.6278ZM32.6218 45.7621C34.901 45.786 37.4549 45.5963 39.7417 45.4838C40.93 45.4255 48.9487 45.1377 49.3937 44.877C49.8081 44.6342 49.9746 43.6726 49.9976 43.2305C50.0223 42.7542 50.0451 39.3618 49.5062 39.1874C49.1867 39.084 42.1625 38.9286 41.2555 38.9156C39.8871 38.8962 38.5189 38.8873 37.1505 38.8861C37.0651 42.1826 34.4482 43.4879 32.032 45.0497C30.8464 45.816 31.8293 45.752 32.6218 45.7621Z" fill="#1A4B80"/>
</svg>
