<svg width="234" height="195" viewBox="0 0 234 195" fill="none" xmlns="http://www.w3.org/2000/svg">
<path d="M203.602 138.061C163.442 191.707 91.4104 205.089 48.6674 178.638C5.91795 152.194 2.33591 86.5233 31.9252 67.5823C61.5144 48.6477 109.066 80.7033 138.479 31.2204C167.892 -18.269 287.691 25.7201 203.602 138.061Z" fill="#C7EBFF"/>
<path d="M0.00652465 110.671C0.00652465 110.671 15.1241 116.308 22.9276 121.443C35.7877 129.906 36.4923 148.201 46.7165 144.449C56.9406 140.697 44.4002 117.9 36.4271 112.446C15.6787 98.2351 0 110.671 0 110.671H0.00652465Z" fill="#EAB868"/>
<path d="M36.4335 112.446C35.4939 111.8 34.5674 111.213 33.6475 110.677C40.8246 123.962 38.8868 139.738 45.4962 144.795C45.8877 144.71 46.2922 144.606 46.7163 144.456C56.9404 140.704 44.4001 117.907 36.427 112.452L36.4335 112.446Z" fill="#D3963D"/>
<path d="M49.4046 153.225C49.4046 153.225 49.3459 153.244 49.3132 153.251C48.863 153.355 48.4063 153.068 48.3084 152.618C48.2823 152.514 45.9335 142.322 40.3549 132.196C32.9494 118.768 23.6844 111.813 12.8144 111.532C12.3511 111.519 11.9857 111.134 11.9923 110.671C12.0053 110.208 12.3903 109.836 12.8535 109.849C24.2129 110.142 34.2348 117.594 41.8425 131.413C47.532 141.748 49.9266 152.135 49.9461 152.239C50.044 152.664 49.8026 153.081 49.3981 153.218L49.4046 153.225Z" fill="#FFE1B6"/>
<path d="M16.7552 110.945L8.84082 114.26C9.36279 114.488 9.89781 114.716 10.4394 114.958L18.5169 111.578L15.3785 105.647C14.9087 105.66 14.4455 105.686 13.9888 105.725L16.7552 110.945Z" fill="#FFE1B6"/>
<path d="M29.5108 116.882L25.1719 106.945C24.6434 106.789 24.1214 106.645 23.6125 106.521L27.8078 116.132L19.0518 119.146C19.5542 119.42 20.05 119.695 20.5329 119.975L29.5108 116.882Z" fill="#FFE1B6"/>
<path d="M41.6533 132.476L44.7003 121.985C44.4002 121.508 44.1001 121.045 43.7934 120.588L40.6681 131.348L32.8516 132.509C33.093 132.9 33.3279 133.292 33.5562 133.677L41.6533 132.476Z" fill="#FFE1B6"/>
<path d="M36.6618 112.609C36.5835 112.557 36.5052 112.498 36.4335 112.446C36.0811 112.204 35.7353 111.976 35.3895 111.754L35.5592 123.772L28.356 126.252C28.6561 126.591 28.9432 126.937 29.2237 127.289L36.8315 124.673L36.6618 112.615V112.609Z" fill="#FFE1B6"/>
<path d="M49.6914 132.711C49.5152 132.111 49.3195 131.504 49.0977 130.891L45.0328 140.326L36.8574 139.236C37.1641 139.725 37.4773 140.188 37.7904 140.632L45.8158 141.696L49.6914 132.698V132.711Z" fill="#FFE1B6"/>
<path d="M50.7881 88.6307C50.7881 88.6307 58.1479 102.991 60.4446 112.048C64.2289 126.97 52.4127 140.952 62.4868 145.082C72.5674 149.212 78.6875 123.923 76.4821 114.514C70.747 90.027 50.7881 88.6307 50.7881 88.6307Z" fill="#EAB868"/>
<path d="M58.5522 153.368C58.5522 153.368 58.4934 153.342 58.4673 153.329C58.0628 153.101 57.9193 152.585 58.1542 152.181C58.2063 152.089 63.3478 142.981 66.0555 131.739C69.6506 116.83 67.4974 105.445 59.6613 97.9087C59.3286 97.589 59.3155 97.054 59.6352 96.7212C59.955 96.3884 60.49 96.3754 60.8227 96.6951C69.0112 104.57 71.3796 116.837 67.6736 132.17C64.9072 143.633 59.6613 152.918 59.6091 153.016C59.3938 153.394 58.9306 153.538 58.5456 153.375L58.5522 153.368Z" fill="#FFE1B6"/>
<path d="M62.9628 100.134L54.8853 97.2432C55.1201 97.7652 55.355 98.2937 55.5899 98.8353L63.8371 101.784L65.5204 95.2859C65.1616 94.9792 64.8027 94.6856 64.4439 94.405L62.9628 100.127V100.134Z" fill="#FFE1B6"/>
<path d="M68.3782 113.124L71.882 102.861C71.6014 102.391 71.3078 101.934 71.0142 101.497L67.6279 111.421L59.1328 107.741C59.322 108.283 59.4982 108.824 59.6678 109.346L68.3848 113.118L68.3782 113.124Z" fill="#FFE1B6"/>
<path d="M66.8252 132.822L76.1489 127.133C76.2468 126.585 76.3381 126.03 76.4229 125.489L66.8578 131.322L60.3071 126.904C60.2222 127.355 60.1309 127.805 60.0396 128.248L66.8252 132.822Z" fill="#FFE1B6"/>
<path d="M76.5404 114.788C76.5208 114.697 76.5012 114.599 76.4817 114.514C76.3838 114.103 76.2859 113.698 76.1815 113.3L68.2019 122.285L61.214 119.257C61.2009 119.708 61.1879 120.158 61.1553 120.608L68.5412 123.805L76.5469 114.788H76.5404Z" fill="#FFE1B6"/>
<path d="M72.5997 138.42C72.8737 137.859 73.1412 137.278 73.3892 136.678L64.0263 140.906L58.7217 134.59C58.6239 135.158 58.5325 135.713 58.4673 136.248L63.674 142.446L72.5997 138.414V138.42Z" fill="#FFE1B6"/>
<path d="M7.93408 79.8877C7.93408 79.8877 25.0156 93.9418 32.8387 104.081C45.7248 120.791 38.4825 144.814 53.4109 144.521C68.3392 144.227 62.2583 109.072 54.3635 98.4438C33.8108 70.7598 7.93408 79.8877 7.93408 79.8877Z" fill="#EAB868"/>
<path d="M52.9737 157.094C52.9345 157.094 52.8888 157.094 52.8497 157.087C52.2168 157.016 51.7601 156.448 51.8253 155.815C51.8384 155.671 53.3456 141.415 50.6248 125.795C47.0232 105.079 38.1105 91.9322 24.1478 86.719C23.554 86.4971 23.2474 85.8316 23.4692 85.2379C23.6911 84.6376 24.3566 84.3375 24.9503 84.5593C39.5394 90.0074 49.2089 104.146 52.9019 125.449C55.6683 141.382 54.1285 155.919 54.109 156.063C54.0437 156.65 53.5478 157.094 52.9671 157.094H52.9737Z" fill="#FFE1B6"/>
<path d="M39.5788 153.558L43.4675 186.253C43.7741 188.804 45.34 190.676 47.1865 190.676H64.4507C66.2907 190.676 67.8631 188.804 68.1698 186.253L72.0584 153.558C72.326 151.293 71.0863 149.232 69.4551 149.232H42.1886C40.5575 149.232 39.3113 151.293 39.5853 153.558H39.5788Z" fill="#C54453"/>
<path d="M71.9996 151.972C71.6995 150.413 70.6882 149.232 69.4485 149.232H42.182C40.9488 149.232 39.9375 150.413 39.6309 151.972H71.9931H71.9996Z" fill="#AA3949"/>
<path d="M43.8652 187.871C44.5046 189.554 45.7639 190.67 47.1863 190.67H64.4505C65.8729 190.67 67.1321 189.554 67.7715 187.871H43.8652Z" fill="#AA3949"/>
<path d="M69.4484 149.225H62.5127V165.126C62.5127 167.599 64.5223 169.608 66.9951 169.608H70.14L72.0517 153.551C72.3192 151.287 71.0796 149.225 69.4484 149.225Z" fill="#AA3949"/>
<path d="M29.5176 87.7173L17.7798 88.4807C18.354 89.0092 18.9412 89.5442 19.5349 90.0988L31.5142 89.3223L30.0918 80.2335C29.472 80.0443 28.8652 79.8681 28.2584 79.7115L29.5111 87.7173H29.5176Z" fill="#FFE1B6"/>
<path d="M43.4087 101.106L42.2212 86.2883C41.6079 85.8512 40.9946 85.4336 40.3878 85.0421L41.5361 99.3768H28.8457C29.3807 99.9575 29.8962 100.538 30.392 101.106H43.4087Z" fill="#FFE1B6"/>
<path d="M52.1844 126.735L60.8165 114.494C60.6404 113.744 60.4577 113.007 60.2619 112.276L51.408 124.83L40.7598 122.846C40.8968 123.459 41.0273 124.073 41.1512 124.679L52.1779 126.735H52.1844Z" fill="#FFE1B6"/>
<path d="M54.5853 98.757C54.507 98.6526 54.4352 98.5417 54.3569 98.4439C54.0111 97.9806 53.6653 97.5239 53.313 97.0802L48.165 112.733H37.7256C37.9605 113.307 38.1823 113.888 38.3911 114.462H49.4243L54.5853 98.757Z" fill="#FFE1B6"/>
<path d="M62.4995 130.63C62.5386 129.775 62.5582 128.901 62.5452 128.007L53.0649 138.427L42.9517 133.37C43.1344 134.14 43.3301 134.884 43.5389 135.595L53.4629 140.56L62.4995 130.63Z" fill="#FFE1B6"/>
<path d="M155.293 53.7369C154.752 53.5803 154.184 53.8478 153.956 54.3633C152.977 56.6208 152.572 58.2063 153.329 58.2911C154.282 58.3955 155.032 56.7644 155.854 55.1723C156.174 54.546 156.03 53.9457 155.352 53.75L155.287 53.7304L155.293 53.7369Z" fill="#F0C9A5"/>
<path d="M183.923 33.2365C183.923 33.2365 181.94 37.4775 178.938 36.7925C175.944 36.1139 174.821 31.899 176.244 29.9416C177.666 27.9842 182.207 28.193 182.207 28.193L183.93 33.2365H183.923Z" fill="#D69D6F"/>
<path d="M212.834 194.076H32.3165C31.377 194.076 30.6201 193.312 30.6201 192.379C30.6201 191.44 31.3835 190.683 32.3165 190.683H212.834C213.773 190.683 214.53 191.446 214.53 192.379C214.53 193.319 213.767 194.076 212.834 194.076Z" fill="#90B9BA"/>
<path d="M190.676 179.48C193.547 180.915 196.842 180.047 199.537 178.044H199.674C199.778 179.31 199.98 180.25 200.365 180.7C202.629 183.342 202.101 185.104 203.086 187.355C204.071 189.606 203.869 191.146 202.049 190.826C200.222 190.507 192.464 191.035 190.65 191.1C188.843 191.159 190.187 185.77 190.115 183.499C190.07 182.064 190.415 180.7 190.67 179.486L190.676 179.48Z" fill="#6D74CA"/>
<path d="M160.134 186.142C161.165 183.91 163.012 184.125 166.509 182.409C167.207 182.07 167.814 180.648 168.329 178.619C171.148 180.243 174.697 180.172 177.34 178.038H177.431C177.072 179.565 176.844 181.405 176.753 183.16C176.635 185.424 177.868 190.846 176.061 190.748C174.254 190.65 163.234 190.728 161.4 191.002C159.573 191.283 159.11 188.366 160.141 186.135L160.134 186.142Z" fill="#6D74CA"/>
<path d="M201.559 182.442C201.279 181.894 200.9 181.32 200.365 180.693C199.98 180.243 199.772 179.304 199.674 178.038H199.537C196.842 180.048 193.554 180.909 190.676 179.473C190.487 180.387 190.246 181.385 190.154 182.436H201.559V182.442Z" fill="#505AB4"/>
<path d="M176.798 182.442C176.909 180.909 177.111 179.362 177.425 178.038H177.333C174.697 180.172 171.148 180.243 168.323 178.619C167.807 180.654 167.2 182.07 166.502 182.409C166.483 182.423 166.457 182.429 166.437 182.442H176.792H176.798Z" fill="#505AB4"/>
<path d="M169.497 100.943C169.497 100.943 169.204 133.318 168.512 143.881C167.82 154.445 167.84 179.493 167.84 179.493C167.84 179.493 174.345 181.868 177.842 180.596C177.842 180.596 184.491 157.877 183.91 147.979C183.329 138.081 185.404 120.06 185.404 120.06C185.404 120.06 186.559 140.802 186.97 145.206C187.381 149.61 189.6 179.715 189.6 179.715C189.6 179.715 200.15 181.633 201.768 178.867C201.768 178.867 202.114 152.938 202.127 143.894C202.14 134.851 201.037 100.943 201.037 100.943H169.491H169.497Z" fill="#4B341F"/>
<path d="M181.222 167.435C182.762 160.643 184.197 152.788 183.91 147.972C183.329 138.081 185.404 120.053 185.404 120.053C185.404 120.053 186.559 140.795 186.97 145.199C187.205 147.711 188.027 158.562 188.686 167.435H201.912C202.009 159.299 202.12 148.951 202.127 143.888C202.14 134.845 201.037 100.936 201.037 100.936H169.491C169.491 100.936 169.197 133.312 168.505 143.875C168.134 149.578 167.964 159.508 167.892 167.435H181.215H181.222Z" fill="#3A2616"/>
<path d="M201.194 105.608C201.103 102.737 201.044 100.936 201.044 100.936H169.498C169.498 100.936 169.484 102.731 169.445 105.608H201.188H201.194Z" fill="#3A2413"/>
<path d="M167.86 61.2142L206.779 61.9906C206.779 61.9906 207.816 60.4508 205.937 55.6878C204.058 50.9248 198.369 50.8596 195.446 47.6364C194.395 46.475 193.991 46.2336 193.736 44.8112C193.299 42.2927 193.756 39.9699 193.756 39.9699L185.737 37.856C185.737 37.856 185.809 41.6663 184.445 44.9156C183.825 46.3837 182.794 46.5142 181.437 47.3363C179.421 48.5564 172.779 50.8465 169.882 52.7778C166.992 54.7026 167.853 61.2077 167.853 61.2077L167.86 61.2142Z" fill="#F0C9A5"/>
<path d="M167.859 61.2142L206.779 61.9906C206.779 61.9906 207.816 60.4508 205.937 55.6878C204.058 50.9248 198.369 50.8596 195.446 47.6364C194.395 46.475 193.991 46.2336 193.736 44.8112C193.299 42.2927 193.756 39.9699 193.756 39.9699L185.737 37.856C185.737 37.856 185.809 41.6663 184.445 44.9156C183.825 46.3837 182.794 46.5142 181.437 47.3363C179.421 48.5564 172.394 51.6882 169.497 53.6195C166.607 55.5443 167.859 61.2077 167.859 61.2077V61.2142Z" fill="#F0C9A5"/>
<path d="M177.438 23.4626C179.167 17.3686 187.656 16.4812 187.656 16.4812C187.656 16.4812 194.376 14.9479 199.524 20.2068C200.979 21.6944 202.714 22.6927 202.519 29.2173C203.302 35.3048 198.48 38.13 192.693 41.0726C185.953 44.4915 180.948 40.0482 181.32 39.9765C182.136 39.8199 174.319 34.4501 177.438 23.4626Z" fill="#4B341F"/>
<path d="M184.445 44.9156C185.202 45.3201 183.969 44.8765 184.843 45.0526C186.879 45.4767 191.512 45.803 193.736 44.8112C193.299 42.2927 193.756 39.9699 193.756 39.9699L185.737 37.856C185.737 37.856 185.809 41.6663 184.445 44.9156Z" fill="#D69D6F"/>
<path d="M194.774 31.227C194.774 31.227 197.162 27.2013 200.078 28.1669C202.995 29.1326 203.706 33.4323 202.101 35.2462C200.496 37.0535 196.001 36.4141 196.001 36.4141L194.774 31.2335V31.227Z" fill="#F0C9A5"/>
<path d="M179.963 20.8136C179.963 20.8136 177.705 34.163 179.304 37.9277C180.902 41.699 183.212 43.415 186.135 43.8652C189.952 44.4524 195.387 41.849 197.508 38.0843C199.628 34.3196 199.974 21.8053 199.974 21.8053C199.974 21.8053 192.679 17.8775 189.645 17.7405C186.611 17.6035 179.963 20.8136 179.963 20.8136Z" fill="#F0C9A5"/>
<path d="M192.092 36.5772C192.249 37.3927 193.032 37.9278 193.847 37.7712C194.663 37.6146 195.198 36.8316 195.041 36.016C194.885 35.2005 194.102 34.6654 193.286 34.822C192.471 34.9786 191.936 35.7616 192.092 36.5772Z" fill="#DC8070"/>
<path d="M180.641 37.0273C180.798 37.8429 181.581 38.3779 182.397 38.2214C183.212 38.0648 183.747 37.2818 183.591 36.4662C183.434 35.6506 182.651 35.1156 181.835 35.2722C181.02 35.4288 180.485 36.2118 180.641 37.0273Z" fill="#DC8070"/>
<path d="M198.336 19.8806C198.336 19.8806 194.115 24.6697 189.691 25.9289C186.285 26.9011 181.49 27.3513 178.404 27.5535C176.629 27.671 175.246 26.0007 175.729 24.2912C176.557 21.3421 179.037 17.1989 186.233 14.9023C196.059 11.7639 198.336 19.8806 198.336 19.8806Z" fill="#4B341F"/>
<path d="M193.005 20.1089C193.005 20.1089 192.366 23.6062 193.443 26.5161C195.654 32.5319 197.775 32.9625 198.075 33.1648C198.075 33.1648 203.021 26.7771 201.618 22.112C200.156 17.2446 193.012 20.1089 193.012 20.1089H193.005Z" fill="#4B341F"/>
<path d="M186.148 30.0655C186.168 29.6479 186.814 29.7001 186.801 30.1177C186.736 31.6902 184.537 36.1987 187.114 36.5119C187.532 36.5641 187.479 37.2165 187.062 37.1643C183.63 36.7402 186.07 32.036 186.148 30.0655Z" fill="#D69D6F"/>
<path d="M181.699 31.4096C181.646 31.9316 181.907 32.3883 182.279 32.4275C182.645 32.4601 182.984 32.0621 183.036 31.5336C183.088 31.0051 182.827 30.5549 182.455 30.5223C182.09 30.4896 181.751 30.8876 181.699 31.4096Z" fill="#4B341F"/>
<path d="M190.48 31.4095C190.428 31.938 190.689 32.3882 191.061 32.4209C191.426 32.4535 191.766 32.0555 191.818 31.527C191.87 31.005 191.609 30.5483 191.244 30.5157C190.872 30.483 190.532 30.881 190.487 31.403L190.48 31.4095Z" fill="#4B341F"/>
<path d="M191.4 28.9954C190.8 28.754 190.135 28.865 189.515 28.9628C188.543 29.1194 188.399 27.5927 189.371 27.4426C190.272 27.299 191.166 27.2534 192.02 27.5992C192.94 27.9711 192.314 29.3674 191.4 28.9954Z" fill="#4B341F"/>
<path d="M183.395 29.1324C182.768 28.9693 182.122 29.165 181.522 29.3477C180.576 29.6283 180.237 28.1342 181.183 27.8536C182.057 27.5926 182.931 27.4295 183.832 27.6644C184.791 27.9123 184.354 29.3804 183.401 29.1324H183.395Z" fill="#4B341F"/>
<path d="M199.223 34.0455C199.4 33.7715 199.863 33.7258 199.954 33.3931C200.026 33.1321 199.758 32.8385 199.719 32.5905C199.661 32.2251 199.706 31.8793 199.869 31.5466C200.47 30.3591 202.075 30.868 202.538 31.8663C202.76 32.3426 202.009 32.6492 201.788 32.1795C201.618 31.8206 201.298 31.6314 200.907 31.6836C200.339 31.7619 200.515 32.4861 200.672 32.8189C200.828 33.1582 200.796 33.5562 200.626 33.8824C200.489 34.1499 199.83 34.4174 199.876 34.6719C199.974 35.1873 199.171 35.2917 199.073 34.7828C199.021 34.5022 199.067 34.2869 199.223 34.0455Z" fill="#D69D6F"/>
<path d="M173.575 52.5298C168.408 51.1727 167.285 56.2489 165.961 59.6026C164.63 62.9627 165.602 63.2955 164.936 69.4352C164.675 71.8558 162.953 82.3997 163.351 89.1266H170.104C172.231 83.4306 173.764 75.5684 173.764 75.5684L178.449 55.0288C178.449 55.0288 176.909 53.4107 173.575 52.5298Z" fill="#F0C9A5"/>
<path d="M164.78 70.701H174.88L178.455 55.0354C178.455 55.0354 176.916 53.4173 173.582 52.5364C168.414 51.1793 167.292 56.2555 165.967 59.6092C164.636 62.9693 165.608 63.3021 164.943 69.4418C164.91 69.7419 164.858 70.1726 164.786 70.7076L164.78 70.701Z" fill="#D69D6F"/>
<path d="M184.785 39.6371C184.785 39.6371 188.288 42.782 191.818 38.9194" stroke="#D69D6F" stroke-width="0.70788" stroke-miterlimit="10" stroke-linecap="round"/>
<path d="M209.787 78.2369C212.077 78.9938 214.185 80.116 216.07 81.5254C217.297 80.0051 217.969 78.4001 217.46 76.795C215.809 71.6144 208.998 57.8605 208.998 57.8605L201.22 67.5822L209.95 78.1064C209.95 78.1064 209.885 78.1521 209.794 78.2304L209.787 78.2369Z" fill="#F0C9A5"/>
<path d="M170.039 51.9883C172.955 50.8791 178.071 49.0326 180.661 47.7538C185.124 50.9639 192.118 51.7534 195.909 48.08C198.93 50.8595 207.112 50.2201 208.893 54.7482C210.779 59.5112 213.695 65.155 213.695 65.155L202.133 70.9359L200.672 68.8023L200.705 73.9046L202.205 102.052L168.688 101.223L171.135 68.0389L164.428 67.7649C164.428 67.7649 164.036 54.285 170.045 51.9883H170.039Z" fill="#6D74CA"/>
<path d="M186.886 48.3932L188.302 50.4876L189.652 48.5041L191.962 50.7486L188.302 51.8056L183.395 49.4371L186.886 48.3932Z" fill="#343D70"/>
<path d="M208.893 54.7483C207.379 50.9183 203.256 50.6182 198.943 49.646C192.386 55.0354 200.672 68.7958 200.672 68.7958L202.133 70.9294L213.695 65.1486C213.695 65.1486 210.779 59.5047 208.893 54.7417V54.7483Z" fill="#6D74CA"/>
<path d="M206.225 62.232C206.225 59.1524 203.726 56.6534 200.646 56.6534H196.451C196.836 62.4212 200.666 68.7958 200.666 68.7958L202.127 70.9294L206.218 68.8806V62.2255L206.225 62.232Z" fill="#505AB4"/>
<path d="M200.411 70.055L214.054 63.3151L215.672 66.1337L202.134 72.5279L200.411 70.055Z" fill="#949EEA"/>
<path d="M173.334 50.7487C173.334 50.7487 172.166 51.1793 170.039 51.9883C164.029 54.2785 163.99 69.1416 163.99 69.1416H170.985C170.985 69.1416 174.488 58.5521 173.334 50.7487Z" fill="#6D74CA"/>
<path d="M198.597 55.6617H69.0374C66.2375 55.6617 63.9678 57.9315 63.9678 60.7314V158.614C63.9678 161.414 66.2375 163.684 69.0374 163.684H198.597C201.397 163.684 203.667 161.414 203.667 158.614V60.7314C203.667 57.9315 201.397 55.6617 198.597 55.6617Z" fill="white"/>
<path d="M203.667 158.105V61.2403C203.667 59.694 203.041 58.2977 202.023 57.2864L65.4424 161.87C66.4602 162.979 67.9217 163.684 69.5529 163.684H198.095C201.175 163.684 203.674 161.185 203.674 158.105H203.667Z" fill="#AEC1BF"/>
<path d="M195.622 57.9648H72.0189C69.219 57.9648 66.9492 60.2346 66.9492 63.0345V155.241C66.9492 158.041 69.219 160.31 72.0189 160.31H195.622C198.422 160.31 200.691 158.041 200.691 155.241V63.0345C200.691 60.2346 198.422 57.9648 195.622 57.9648Z" fill="#E1F1F1"/>
<path d="M115.741 73.5001H100.623C99.5096 73.5001 98.6069 74.4028 98.6069 75.5162V90.6338C98.6069 91.7473 99.5096 92.65 100.623 92.65H115.741C116.854 92.65 117.757 91.7473 117.757 90.6338V75.5162C117.757 74.4028 116.854 73.5001 115.741 73.5001Z" fill="#AEC1BF"/>
<path d="M142.87 73.5001H127.752C126.639 73.5001 125.736 74.4028 125.736 75.5162V90.6338C125.736 91.7473 126.639 92.65 127.752 92.65H142.87C143.984 92.65 144.886 91.7473 144.886 90.6338V75.5162C144.886 74.4028 143.984 73.5001 142.87 73.5001Z" fill="#AEC1BF"/>
<path d="M154.889 73.5001H170C171.115 73.5001 172.016 74.407 172.016 75.5162V90.6273C172.016 91.743 171.109 92.6434 170 92.6434H154.889C153.773 92.6434 152.873 91.7365 152.873 90.6273V75.5162C152.873 74.4005 153.779 73.5001 154.889 73.5001Z" fill="#AEC1BF"/>
<path d="M182.018 73.5001H197.129C198.245 73.5001 199.145 74.407 199.145 75.5162V90.6273C199.145 91.743 198.238 92.6434 197.129 92.6434H182.018C180.902 92.6434 180.002 91.7365 180.002 90.6273V75.5162C180.002 74.4005 180.909 73.5001 182.018 73.5001Z" fill="#AEC1BF"/>
<path d="M73.4937 97.7456H88.6047C89.7204 97.7456 90.6209 98.6525 90.6209 99.7617V114.873C90.6209 115.989 89.7139 116.889 88.6047 116.889H73.4937C72.3779 116.889 71.4775 115.982 71.4775 114.873V99.7617C71.4775 98.646 72.3845 97.7456 73.4937 97.7456Z" fill="#AEC1BF"/>
<path d="M115.741 97.7456H100.623C99.5096 97.7456 98.6069 98.6482 98.6069 99.7617V114.879C98.6069 115.993 99.5096 116.895 100.623 116.895H115.741C116.854 116.895 117.757 115.993 117.757 114.879V99.7617C117.757 98.6482 116.854 97.7456 115.741 97.7456Z" fill="#AEC1BF"/>
<path d="M142.87 97.7456H127.752C126.639 97.7456 125.736 98.6482 125.736 99.7617V114.879C125.736 115.993 126.639 116.895 127.752 116.895H142.87C143.984 116.895 144.886 115.993 144.886 114.879V99.7617C144.886 98.6482 143.984 97.7456 142.87 97.7456Z" fill="#AEC1BF"/>
<path d="M154.889 97.7456H170C171.115 97.7456 172.016 98.6525 172.016 99.7617V114.873C172.016 115.989 171.109 116.889 170 116.889H154.889C153.773 116.889 152.873 115.982 152.873 114.873V99.7617C152.873 98.646 153.779 97.7456 154.889 97.7456Z" fill="#AEC1BF"/>
<path d="M182.018 97.7456H197.129C198.245 97.7456 199.145 98.6525 199.145 99.7617V114.873C199.145 115.989 198.238 116.889 197.129 116.889H182.018C180.902 116.889 180.002 115.982 180.002 114.873V99.7617C180.002 98.646 180.909 97.7456 182.018 97.7456Z" fill="#AEC1BF"/>
<path d="M88.6049 121.991H73.4873C72.3738 121.991 71.4712 122.894 71.4712 124.007V139.125C71.4712 140.238 72.3738 141.141 73.4873 141.141H88.6049C89.7184 141.141 90.621 140.238 90.621 139.125V124.007C90.621 122.894 89.7184 121.991 88.6049 121.991Z" fill="#AEC1BF"/>
<path d="M115.741 121.991H100.623C99.5096 121.991 98.6069 122.894 98.6069 124.007V139.125C98.6069 140.238 99.5096 141.141 100.623 141.141H115.741C116.854 141.141 117.757 140.238 117.757 139.125V124.007C117.757 122.894 116.854 121.991 115.741 121.991Z" fill="#AEC1BF"/>
<path d="M142.871 121.991H127.753C126.639 121.991 125.737 122.894 125.737 124.007V139.125C125.737 140.238 126.639 141.141 127.753 141.141H142.871C143.984 141.141 144.887 140.238 144.887 139.125V124.007C144.887 122.894 143.984 121.991 142.871 121.991Z" fill="#AEC1BF"/>
<path d="M170.006 121.991H154.889C153.775 121.991 152.873 122.894 152.873 124.007V139.125C152.873 140.238 153.775 141.141 154.889 141.141H170.006C171.12 141.141 172.022 140.238 172.022 139.125V124.007C172.022 122.894 171.12 121.991 170.006 121.991Z" fill="#AEC1BF"/>
<path d="M172.159 22.3077C171.37 22.4056 171.044 23.3647 171.592 23.9388C173.236 25.6548 176.231 28.0363 179.859 27.5535C185.418 26.8162 179.676 18.3407 179.676 18.3407C179.676 18.3407 176.237 21.8118 172.159 22.3077Z" fill="#4B341F"/>
<path d="M182.364 45.4572L186.886 48.3932L182.488 51.5512L179.258 46.6055L182.364 45.4572Z" fill="#949EEA"/>
<path d="M189.652 48.5042L192.066 51.5512L198.023 47.7538L195.974 45.4572L189.652 48.5042Z" fill="#949EEA"/>
<path d="M167.507 32.2643L164.31 24.115V17.4468C164.31 14.8304 162.19 12.7164 159.58 12.7164H118.651C116.034 12.7164 113.92 14.8369 113.92 17.4468V25.7266C113.92 28.343 116.041 30.4569 118.651 30.4569H158.092L166.124 33.641C166.992 33.9868 167.853 33.1255 167.507 32.2577V32.2643Z" fill="#BFD8D7"/>
<path d="M128.014 21.2312C128.014 23.1559 126.454 24.7218 124.523 24.7218C122.592 24.7218 121.032 23.1625 121.032 21.2312C121.032 19.2999 122.598 17.7405 124.523 17.7405C126.448 17.7405 128.014 19.2999 128.014 21.2312Z" fill="white"/>
<path d="M142.218 21.2312C142.218 23.1559 140.652 24.7218 138.727 24.7218C136.802 24.7218 135.236 23.1625 135.236 21.2312C135.236 19.2999 136.802 17.7405 138.727 17.7405C140.652 17.7405 142.218 19.2999 142.218 21.2312Z" fill="white"/>
<path d="M156.422 21.2312C156.422 23.1559 154.856 24.7218 152.931 24.7218C151.006 24.7218 149.44 23.1625 149.44 21.2312C149.44 19.2999 151.006 17.7405 152.931 17.7405C154.856 17.7405 156.422 19.2999 156.422 21.2312Z" fill="white"/>
<path d="M77.1905 63.8446H76.4424C76.3982 63.6295 76.3208 63.4404 76.2102 63.2775C76.1016 63.1146 75.9688 62.9779 75.812 62.8673C75.6571 62.7547 75.4852 62.6702 75.2962 62.6139C75.1071 62.5576 74.91 62.5294 74.7049 62.5294C74.3309 62.5294 73.992 62.6239 73.6883 62.813C73.3867 63.002 73.1464 63.2805 72.9674 63.6486C72.7904 64.0166 72.7019 64.4681 72.7019 65.003C72.7019 65.5379 72.7904 65.9894 72.9674 66.3574C73.1464 66.7254 73.3867 67.004 73.6883 67.193C73.992 67.382 74.3309 67.4765 74.7049 67.4765C74.91 67.4765 75.1071 67.4484 75.2962 67.3921C75.4852 67.3358 75.6571 67.2523 75.812 67.1417C75.9688 67.0291 76.1016 66.8913 76.2102 66.7284C76.3208 66.5635 76.3982 66.3745 76.4424 66.1613H77.1905C77.1342 66.4771 77.0317 66.7596 76.8829 67.009C76.734 67.2583 76.549 67.4705 76.3278 67.6455C76.1066 67.8184 75.8582 67.9501 75.5827 68.0406C75.3092 68.1311 75.0166 68.1764 74.7049 68.1764C74.178 68.1764 73.7095 68.0477 73.2992 67.7903C72.889 67.5329 72.5662 67.1668 72.3309 66.6922C72.0956 66.2176 71.978 65.6546 71.978 65.003C71.978 64.3514 72.0956 63.7883 72.3309 63.3137C72.5662 62.8391 72.889 62.4731 73.2992 62.2157C73.7095 61.9583 74.178 61.8296 74.7049 61.8296C75.0166 61.8296 75.3092 61.8748 75.5827 61.9653C75.8582 62.0558 76.1066 62.1886 76.3278 62.3635C76.549 62.5365 76.734 62.7476 76.8829 62.997C77.0317 63.2443 77.1342 63.5269 77.1905 63.8446ZM78.6528 68.0919H77.8685L80.1369 61.9141H80.9092L83.1776 68.0919H82.3933L80.5472 62.8914H80.4989L78.6528 68.0919ZM78.9424 65.6787H82.1037V66.3423H78.9424V65.6787ZM84.1399 68.0919V61.9141H84.888V67.4283H87.7597V68.0919H84.1399ZM88.9181 68.0919V61.9141H92.6465V62.5777H89.6662V64.6651H92.4535V65.3288H89.6662V67.4283H92.6948V68.0919H88.9181ZM98.8938 61.9141V68.0919H98.1698L94.8033 63.2413H94.743V68.0919H93.9949V61.9141H94.7189L98.0974 66.7767H98.1577V61.9141H98.8938ZM74.1257 78.0919H72.2193V71.9141H74.2102C74.8095 71.9141 75.3223 72.0377 75.7486 72.2851C76.175 72.5304 76.5018 72.8834 76.729 73.3439C76.9563 73.8024 77.0699 74.3514 77.0699 74.9909C77.0699 75.6344 76.9553 76.1885 76.726 76.653C76.4967 77.1156 76.1629 77.4715 75.7245 77.7209C75.2861 77.9682 74.7532 78.0919 74.1257 78.0919ZM72.9674 77.4283H74.0775C74.5883 77.4283 75.0116 77.3297 75.3474 77.1327C75.6833 76.9356 75.9337 76.655 76.0986 76.291C76.2635 75.9271 76.3459 75.4937 76.3459 74.9909C76.3459 74.4922 76.2645 74.0628 76.1016 73.7029C75.9387 73.3409 75.6953 73.0634 75.3716 72.8703C75.0478 72.6752 74.6446 72.5777 74.1619 72.5777H72.9674V77.4283ZM78.2878 78.0919H77.5035L79.7719 71.9141H80.5442L82.8126 78.0919H82.0283L80.1822 72.8914H80.1339L78.2878 78.0919ZM78.5774 75.6787H81.7387V76.3423H78.5774V75.6787ZM83.7749 78.0919V71.9141H85.8623C86.345 71.9141 86.7411 71.9965 87.0508 72.1614C87.3605 72.3243 87.5898 72.5485 87.7386 72.8341C87.8874 73.1197 87.9618 73.4444 87.9618 73.8084C87.9618 74.1724 87.8874 74.4952 87.7386 74.7767C87.5898 75.0583 87.3615 75.2795 87.0539 75.4404C86.7462 75.5993 86.353 75.6787 85.8744 75.6787H84.1851V75.003H85.8503C86.1801 75.003 86.4455 74.9547 86.6466 74.8582C86.8497 74.7617 86.9965 74.6249 87.087 74.4479C87.1795 74.269 87.2258 74.0558 87.2258 73.8084C87.2258 73.5611 87.1795 73.3449 87.087 73.1599C86.9945 72.9749 86.8467 72.8321 86.6436 72.7315C86.4405 72.629 86.172 72.5777 85.8382 72.5777H84.523V78.0919H83.7749ZM86.6828 75.3167L88.2032 78.0919H87.3344L85.8382 75.3167H86.6828Z" fill="#6D74CA"/>
<path d="M114.782 72.5409H99.6641C98.5506 72.5409 97.6479 73.4435 97.6479 74.557V89.6746C97.6479 90.7881 98.5506 91.6907 99.6641 91.6907H114.782C115.895 91.6907 116.798 90.7881 116.798 89.6746V74.557C116.798 73.4435 115.895 72.5409 114.782 72.5409Z" fill="#6D74CA"/>
<path d="M141.918 72.5409H126.8C125.687 72.5409 124.784 73.4435 124.784 74.557V89.6746C124.784 90.7881 125.687 91.6907 126.8 91.6907H141.918C143.031 91.6907 143.934 90.7881 143.934 89.6746V74.557C143.934 73.4435 143.031 72.5409 141.918 72.5409Z" fill="#6D74CA"/>
<path d="M169.047 72.5409H153.93C152.816 72.5409 151.914 73.4435 151.914 74.557V89.6746C151.914 90.7881 152.816 91.6907 153.93 91.6907H169.047C170.161 91.6907 171.063 90.7881 171.063 89.6746V74.557C171.063 73.4435 170.161 72.5409 169.047 72.5409Z" fill="#6D74CA"/>
<path d="M181.065 72.5409H196.177C197.292 72.5409 198.193 73.4478 198.193 74.557V89.6681C198.193 90.7838 197.286 91.6842 196.177 91.6842H181.065C179.95 91.6842 179.049 90.7773 179.049 89.6681V74.557C179.049 73.4413 179.956 72.5409 181.065 72.5409Z" fill="#6D74CA"/>
<path d="M87.6523 96.7931H72.5347C71.4212 96.7931 70.5186 97.6957 70.5186 98.8092V113.927C70.5186 115.04 71.4212 115.943 72.5347 115.943H87.6523C88.7657 115.943 89.6684 115.04 89.6684 113.927V98.8092C89.6684 97.6957 88.7657 96.7931 87.6523 96.7931Z" fill="#6D74CA"/>
<path d="M99.6709 96.7931H114.782C115.898 96.7931 116.798 97.7 116.798 98.8092V113.92C116.798 115.036 115.891 115.936 114.782 115.936H99.6709C98.5552 115.936 97.6548 115.029 97.6548 113.92V98.8092C97.6548 97.6935 98.5617 96.7931 99.6709 96.7931Z" fill="#6D74CA"/>
<path d="M126.8 96.7931H141.911C143.027 96.7931 143.927 97.7 143.927 98.8092V113.92C143.927 115.036 143.021 115.936 141.911 115.936H126.8C125.685 115.936 124.784 115.029 124.784 113.92V98.8092C124.784 97.6935 125.691 96.7931 126.8 96.7931Z" fill="#6D74CA"/>
<path d="M169.047 96.7931H153.93C152.816 96.7931 151.914 97.6957 151.914 98.8092V113.927C151.914 115.04 152.816 115.943 153.93 115.943H169.047C170.161 115.943 171.063 115.04 171.063 113.927V98.8092C171.063 97.6957 170.161 96.7931 169.047 96.7931Z" fill="#6D74CA"/>
<path d="M181.065 96.7931H196.177C197.292 96.7931 198.193 97.7 198.193 98.8092V113.92C198.193 115.036 197.286 115.936 196.177 115.936H181.065C179.95 115.936 179.049 115.029 179.049 113.92V98.8092C179.049 97.6935 179.956 96.7931 181.065 96.7931Z" fill="#6D74CA"/>
<path d="M189.058 113.77C193.148 113.77 196.464 110.455 196.464 106.365C196.464 102.275 193.148 98.9592 189.058 98.9592C184.968 98.9592 181.653 102.275 181.653 106.365C181.653 110.455 184.968 113.77 189.058 113.77Z" fill="white"/>
<path d="M187.212 110.984C187.212 110.984 187.186 110.984 187.173 110.984C186.97 110.971 186.781 110.88 186.651 110.717L183.649 107.017C183.401 106.711 183.447 106.26 183.754 106.006C184.06 105.758 184.517 105.804 184.765 106.11L187.264 109.19L193.397 103.057C193.678 102.776 194.134 102.776 194.415 103.057C194.696 103.337 194.696 103.794 194.415 104.075L187.721 110.769C187.584 110.906 187.401 110.978 187.212 110.978V110.984Z" fill="#C54453"/>
<path d="M220.135 0C213.454 0 208.032 5.41546 208.032 12.1032C208.032 13.9823 208.462 15.7635 209.226 17.349L206.231 24.0694L213.76 22.3926C215.613 23.5409 217.793 24.2064 220.135 24.2064C226.816 24.2064 232.238 18.791 232.238 12.1032C232.238 5.41546 226.816 0 220.135 0Z" fill="#BFD8D7"/>
<path d="M217.147 18.5234C217.147 18.5234 217.114 18.5234 217.095 18.5234C216.808 18.5104 216.534 18.3734 216.351 18.145L212.064 12.8666C211.705 12.4294 211.777 11.7835 212.214 11.4246C212.658 11.0658 213.297 11.1375 213.656 11.5747L217.225 15.9723L225.981 7.21623C226.379 6.81822 227.032 6.81822 227.43 7.21623C227.828 7.61423 227.828 8.26669 227.43 8.6647L217.865 18.2298C217.675 18.4256 217.408 18.53 217.14 18.53L217.147 18.5234Z" fill="white"/>
<path d="M87.6523 121.039H72.5347C71.4212 121.039 70.5186 121.941 70.5186 123.055V138.172C70.5186 139.286 71.4212 140.189 72.5347 140.189H87.6523C88.7657 140.189 89.6684 139.286 89.6684 138.172V123.055C89.6684 121.941 88.7657 121.039 87.6523 121.039Z" fill="#6D74CA"/>
<path d="M114.782 121.039H99.6641C98.5506 121.039 97.6479 121.941 97.6479 123.055V138.172C97.6479 139.286 98.5506 140.189 99.6641 140.189H114.782C115.895 140.189 116.798 139.286 116.798 138.172V123.055C116.798 121.941 115.895 121.039 114.782 121.039Z" fill="#6D74CA"/>
<path d="M141.918 121.039H126.8C125.687 121.039 124.784 121.941 124.784 123.055V138.172C124.784 139.286 125.687 140.189 126.8 140.189H141.918C143.031 140.189 143.934 139.286 143.934 138.172V123.055C143.934 121.941 143.031 121.039 141.918 121.039Z" fill="#6D74CA"/>
<path d="M169.047 121.039H153.93C152.816 121.039 151.914 121.941 151.914 123.055V138.172C151.914 139.286 152.816 140.189 153.93 140.189H169.047C170.161 140.189 171.063 139.286 171.063 138.172V123.055C171.063 121.941 170.161 121.039 169.047 121.039Z" fill="#6D74CA"/>
<path d="M209.428 77.7671C209.428 77.7671 203.093 92.7543 200.77 96.4146C198.447 100.075 201.859 101.947 207.568 96.793C213.278 91.6385 218.843 79.5875 217.643 77.343C216.442 75.0986 211.268 73.1281 209.428 77.7671Z" fill="#F0C9A5"/>
<g style="mix-blend-mode:multiply">
<path d="M203.667 106.41V98.9201L201.26 97.2563C201.26 97.2563 199.106 98.5026 198.154 99.1354C197.808 99.3638 196.222 99.1485 194.709 99.4095C194.108 99.5139 193.932 100.858 194.52 101.021L195.44 101.276C195.707 101.354 195.981 101.406 196.262 101.426C196.829 101.458 198.095 101.726 198.095 101.726C198.095 101.726 190.396 109.268 191.238 109.921C192.334 110.762 196.823 105.862 197.136 105.484C196.816 105.882 195.446 107.996 196.607 108.583C197.501 109.033 199.42 106.306 199.42 106.306C199.42 106.306 197.501 108.994 199.198 108.766C200.307 108.622 201.658 106.495 201.658 106.495C201.658 106.495 200.979 108.022 201.945 108.133C202.695 108.218 203.276 107.324 203.661 106.404L203.667 106.41Z" fill="#E0DDDC"/>
</g>
<path d="M204.372 97.8044L201.266 95.6578C201.266 95.6578 199.113 96.904 198.16 97.5369C197.814 97.7653 196.229 97.55 194.715 97.811C194.115 97.9154 193.939 99.2594 194.526 99.4226L195.446 99.677C195.713 99.7553 195.987 99.8075 196.268 99.8271C196.836 99.8597 198.101 100.127 198.101 100.127C198.101 100.127 190.402 107.67 191.244 108.322C192.34 109.164 196.829 104.264 197.142 103.885C196.823 104.283 195.452 106.397 196.614 106.985C197.508 107.435 199.426 104.708 199.426 104.708C199.426 104.708 197.508 107.396 199.204 107.167C200.313 107.024 201.664 104.897 201.664 104.897C201.664 104.897 200.985 106.424 201.951 106.534C203.321 106.691 204.117 103.579 204.222 103.044C204.332 102.515 204.946 99.938 205.181 99.0507C205.416 98.1568 204.365 97.7979 204.365 97.7979L204.372 97.8044Z" fill="#F0C9A5"/>
<path d="M176.962 150.811H70.9818C70.726 150.811 70.5186 151.018 70.5186 151.274V151.372C70.5186 151.628 70.726 151.835 70.9818 151.835H176.962C177.217 151.835 177.425 151.628 177.425 151.372V151.274C177.425 151.018 177.217 150.811 176.962 150.811Z" fill="#6D74CA"/>
<path d="M144.423 52.9605C143.757 53.1301 143.62 53.9131 143.705 54.5982C144.064 57.5865 144.292 58.9436 145.141 58.5652C146.211 58.0889 146.198 56.4251 146.08 54.2328C146.034 53.3715 145.571 52.693 144.73 52.9083L144.423 52.9605Z" fill="#F0C9A5"/>
<path d="M146.667 52.9932C146.002 53.1628 145.565 53.7957 145.643 54.4808C146.002 57.4691 146.569 60.2877 147.418 59.9093C148.488 59.433 148.559 56.4186 148.442 54.2329C148.396 53.3716 147.581 52.7648 146.745 52.9736L146.667 52.9932Z" fill="#F0C9A5"/>
<path d="M149.036 52.9932C148.37 53.1628 147.933 53.7957 148.011 54.4808C148.37 57.4691 148.938 60.2877 149.786 59.9093C150.856 59.433 150.928 56.4186 150.811 54.2329C150.765 53.3716 149.949 52.7648 149.114 52.9736L149.036 52.9932Z" fill="#F0C9A5"/>
<path d="M151.398 52.9932C150.732 53.1628 150.295 53.7957 150.373 54.4808C150.732 57.4691 151.287 59.3939 152.135 59.0154C153.205 58.5391 152.996 56.3534 152.879 54.1676C152.833 53.3064 152.311 52.7648 151.476 52.9801L151.398 52.9997V52.9932Z" fill="#F0C9A5"/>
</svg>
