<svg width="54" height="55" viewBox="0 0 54 55" fill="none" xmlns="http://www.w3.org/2000/svg">
<path d="M27 0.504395C12.0892 0.504395 0 12.5936 0 27.5044C0 42.4151 12.0892 54.5044 27 54.5044C41.9108 54.5044 54 42.4151 54 27.5044C54 12.5936 41.9108 0.504395 27 0.504395ZM33.75 17.3794C35.6147 17.3794 37.125 18.8897 37.125 20.7544C37.125 22.6191 35.6147 24.1294 33.75 24.1294C31.8853 24.1294 30.375 22.6191 30.375 20.7544C30.375 18.8897 31.8853 17.3794 33.75 17.3794ZM20.25 17.3794C22.1147 17.3794 23.625 18.8897 23.625 20.7544C23.625 22.6191 22.1147 24.1294 20.25 24.1294C18.3853 24.1294 16.875 22.6191 16.875 20.7544C16.875 18.8897 18.3853 17.3794 20.25 17.3794ZM27 44.3794C19.3067 44.3794 16.0903 38.539 13.5203 34.2544C17.3239 36.6743 20.5267 37.6294 27.0658 37.6294C33.6049 37.6294 36.7419 36.1916 40.5456 33.7735C37.9755 38.058 34.6866 44.3794 27 44.3794Z" fill="#1A4B80"/>
</svg>
