<svg width="54" height="58" viewBox="0 0 54 58" fill="none" xmlns="http://www.w3.org/2000/svg">
<path d="M26.9983 9.44125C29.0642 9.44125 30.7446 7.76089 30.7446 5.6969V4.24875C30.745 2.18476 29.0646 0.504395 26.9983 0.504395C24.9323 0.504395 23.252 2.18476 23.252 4.24875V5.6969C23.252 7.76089 24.9323 9.44125 26.9983 9.44125Z" fill="#1A4B80"/>
<path d="M40.1529 9.6618C42.0362 9.6618 43.5676 8.13089 43.5676 6.24715V4.91123C43.5676 3.02984 42.0367 1.49658 40.1529 1.49658C38.2692 1.49658 36.7363 3.02943 36.7363 4.91123V6.24715C36.7363 8.13089 38.2692 9.6618 40.1529 9.6618Z" fill="#1A4B80"/>
<path d="M13.8457 9.6618C15.7271 9.6618 17.2603 8.13089 17.2603 6.24715L17.2599 4.91123C17.2599 3.02984 15.7271 1.49658 13.8453 1.49658C11.9616 1.49658 10.4287 3.02943 10.4287 4.91123V6.24715C10.4287 8.13089 11.962 9.6618 13.8457 9.6618H13.8457Z" fill="#1A4B80"/>
<path d="M35.2749 49.2537V49.2517C35.2709 49.2309 35.2665 49.2101 35.2645 49.1873L35.1255 48.3781C35.0008 47.654 35.2413 46.9155 35.7684 46.4013L42.2493 40.0847C42.4175 39.9209 42.3799 39.7299 42.3552 39.6551C42.3304 39.5804 42.2493 39.4042 42.0171 39.371L33.0615 38.0683C32.3335 37.9624 31.7048 37.5061 31.3792 36.8464L27.3736 28.7312C27.2697 28.5194 27.0771 28.499 26.998 28.499C26.9212 28.499 26.7262 28.5198 26.6223 28.7312L22.6186 36.8464C22.293 37.5061 21.6624 37.9625 20.9343 38.0683L11.9787 39.371C11.7465 39.4042 11.6654 39.5804 11.6406 39.6551C11.6179 39.7299 11.5783 39.9205 11.7465 40.0847L18.2274 46.4013C18.7545 46.9156 18.995 47.6544 18.8704 48.3781L18.7313 49.1873C18.7293 49.2101 18.7253 49.2329 18.7189 49.2581L17.3415 57.2986C17.3019 57.5307 17.4454 57.6614 17.5073 57.7094C17.5716 57.7549 17.7395 57.8504 17.9493 57.7405L25.9586 53.5295C26.2843 53.3573 26.6411 53.2721 26.9979 53.2721C27.3548 53.2721 27.7136 53.3573 28.0393 53.5295L36.0487 57.7405C36.256 57.8504 36.4263 57.7549 36.4886 57.7094C36.553 57.6618 36.696 57.5311 36.6569 57.2986L35.2749 49.2537Z" fill="#1A4B80"/>
<path d="M7.46096 30.3082H8.25139V19.2946C8.25139 19.0085 8.48356 18.776 8.77008 18.776C9.05859 18.776 9.28876 19.0081 9.28876 19.2946V30.3368L12.2179 24.3999C12.4441 23.9415 12.9048 23.655 13.4172 23.653H13.4211C13.9334 23.653 14.3942 23.9391 14.6244 24.3999L16.2716 27.7397L16.2712 20.0162C16.2712 17.5889 17.4328 15.4295 19.2315 14.0624C18.4867 13.7328 17.6778 13.5605 16.8519 13.5605H10.8422C9.77808 13.5605 8.73667 13.8467 7.82795 14.3905C6.05009 15.4487 4.94434 17.3904 4.94434 19.4564L4.94474 27.7914C4.94474 29.1792 6.0732 30.3078 7.46109 30.3078L7.46096 30.3082Z" fill="#1A4B80"/>
<path d="M17.8482 48.2044C17.9146 47.8164 17.7859 47.4204 17.5038 47.1443L11.0229 40.8277C10.6245 40.4377 10.4835 39.8651 10.6557 39.334C10.8279 38.8049 11.2779 38.4253 11.8298 38.3445L20.7873 37.0438C21.1773 36.9859 21.5134 36.7409 21.6876 36.3885L23.0112 33.7039L21.4531 33.4777L21.3928 33.4694L18.8953 33.1065L18.8869 33.1045C18.8621 33.1045 18.8393 33.1005 18.8166 33.0961L18.8042 33.0941L18.7254 33.0817C18.0637 32.9842 17.4951 32.5714 17.2006 31.974L13.6908 24.8607C13.6161 24.7072 13.475 24.6968 13.4171 24.6904C13.3611 24.6904 13.2221 24.7072 13.1473 24.8583L9.63519 31.9741C9.51291 32.223 9.34068 32.4408 9.13529 32.6131C9.1229 32.6255 9.11051 32.6358 9.09772 32.6462C9.08533 32.6566 9.07295 32.667 9.05816 32.6754C8.78643 32.8912 8.46275 33.0303 8.1103 33.0818L0.260879 34.2226C0.0930467 34.2474 0.032701 34.3741 0.0163229 34.428C-0.0024582 34.482 -0.029232 34.6211 0.0930473 34.7393L5.77301 40.2763C6.25213 40.745 6.46992 41.4152 6.35603 42.0705L5.0154 49.8868C4.98663 50.057 5.08813 50.1501 5.13368 50.1833C5.17923 50.2165 5.30391 50.2872 5.45536 50.2061L12.4777 46.5157C13.0667 46.2044 13.772 46.2044 14.3614 46.5157L17.8256 48.3391L17.8482 48.2044Z" fill="#1A4B80"/>
<path d="M37.7269 20.019V27.7442L39.376 24.4023C39.6022 23.944 40.0625 23.6575 40.5753 23.6554H40.5773C41.0916 23.6554 41.5523 23.9416 41.7805 24.4023L44.7097 30.3373L44.7093 19.2972C44.7093 19.0111 44.9414 18.7785 45.2279 18.7785C45.5145 18.7785 45.7466 19.0107 45.7466 19.2972V30.3107H46.537C47.9248 30.3107 49.0534 29.1822 49.0534 27.7944V19.4593C49.0534 17.393 47.9497 15.4512 46.1723 14.3935C45.2616 13.85 44.2202 13.5635 43.158 13.5635H37.1459C36.3203 13.5635 35.5111 13.7357 34.7666 14.0654C36.5648 15.4324 37.7269 17.5919 37.7269 20.0191L37.7269 20.019Z" fill="#1A4B80"/>
<path d="M33.9205 31.8228C35.4474 31.8228 36.6897 30.5801 36.6897 29.0511V20.0169C36.6897 16.4695 33.8042 13.582 30.2549 13.582H23.7409C20.1936 13.582 17.3057 16.4696 17.3057 20.0169V29.0511C17.3057 30.58 18.5484 31.8228 20.0774 31.8228H20.9777V19.8405C20.9777 19.5544 21.2078 19.3218 21.4964 19.3218C21.7825 19.3218 22.0151 19.554 22.0151 19.8405V32.5113L23.494 32.7271L25.693 28.2731C25.94 27.7712 26.4399 27.4619 26.9977 27.4619C27.5556 27.4619 28.0559 27.7707 28.3048 28.2731L30.5015 32.7271L31.9825 32.5113L31.9829 19.8405C31.9829 19.5544 32.215 19.3218 32.5016 19.3218C32.7881 19.3218 33.0202 19.554 33.0202 19.8405V31.8228H33.9205Z" fill="#1A4B80"/>
<path d="M53.9084 34.7413C54.0287 34.621 54.002 34.4839 53.9852 34.43C53.9664 34.376 53.9084 34.2474 53.7402 34.2226L45.8864 33.0817C45.5192 33.0278 45.1791 32.8744 44.901 32.6462C44.8866 32.6378 44.8742 32.6274 44.8634 32.613C44.658 32.4408 44.4858 32.223 44.3635 31.974L40.8537 24.8607C40.777 24.7072 40.6339 24.6968 40.58 24.6904C40.524 24.6904 40.385 24.7072 40.3103 24.8583L36.7985 31.9741C36.502 32.5715 35.9314 32.9863 35.2737 33.0818L35.1949 33.0942L35.1825 33.0962C35.1598 33.1002 35.137 33.1046 35.1122 33.1046L35.1038 33.1066L32.6103 33.4694H32.6083L32.5479 33.4778H32.5439L30.9883 33.706L32.3118 36.3882C32.4861 36.7406 32.8241 36.9856 33.2141 37.0435L42.1697 38.3442C42.7216 38.425 43.1715 38.8046 43.3457 39.3337C43.518 39.8648 43.3769 40.4374 42.9765 40.8274L36.4956 47.1444C36.2135 47.4202 36.0849 47.8166 36.1512 48.2046L36.174 48.3372L39.6406 46.5158C40.2296 46.2045 40.9329 46.2045 41.5243 46.5158L48.5442 50.2082C48.6956 50.2869 48.8179 50.2166 48.8635 50.1834C48.911 50.1502 49.0129 50.0547 48.9858 49.8869L47.6435 42.0702C47.5336 41.4149 47.7494 40.7447 48.2241 40.2779L53.9084 34.7413Z" fill="#1A4B80"/>
</svg>
