<svg width="16" height="16" viewBox="0 0 16 16" fill="none" xmlns="http://www.w3.org/2000/svg">
<g id="Icons">
<path id="Vector" d="M14.3135 6.0992L10.2146 5.47216L8.37738 1.55299C8.24016 1.26033 7.76072 1.26033 7.6235 1.55299L5.78683 5.47216L1.68796 6.0992C1.35129 6.15095 1.21685 6.561 1.45296 6.80303L4.43073 9.8598L3.72684 14.1812C3.67073 14.5245 4.03684 14.7821 4.33962 14.6135L8.00072 12.5872L11.6618 14.6141C11.9618 14.781 12.3313 14.5284 12.2746 14.1818L11.5707 9.86036L14.5485 6.80359C14.7846 6.561 14.6496 6.15095 14.3135 6.0992Z" fill="#FFC107"/>
<path id="Vector_2" d="M10.2144 5.47216L14.3133 6.0992C14.6494 6.15095 14.7844 6.561 14.5483 6.80359L11.5705 9.86036L12.2744 14.1818C12.331 14.5284 11.9616 14.781 11.6616 14.6141L8.00049 12.5872V1.3335C8.15456 1.33358 8.30859 1.40675 8.37715 1.55299L10.2144 5.47216Z" fill="#D9D9D9"/>
</g>
</svg>
